<svg xmlns="http://www.w3.org/2000/svg" width="1440" height="194" viewBox="0 0 1440 194" fill="none"><g clip-path="url(#clip0_142_4887)"><path d="M1359.77 194C1342.54 194 1325.86 194 1309.74 194H1279.54H1249.33H1199.31H1149.3H1119.1H1088.89H1038.87H988.855H958.648H928.448H878.431H828.413H798.207H768.007H717.989H667.972H637.765H607.566H557.548H507.531H477.331H447.124H397.107H347.089H316.89H286.683H236.665H186.648H156.441H126.235H76.2171H26.1996H-4V0C21.838 0 35.2475 6.80558 46.0175 12.2695C55.2842 16.9664 61.9536 20.3579 76.2171 20.3579C90.4806 20.3579 97.1713 16.9664 106.424 12.2695C117.194 6.81648 130.596 0 156.441 0C182.286 0 195.689 6.80558 206.459 12.2695C215.704 16.9664 222.388 20.3579 236.665 20.3579C250.943 20.3579 257.62 16.9664 266.872 12.2695C277.642 6.81648 291.045 0 316.89 0C342.735 0 356.137 6.80558 366.907 12.2695C376.153 16.9664 382.836 20.3579 397.107 20.3579C411.377 20.3579 418.061 16.9664 427.314 12.2695C438.083 6.81648 451.486 0 477.331 0C503.176 0 516.578 6.80558 527.348 12.2695C536.601 16.9664 543.285 20.3579 557.555 20.3579C571.826 20.3579 578.502 16.9664 587.755 12.2695C598.525 6.81648 611.934 0 637.772 0C663.61 0 677.02 6.80558 687.79 12.2695C697.042 16.9664 703.726 20.3579 717.996 20.3579C732.267 20.3579 738.951 16.9664 748.196 12.2695C758.973 6.81648 772.376 0 798.214 0C824.052 0 837.461 6.80558 848.231 12.2695C857.484 16.9664 864.167 20.3579 878.438 20.3579C892.708 20.3579 899.392 16.9664 908.637 12.2695C919.414 6.81648 932.817 0 958.655 0C984.493 0 997.902 6.80558 1008.67 12.2695C1017.92 16.9664 1024.61 20.3579 1038.88 20.3579C1053.15 20.3579 1059.83 16.9664 1069.09 12.2695C1079.86 6.81648 1093.26 0 1119.1 0C1144.95 0 1158.35 6.80558 1169.12 12.2695C1178.37 16.9664 1185.05 20.3579 1199.32 20.3579C1213.59 20.3579 1220.27 16.9664 1229.53 12.2695C1240.3 6.81648 1253.71 0 1279.54 0C1305.38 0 1318.79 6.80558 1329.57 12.2695C1338.81 16.9664 1345.5 20.3579 1359.78 20.3579C1374.05 20.3579 1380.73 16.9664 1389.98 12.2695C1400.75 6.81648 1414.15 0 1440 0V194H1409.79C1393.67 194 1376.99 194 1359.77 194Z" fill="#F7F7F7"></path></g><defs><clipPath id="clip0_142_4887"><rect width="1440" height="194" fill="white"></rect></clipPath></defs></svg>