<svg xmlns="http://www.w3.org/2000/svg" width="1664" height="184" viewBox="0 0 1664 184" fill="none"><g clip-path="url(#clip0_210_6506)"><path fill-rule="evenodd" clip-rule="evenodd" d="M1486.22 49.0136C1353.44 35.0802 1375.18 95.5136 1251.72 95.5136C1128.27 95.5136 1141.5 30.4998 969.5 12.947C797.5 -4.60583 765.399 62.947 542 62.947C471.317 62.947 434.5 -17.053 316.5 19.947C237.834 44.6137 132.575 66.7804 0.722656 86.447V183.947L1486.22 184.014L1665.22 183.947C1634.41 103.281 1574.74 58.3025 1486.22 49.0136Z" fill="#E7EEEF"></path><path fill-rule="evenodd" clip-rule="evenodd" d="M179 49.0137C220.985 36.449 290.043 95.5137 413.5 95.5137C536.957 95.5137 526.5 -2.48621 745 15.0137C963.5 32.5137 972.601 88.0137 1196 88.0137C1266.68 88.0137 1319.38 54.4446 1402.69 79.2292C1458.23 95.7522 1545.5 98.1582 1664.5 86.4472V183.947L179 184.014L0 183.947V86.4472C112.343 63.4838 172.343 51.006 179 49.0137Z" fill="#F7F7F7"></path></g><defs><clipPath id="clip0_210_6506"><rect width="1664" height="184" fill="white"></rect></clipPath></defs></svg>