<svg xmlns="http://www.w3.org/2000/svg" xmlns:xlink="http://www.w3.org/1999/xlink" width="100px" height="108px" viewBox="0 0 100 108"><title>1ED3C6AD-BC43-49F0-9B43-D3FF3213829C</title><g id="Page-1" stroke="none" stroke-width="1" fill="none" fill-rule="evenodd"><g id="De-bebe---Home-3" transform="translate(-670.000000, -6152.000000)" fill="#0A1E33" fill-rule="nonzero"><g id="Group-21" transform="translate(499.000000, 5229.000000)"><g id="path" transform="translate(221.005908, 976.854772) scale(1, -1) rotate(-131.000000) translate(-221.005908, -976.854772) translate(160.533922, 964.392071)"><path d="M107.179693,16.8597238 C107.101597,16.8597238 107.023501,16.8597238 106.919373,16.8280644 C106.867309,16.8280644 102.754256,15.466713 100.020899,15.2134383 C99.474227,15.1501196 99.0837474,14.5802516 99.1358113,13.9470649 C99.1878753,13.3138781 99.6304189,12.7756694 100.17709,12.8706474 C103.06664,13.1555815 107.257789,14.5169329 107.41398,14.5802516 C107.93462,14.7385483 108.247004,15.4033943 108.090812,16.036581 C107.986684,16.5114711 107.596204,16.8597238 107.179693,16.8597238 Z" id="Path"></path><path d="M98.4832851,4 C98.4051891,4 98.3270932,4 98.2229653,3.96834503 C98.1709013,3.96834503 94.0578487,2.6071814 91.324491,2.35394166 C90.7778195,2.29063172 90.3873398,1.72084229 90.4394037,1.08774293 C90.4914677,0.422988601 90.9340113,-0.0834908891 91.4806829,0.0114740153 C94.3702325,0.296368728 98.561381,1.65753236 98.7175729,1.72084229 C99.2382124,1.87911714 99.5505962,2.54387147 99.3944043,3.17697083 C99.2902764,3.65179535 98.8997967,4 98.4832851,4 Z" id="Path"></path><path d="M79.9624162,12.597757 C79.5472212,12.597757 79.1579758,12.2837415 79.0282274,11.7813168 C78.8725293,11.1532858 79.1579758,10.4938533 79.6769697,10.305444 C82.4535865,9.26919284 86.7093357,8.64116186 86.8909836,8.60976031 C87.4099774,8.51555566 87.9030215,8.9865789 87.9808706,9.64601143 C88.0327699,10.305444 87.6694743,10.8706718 87.1245308,10.9648765 C87.0726314,10.9648765 82.8428319,11.5929075 80.2478628,12.5663555 C80.1700138,12.5663555 80.066215,12.597757 79.9624162,12.597757 Z" id="Path"></path><path d="M66.5793881,8.42527666 C66.1389345,8.42527666 65.750299,8.14363255 65.6466629,7.70836439 C65.5171177,7.1962842 65.8021171,6.6586 66.3202977,6.53057995 C69.1184733,5.78806367 73.3934637,5.45521155 73.574827,5.42960754 C74.1189167,5.37839952 74.5852793,5.78806367 74.6111883,6.30014386 C74.6630064,6.83782806 74.2484618,7.29870023 73.7302812,7.32430424 C73.6784631,7.32430424 69.4552907,7.65715637 66.8384784,8.37406864 C66.7348423,8.39967265 66.6571152,8.42527666 66.5793881,8.42527666 Z" id="Path"></path><path d="M45.0235952,4.26196049 C44.5829869,4.26196049 44.194215,3.98031638 44.0905425,3.54504822 C43.9609518,3.03296803 44.2460512,2.49528383 44.7644138,2.36726378 C47.563572,1.6247475 51.8400635,1.29189538 52.0214904,1.26629137 C52.5657712,1.21508335 53.0322975,1.6247475 53.0582157,2.13682769 C53.0841338,2.64890788 52.6953618,3.13538407 52.1769992,3.16098808 C52.125163,3.16098808 47.9005077,3.4938402 45.2827765,4.21075247 C45.2050221,4.26196049 45.1013495,4.26196049 45.0235952,4.26196049 Z" id="Path"></path><path d="M27.5366249,7.61124529 C27.0961714,7.61124529 26.7075359,7.32930779 26.6038997,6.89358619 C26.4743546,6.38097255 26.7593539,5.84272822 27.2775346,5.71457481 C30.0757102,4.97128503 34.3507006,4.63808616 34.5320638,4.61245547 C35.0502445,4.58682479 35.5425161,4.97128503 35.5684252,5.48389867 C35.6202432,6.022143 35.2056987,6.48349527 34.687518,6.50912596 C34.6357,6.50912596 30.4125276,6.84232483 27.7957153,7.55998393 C27.7179882,7.61124529 27.614352,7.61124529 27.5366249,7.61124529 Z" id="Path"></path><path d="M28.1326431,16.3817907 C28.1070283,16.3817907 28.0557986,16.3817907 28.0301837,16.3817907 C27.978954,16.3817907 23.8037339,15.8417907 21.1397898,16.0817907 C20.6274929,16.1717907 20.1408108,15.6617907 20.1151959,15.0317907 C20.0639662,14.4017907 20.4738038,13.8617907 21.0117156,13.8317907 C23.8805785,13.5617907 28.0814134,14.1017907 28.2607173,14.1317907 C28.7986291,14.1917907 29.157237,14.7617907 29.1060073,15.3617907 C29.0291628,15.9617907 28.6193252,16.3817907 28.1326431,16.3817907 Z" id="Path"></path><path d="M65.8595117,18.3993075 C65.4189035,18.3993075 65.0301316,18.1176634 64.926459,17.6823952 C64.7968684,17.170315 65.0819678,16.6326308 65.6003304,16.5046108 C68.3994886,15.7620945 72.6759801,15.4292424 72.857407,15.4036384 C73.4016878,15.3524303 73.8682141,15.7620945 73.8941323,16.2741747 C73.9200504,16.7862549 73.5312784,17.2727311 73.0129158,17.2983351 C72.9610796,17.2983351 68.7364243,17.6311872 66.1186931,18.3480995 C66.0150205,18.3737035 65.9372661,18.3993075 65.8595117,18.3993075 Z" id="Path"></path><path d="M54.9331318,14.2014965 C54.4926783,14.2014965 54.1040428,13.9198524 54.0004066,13.4845842 C53.8708615,12.972504 54.1558608,12.4348198 54.6740415,12.3067998 C57.4722171,11.5642835 61.7472075,11.2314314 61.9285707,11.2058274 C62.4726604,11.1546193 62.939023,11.5642835 62.964932,12.0763637 C63.0167501,12.6140479 62.6022056,13.0749201 62.0840249,13.1005241 C62.0322069,13.1005241 57.8090345,13.4333762 55.1922221,14.1502885 C55.088586,14.2014965 55.0108589,14.2014965 54.9331318,14.2014965 Z" id="Path"></path><path d="M48.4711921,23.1593609 C48.0307385,23.1593609 47.642103,22.8777168 47.5384669,22.4424486 C47.4089217,21.9303684 47.6939211,21.3926842 48.2121017,21.2646642 C51.0102773,20.5221479 55.2852678,20.1892958 55.466631,20.1636918 C55.9848117,20.1124837 56.4770833,20.5221479 56.5029923,21.0342281 C56.5548104,21.5719123 56.1402658,22.0327845 55.6220852,22.0583885 C55.5702671,22.0583885 51.3470947,22.3912406 48.7302824,23.1081529 C48.6525553,23.1593609 48.5748282,23.1593609 48.4711921,23.1593609 Z" id="Path"></path><path d="M22.979045,23.5243022 C22.5384368,23.5243022 22.1496648,23.2426581 22.0459923,22.8073899 C21.9164016,22.2953097 22.2015011,21.7576255 22.7198637,21.6296055 C25.5190218,20.8870892 29.7955134,20.5542371 29.9769403,20.5286331 C30.521221,20.4774251 30.9877474,20.8870892 31.0136655,21.3991694 C31.0395836,21.9112496 30.6508117,22.3977258 30.1324491,22.4233298 C30.0806128,22.4233298 25.8559575,22.7561819 23.2382263,23.4730942 C23.1604719,23.5243022 23.0827175,23.5243022 22.979045,23.5243022 Z" id="Path"></path><path d="M0.964155725,22.9372328 C0.523547503,22.9372328 0.134775542,22.6555887 0.0311030191,22.2203206 C-0.0984876345,21.7082404 0.186611803,21.1705562 0.704974417,21.0425361 C3.50413253,20.3000198 7.7806241,19.9671677 7.96205102,19.9415637 C8.50633176,19.8903557 8.97285811,20.3000198 8.99877624,20.8121 C9.02469437,21.3241802 8.63592241,21.8106564 8.1175598,21.8362604 C8.06572354,21.8362604 3.84106823,22.1691125 1.22333703,22.8860248 C1.14558264,22.9372328 1.04191012,22.9372328 0.964155725,22.9372328 Z" id="Path"></path><path d="M112.908129,22.1976823 C112.46752,22.1976823 112.078748,21.9157448 111.975076,21.4800232 C111.845485,20.9674096 112.130585,20.4291653 112.648947,20.3010118 C115.448105,19.5577221 119.724597,19.2245232 119.906024,19.1988925 C120.450305,19.1732618 120.916831,19.5577221 120.942749,20.0703357 C120.968667,20.5829493 120.579895,21.0699323 120.061533,21.095563 C120.009696,21.095563 115.785041,21.4287619 113.16731,22.146421 C113.089556,22.1976823 112.985883,22.1976823 112.908129,22.1976823 Z" id="Path"></path><path d="M91.1202098,24.7045224 C91.0945949,24.7045224 91.06898,24.7045224 91.0177501,24.7045224 C90.9665202,24.7045224 86.7912862,24.2245224 84.1273332,24.4945224 C83.5894197,24.5845224 83.1283509,24.1045224 83.077121,23.4745224 C83.0258911,22.8445224 83.4101151,22.3045224 83.9480287,22.2445224 C86.7912862,21.9445224 91.0177501,22.4245224 91.1970546,22.4545224 C91.7349682,22.5145224 92.1191922,23.0545224 92.0679623,23.6845224 C92.0423474,24.2545224 91.6325085,24.7045224 91.1202098,24.7045224 Z" id="Path"></path></g></g></g></g></svg>