<svg xmlns="http://www.w3.org/2000/svg" xmlns:xlink="http://www.w3.org/1999/xlink" width="1440px" height="194px" viewBox="0 0 1440 194"><title>wave-1</title><g id="Home-2" stroke="none" stroke-width="1" fill="none" fill-rule="evenodd"><g id="De-bebe---Home-3" transform="translate(0.000000, -808.000000)" fill="#FFFFFF" fill-rule="nonzero"><g id="bg-wave" transform="translate(0.000000, 808.000000)"><path d="M1363.76876,194 C1346.53871,194 1329.86386,194 1313.74421,194 L1283.53752,194 L1253.33082,194 L1203.31334,194 L1153.29585,194 L1123.09621,194 L1092.88952,194 L1042.87203,194 L992.854541,194 L962.647846,194 L932.448209,194 L882.430721,194 L832.413234,194 L802.206539,194 L772.006901,194 L721.989414,194 L671.971926,194 L641.765231,194 L611.565594,194 L561.548106,194 L511.530618,194 L481.330981,194 L451.124286,194 L401.106798,194 L351.08931,194 L320.889673,194 L290.682978,194 L240.66549,194 L190.648003,194 L160.441308,194 L130.234613,194 L80.217125,194 L30.1996373,194 L0,194 L0,0 C25.8380164,0 39.2475306,6.80539683 50.0174877,12.2693452 C59.2841677,16.9662324 65.9536366,20.3580247 80.217125,20.3580247 C94.4806135,20.3580247 101.171255,16.9662324 110.42382,12.2693452 C121.193777,6.81630291 134.596234,0 160.441308,0 C186.286382,0 199.688838,6.80539683 210.458795,12.2693452 C219.704303,16.9662324 226.387887,20.3580247 240.66549,20.3580247 C254.943094,20.3580247 261.619621,16.9662324 270.872185,12.2693452 C281.642143,6.81630291 295.044599,0 320.889673,0 C346.734747,0 360.137204,6.80539683 370.907161,12.2693452 C380.152668,16.9662324 386.836252,20.3580247 401.106798,20.3580247 C415.377344,20.3580247 422.060928,16.9662324 431.313493,12.2693452 C442.08345,6.81630291 455.485907,0 481.330981,0 C507.176055,0 520.578511,6.80539683 531.348468,12.2693452 C540.601033,16.9662324 547.284617,20.3580247 561.555163,20.3580247 C575.82571,20.3580247 582.502236,16.9662324 591.754801,12.2693452 C602.524758,6.81630291 615.934272,0 641.772289,0 C667.610305,0 681.019819,6.80539683 691.789776,12.2693452 C701.042341,16.9662324 707.725925,20.3580247 721.996471,20.3580247 C736.267017,20.3580247 742.950601,16.9662324 752.196109,12.2693452 C762.973123,6.81630291 776.37558,0 802.213596,0 C828.051613,0 841.461127,6.80539683 852.231084,12.2693452 C861.483649,16.9662324 868.167233,20.3580247 882.437779,20.3580247 C896.708325,20.3580247 903.391909,16.9662324 912.637416,12.2693452 C923.414431,6.81630291 936.816888,0 962.654904,0 C988.49292,0 1001.90243,6.80539683 1012.67239,12.2693452 C1021.92496,16.9662324 1028.60854,20.3580247 1042.87909,20.3580247 C1057.14963,20.3580247 1063.83322,16.9662324 1073.08578,12.2693452 C1083.85574,6.81630291 1097.2582,0 1123.10327,0 C1148.94834,0 1162.3508,6.80539683 1173.12076,12.2693452 C1182.36626,16.9662324 1189.04985,20.3580247 1203.32039,20.3580247 C1217.59094,20.3580247 1224.27452,16.9662324 1233.52709,12.2693452 C1244.29705,6.81630291 1257.70656,0 1283.54458,0 C1309.38259,0 1322.79211,6.80539683 1333.56912,12.2693452 C1342.81463,16.9662324 1349.49821,20.3580247 1363.77582,20.3580247 C1378.05342,20.3580247 1384.72995,16.9662324 1393.98251,12.2693452 C1404.75247,6.81630291 1418.15493,0 1444,0 L1444,194 L1413.79331,194 C1397.66895,194 1380.9941,194 1363.76876,194 Z" id="wave-1"></path></g></g></g></svg>