<svg xmlns="http://www.w3.org/2000/svg" xmlns:xlink="http://www.w3.org/1999/xlink" width="1440px" height="94px" viewBox="0 0 1440 94"><title>wave-header</title><g id="Home-2" stroke="none" stroke-width="1" fill="none" fill-rule="evenodd"><g id="De-bebe---Home-3" fill="#E7EEEF" fill-rule="nonzero"><path d="M1363.76876,94 C1346.53871,94 1329.86386,94 1313.74421,94 L1283.53752,94 L1253.33082,94 L1203.31334,94 L1153.29585,94 L1123.09621,94 L1092.88952,94 L1042.87203,94 L992.854541,94 L962.647846,94 L932.448209,94 L882.430721,94 L832.413234,94 L802.206539,94 L772.006901,94 L721.989414,94 L671.971926,94 L641.765231,94 L611.565594,94 L561.548106,94 L511.530618,94 L481.330981,94 L451.124286,94 L401.106798,94 L351.08931,94 L320.889673,94 L290.682978,94 L240.66549,94 L190.648003,94 L160.441308,94 L130.234613,94 L80.217125,94 L30.1996373,94 L0,94 L0,-1 C25.8380164,-1 39.2475306,5.80539683 50.0174877,11.2693452 C59.2841677,15.9662324 65.9536366,19.3580247 80.217125,19.3580247 C94.4806135,19.3580247 101.171255,15.9662324 110.42382,11.2693452 C121.193777,5.81630291 134.596234,-1 160.441308,-1 C186.286382,-1 199.688838,5.80539683 210.458795,11.2693452 C219.704303,15.9662324 226.387887,19.3580247 240.66549,19.3580247 C254.943094,19.3580247 261.619621,15.9662324 270.872185,11.2693452 C281.642143,5.81630291 295.044599,-1 320.889673,-1 C346.734747,-1 360.137204,5.80539683 370.907161,11.2693452 C380.152668,15.9662324 386.836252,19.3580247 401.106798,19.3580247 C415.377344,19.3580247 422.060928,15.9662324 431.313493,11.2693452 C442.08345,5.81630291 455.485907,-1 481.330981,-1 C507.176055,-1 520.578511,5.80539683 531.348468,11.2693452 C540.601033,15.9662324 547.284617,19.3580247 561.555163,19.3580247 C575.82571,19.3580247 582.502236,15.9662324 591.754801,11.2693452 C602.524758,5.81630291 615.934272,-1 641.772289,-1 C667.610305,-1 681.019819,5.80539683 691.789776,11.2693452 C701.042341,15.9662324 707.725925,19.3580247 721.996471,19.3580247 C736.267017,19.3580247 742.950601,15.9662324 752.196109,11.2693452 C762.973123,5.81630291 776.37558,-1 802.213596,-1 C828.051613,-1 841.461127,5.80539683 852.231084,11.2693452 C861.483649,15.9662324 868.167233,19.3580247 882.437779,19.3580247 C896.708325,19.3580247 903.391909,15.9662324 912.637416,11.2693452 C923.414431,5.81630291 936.816888,-1 962.654904,-1 C988.49292,-1 1001.90243,5.80539683 1012.67239,11.2693452 C1021.92496,15.9662324 1028.60854,19.3580247 1042.87909,19.3580247 C1057.14963,19.3580247 1063.83322,15.9662324 1073.08578,11.2693452 C1083.85574,5.81630291 1097.2582,-1 1123.10327,-1 C1148.94834,-1 1162.3508,5.80539683 1173.12076,11.2693452 C1182.36626,15.9662324 1189.04985,19.3580247 1203.32039,19.3580247 C1217.59094,19.3580247 1224.27452,15.9662324 1233.52709,11.2693452 C1244.29705,5.81630291 1257.70656,-1 1283.54458,-1 C1309.38259,-1 1322.79211,5.80539683 1333.56912,11.2693452 C1342.81463,15.9662324 1349.49821,19.3580247 1363.77582,19.3580247 C1378.05342,19.3580247 1384.72995,15.9662324 1393.98251,11.2693452 C1404.75247,5.81630291 1418.15493,-1 1444,-1 L1444,94 L1413.79331,94 C1397.66895,94 1380.9941,94 1363.76876,94 Z" id="wave-header" transform="translate(722.000000, 46.500000) scale(1, -1) translate(-722.000000, -46.500000) "></path></g></g></svg>