<svg xmlns="http://www.w3.org/2000/svg" xmlns:xlink="http://www.w3.org/1999/xlink" width="1440px" height="194px" viewBox="0 0 1440 194"><title>wave-2</title><g id="Home-2" stroke="none" stroke-width="1" fill="none" fill-rule="evenodd"><g id="De-bebe---Home-3" transform="translate(0.000000, -1592.000000)" fill="#F7F7F7" fill-rule="nonzero"><g id="Group-9" transform="translate(-128.000000, 1592.000000)"><g id="Group-12" transform="translate(121.000000, 0.000000)"><path d="M1370.76876,194 C1353.53871,194 1336.86386,194 1320.74421,194 L1290.53752,194 L1260.33082,194 L1210.31334,194 L1160.29585,194 L1130.09621,194 L1099.88952,194 L1049.87203,194 L999.854541,194 L969.647846,194 L939.448209,194 L889.430721,194 L839.413234,194 L809.206539,194 L779.006901,194 L728.989414,194 L678.971926,194 L648.765231,194 L618.565594,194 L568.548106,194 L518.530618,194 L488.330981,194 L458.124286,194 L408.106798,194 L358.08931,194 L327.889673,194 L297.682978,194 L247.66549,194 L197.648003,194 L167.441308,194 L137.234613,194 L87.217125,194 L37.1996373,194 L7,194 L7,0 C32.8380164,0 46.2475306,6.80539683 57.0174877,12.2693452 C66.2841677,16.9662324 72.9536366,20.3580247 87.217125,20.3580247 C101.480613,20.3580247 108.171255,16.9662324 117.42382,12.2693452 C128.193777,6.81630291 141.596234,0 167.441308,0 C193.286382,0 206.688838,6.80539683 217.458795,12.2693452 C226.704303,16.9662324 233.387887,20.3580247 247.66549,20.3580247 C261.943094,20.3580247 268.619621,16.9662324 277.872185,12.2693452 C288.642143,6.81630291 302.044599,0 327.889673,0 C353.734747,0 367.137204,6.80539683 377.907161,12.2693452 C387.152668,16.9662324 393.836252,20.3580247 408.106798,20.3580247 C422.377344,20.3580247 429.060928,16.9662324 438.313493,12.2693452 C449.08345,6.81630291 462.485907,0 488.330981,0 C514.176055,0 527.578511,6.80539683 538.348468,12.2693452 C547.601033,16.9662324 554.284617,20.3580247 568.555163,20.3580247 C582.82571,20.3580247 589.502236,16.9662324 598.754801,12.2693452 C609.524758,6.81630291 622.934272,0 648.772289,0 C674.610305,0 688.019819,6.80539683 698.789776,12.2693452 C708.042341,16.9662324 714.725925,20.3580247 728.996471,20.3580247 C743.267017,20.3580247 749.950601,16.9662324 759.196109,12.2693452 C769.973123,6.81630291 783.37558,0 809.213596,0 C835.051613,0 848.461127,6.80539683 859.231084,12.2693452 C868.483649,16.9662324 875.167233,20.3580247 889.437779,20.3580247 C903.708325,20.3580247 910.391909,16.9662324 919.637416,12.2693452 C930.414431,6.81630291 943.816888,0 969.654904,0 C995.49292,0 1008.90243,6.80539683 1019.67239,12.2693452 C1028.92496,16.9662324 1035.60854,20.3580247 1049.87909,20.3580247 C1064.14963,20.3580247 1070.83322,16.9662324 1080.08578,12.2693452 C1090.85574,6.81630291 1104.2582,0 1130.10327,0 C1155.94834,0 1169.3508,6.80539683 1180.12076,12.2693452 C1189.36626,16.9662324 1196.04985,20.3580247 1210.32039,20.3580247 C1224.59094,20.3580247 1231.27452,16.9662324 1240.52709,12.2693452 C1251.29705,6.81630291 1264.70656,0 1290.54458,0 C1316.38259,0 1329.79211,6.80539683 1340.56912,12.2693452 C1349.81463,16.9662324 1356.49821,20.3580247 1370.77582,20.3580247 C1385.05342,20.3580247 1391.72995,16.9662324 1400.98251,12.2693452 C1411.75247,6.81630291 1425.15493,0 1451,0 L1451,194 L1420.79331,194 C1404.66895,194 1387.9941,194 1370.76876,194 Z" id="wave-2"></path></g></g></g></g></svg>