<svg xmlns="http://www.w3.org/2000/svg" xmlns:xlink="http://www.w3.org/1999/xlink" id="Layer_1" x="0px" y="0px" viewBox="0 0 160 73" style="enable-background:new 0 0 160 73;" xml:space="preserve"><style type="text/css">	.st0{fill:#99B8BA;}</style><g id="Home-1">	<g id="De-bebe---Home-1-" transform="translate(-617.000000, -271.000000)">		<g id="Rectangle-2" transform="translate(-4.000000, 90.000000)">			<path id="Shape" class="st0" d="M661,252.3c-24.1,0-36.3-4-38.5-12.6c-1.8-7-0.6-13.6,3.4-18.8c3.5-4.5,8.7-7.3,13.7-7.3    c1.4,0,2.7,0.2,3.9,0.6c3.9-7.2,10.2-15.3,18.2-15.3c0.9,0,1.8,0.1,2.7,0.3c3.7-11.5,11.9-15.1,23.5-10c4,1.8,7.5,3.6,10.3,5.3    c2.9-6.9,9.2-13.8,18.6-13.8c2.6,0,5.3,0.5,8.1,1.5c6.8,2.5,11.9,6.3,14.8,11.2c3.4-0.1,6.7,1.6,10,5    c6.4,6.7,11.3,14.2,13.7,20.9c5.1-2.3,10.3-1.3,14.4,2.9c4.4,4.5,4.2,8.2,3.2,10.6c-3.2,8-20.2,13.3-45.4,14.4    c-7.6,0.3-17.1,1.2-27,2C693.3,250.8,675.9,252.3,661,252.3L661,252.3z M640.6,215.1c-4.3,0-8.8,2.4-11.8,6.3    c-3.6,4.6-4.6,10.5-3,16.7c1.9,7.3,13.7,10.8,36.2,10.8l0,0c14.7,0,32-1.5,47.3-2.9c9.9-0.9,19.4-1.7,27-2    c23.9-1,40.5-6,43.2-12.9c1-2.5,0.1-5.2-2.7-8.1c-3.5-3.6-7.8-4.3-12-2.3c1.1,4,0.9,7.2-0.5,9c-1,1.4-2.5,2-4.6,1.8    c-1.9-0.2-3.2-1.1-3.5-2.7c-0.6-2.7,2-6.7,5.8-9.3c-2.2-6.4-7.1-13.9-13.3-20.3c-2.4-2.5-4.8-3.9-7.1-4.2    c2,4.9,1.8,10.3-0.6,14.4c-1.7,2.9-4.3,4.6-7,4.6l0,0c-0.4,0-0.9,0-1.3-0.1c-2.9-0.6-4.6-3.2-4.4-7c0.2-5.6,4.2-12.1,9.7-13.7    c-2.7-3.9-7.1-7.2-13.1-9.3c-2.6-0.9-5-1.4-7.3-1.4c-10.3,0-15.1,8.8-16.6,12.6c7.3,4.8,8.2,8.2,7.8,10.2c-0.6,2.3-3.1,3.8-7,4.1    c0,0-0.3,0-0.4,0l0,0c-1.3,0-2.4-0.6-3.1-1.7c-1.6-2.4-1.6-6.9,0-11.8c-2.8-1.7-6.4-3.5-10.4-5.3c-10.2-4.6-17-1.7-20.3,8.5    c1.3,0.5,2.6,1.3,3.9,2.2c7.3,5.4,7.7,10,6.8,12.9c-1.4,4.2-6.5,7-10.3,7c-2.7,0-4.4-1.4-4.5-3.5c-0.1-2.3-0.4-9.9,1.4-17.1    c-7.7-1.6-14.1,6.5-18.2,13.7c1.5,0.9,2.7,2.2,3.7,3.9c1.9,3.3,2.1,6.6,0.5,9.2c-1.7,2.9-4.8,4.2-7.2,4.2c-1.8,0-3.2-0.7-4-1.9    c-0.7-1.1-1.2-3,0.3-6.1c0-0.1,1.2-3.7,3.5-8.2C642.6,215.3,641.6,215.1,640.6,215.1z M644.7,216.6c-2.3,4.6-3.5,8.4-3.6,8.4    c-0.9,2-1.1,3.4-0.5,4.3c0.5,0.8,1.5,0.9,2.1,0.9c1.7,0,4.1-1,5.3-3.2c1.2-2,1-4.6-0.5-7.3C646.8,218.4,645.9,217.3,644.7,216.6z     M762.4,223.4c-3,1.9-4.9,4.6-4.5,6c0.1,0.2,0.2,0.7,1.6,0.8c1.2,0.1,2.1-0.2,2.7-0.8C763.1,228.2,763.2,226.1,762.4,223.4z     M667.2,203c-1.6,6.6-1.4,13.6-1.3,15.7c0.1,0.9,0.7,1.3,2.1,1.3c2.9,0,6.7-2.2,7.7-5.2c1-3.1-1-6.5-5.6-10    C669.2,204,668.2,203.4,667.2,203z M739.2,196.1c-5.1,1.1-8.4,7.7-8.6,12.2c-0.1,1.6,0.2,4.3,2.6,4.8c2.3,0.5,4.5-0.9,6-3.4    C740.8,206.8,741.8,201.5,739.2,196.1z M699.1,197.9c-1.2,4.4-1,8.1-0.1,9.5c0.3,0.5,0.7,0.7,1.2,0.7l0,0    c2.8-0.2,4.6-1.2,4.8-2.5C705.2,204.9,705.1,202.4,699.1,197.9z"></path>		</g>	</g></g></svg>