<svg xmlns="http://www.w3.org/2000/svg" xmlns:xlink="http://www.w3.org/1999/xlink" width="94px" height="42px" viewBox="0 0 94 42"><title>Shape</title><g id="Home-1" stroke="none" stroke-width="1" fill="none" fill-rule="evenodd"><g id="De-bebe---Home-1-" transform="translate(-617.000000, -271.000000)" fill="#0A1E33" fill-rule="nonzero"><g id="Rectangle-2" transform="translate(-4.000000, 90.000000)"><path d="M644.11112,223 C629.980247,223 622.789282,220.643859 621.480204,215.592435 C620.422181,211.504887 621.121552,207.577986 623.488653,204.543561 C625.532967,201.919677 628.617371,200.277518 631.522449,200.277518 C632.347347,200.277518 633.118448,200.402465 633.835751,200.652359 C636.149054,196.422014 639.825233,191.674033 644.541502,191.674033 C645.061547,191.674033 645.581591,191.727582 646.101636,191.852529 C648.253546,185.087548 653.113275,182.963451 659.89179,185.980025 C662.240958,187.033149 664.285273,188.068423 665.970935,189.085848 C667.692463,185.051849 671.386574,181 676.927742,181 C678.452011,181 680.065943,181.303442 681.71574,181.910327 C685.732638,183.39184 688.709447,185.640884 690.395109,188.461113 C692.403558,188.407565 694.340277,189.40714 696.259063,191.40629 C700.024905,195.333192 702.91205,199.777731 704.292859,203.704632 C707.269667,202.348066 710.372004,202.937102 712.774969,205.40034 C715.339328,208.042074 715.231733,210.237569 714.675823,211.611985 C712.810834,216.288568 702.822387,219.447939 687.992144,220.090523 C683.508998,220.286868 677.967831,220.768806 672.12181,221.286443 C663.101722,222.089673 652.862219,223 644.11112,223 L644.11112,223 Z M632.15209,201.154789 C629.650087,201.154789 626.987241,202.571039 625.200096,204.854744 C623.109137,207.527916 622.483636,211.015433 623.430823,214.662279 C624.556724,218.928734 631.508718,221 644.697848,221 C644.697848,221 644.697848,221 644.697848,221 C653.34763,221 663.516485,220.114843 672.487953,219.318202 C678.331917,218.804812 683.872067,218.326827 688.375672,218.132093 C702.40476,217.530186 712.1447,214.626872 713.771002,210.555152 C714.36076,209.103495 713.806745,207.510213 712.162572,205.810713 C710.125227,203.721743 707.569609,203.279165 705.085478,204.482978 C705.72885,206.855197 705.639493,208.696323 704.817406,209.793917 C704.227648,210.590558 703.334076,210.962324 702.136688,210.856105 C701.010787,210.76759 700.260186,210.183386 700.0636,209.280527 C699.706171,207.687245 701.225245,205.332728 703.494919,203.845665 C702.226046,200.110304 699.348742,195.702224 695.702966,191.913754 C694.291122,190.444394 692.897149,189.63005 691.521047,189.435315 C692.718434,192.28552 692.593334,195.489787 691.163618,197.879709 C690.144946,199.57921 688.643744,200.552882 687.035313,200.552882 C687.035313,200.552882 687.035313,200.552882 687.035313,200.552882 C686.785113,200.552882 686.517041,200.535179 686.266841,200.48207 C684.551182,200.14571 683.586123,198.605538 683.693352,196.392646 C683.836324,193.117567 686.159612,189.275987 689.394345,188.320018 C687.821657,186.000908 685.194554,184.106673 681.709621,182.832047 C680.208419,182.28325 678.760832,182 677.402602,182 C671.362052,182 668.556234,187.169315 667.626919,189.417612 C671.916067,192.214707 672.470082,194.232864 672.184138,195.436677 C671.844581,196.782115 670.343379,197.649569 668.055833,197.844303 C668.037962,197.844303 667.859247,197.862006 667.841376,197.862006 L667.841376,197.862006 C667.090775,197.862006 666.447403,197.525647 666.000617,196.888334 C665.035558,195.50749 665.035558,192.834317 666.000617,189.966409 C664.338572,188.957331 662.265484,187.895143 659.870709,186.832955 C653.883774,184.159782 649.880569,185.823877 647.950452,191.842941 C648.718925,192.143895 649.469525,192.586473 650.237998,193.13527 C654.545017,196.286428 654.777346,198.995007 654.20546,200.712211 C653.383373,203.155243 650.398841,204.801634 648.129167,204.801634 C646.556479,204.801634 645.537806,204.004993 645.484192,202.730368 C645.412706,201.402633 645.269735,196.92374 646.32415,192.710395 C641.820545,191.772129 638.013926,196.516568 635.654895,200.747617 C636.548467,201.296414 637.263325,202.057649 637.81734,203.031321 C638.92537,204.978665 639.032599,206.908307 638.103283,208.448479 C637.102482,210.130277 635.261723,210.891512 633.885621,210.891512 C632.849077,210.891512 632.02699,210.502043 631.562333,209.776214 C631.169161,209.156605 630.865346,208.041307 631.741047,206.164775 C631.741047,206.129369 632.473777,204.004993 633.814135,201.367227 C633.313735,201.225601 632.741848,201.154789 632.15209,201.154789 Z M634.577924,202 C633.245456,204.703704 632.497084,206.925926 632.478831,206.944444 C631.967747,208.092593 631.858229,208.962963 632.186783,209.462963 C632.478831,209.925926 633.08118,210 633.409733,210 C634.395395,210 635.800875,209.407407 636.549247,208.12963 C637.24286,206.925926 637.133343,205.444444 636.238946,203.833333 C635.800875,203.074074 635.253285,202.444444 634.577924,202 Z M703.695327,206 C701.915264,207.123976 700.816927,208.687769 701.025232,209.502245 C701.063106,209.616272 701.138853,209.942062 701.972074,209.99093 C702.691674,210.039799 703.221906,209.893193 703.543832,209.502245 C704.093001,208.850665 704.149811,207.596372 703.695327,206 Z M647.789383,194 C646.858808,197.863248 646.977245,201.982906 647.044923,203.213675 C647.078762,203.74359 647.484831,204 648.296969,204 C649.972003,204 652.25614,202.735043 652.848324,200.923077 C653.440508,199.128205 652.289979,197.076923 649.549015,195.025641 C648.956831,194.598291 648.364647,194.25641 647.789383,194 Z M690.069007,190 C687.088044,190.655798 685.112706,194.499502 685.004961,197.14091 C684.969046,198.069957 685.094749,199.673019 686.5134,199.946268 C687.842263,200.219517 689.135211,199.436203 690.015134,197.924224 C691.002803,196.23008 691.595404,193.16969 690.069007,190 Z M666.50425,191 C665.784759,193.607903 665.901885,195.741641 666.437321,196.580547 C666.621377,196.87234 666.838897,197 667.123348,197 L667.123348,197 C668.746386,196.854103 669.800525,196.288754 669.967849,195.541033 C670.084975,195.139818 670.068243,193.644377 666.50425,191 Z" id="Shape"></path></g></g></g></svg>