<svg xmlns="http://www.w3.org/2000/svg" xmlns:xlink="http://www.w3.org/1999/xlink" width="51px" height="32px" viewBox="0 0 51 32"><title>6082470C-64AF-4A41-86CE-D1713D88FF58</title><g id="Home-1" stroke="none" stroke-width="1" fill="none" fill-rule="evenodd"><g id="De-Bebe---Home-1-" transform="translate(-292.000000, -7159.000000)" fill="#0A1E33"><g id="Floor" transform="translate(-71.000000, 7035.000000)"><path d="M413.538374,128.225991 C412.618994,123.679956 408.568398,124.331541 404.946055,124.331541 L383.636701,124.331541 C378.644391,124.331541 373.012328,123.585573 368.063791,124.331541 C363.403702,125.034044 363.41212,128.246673 363.41212,132.167987 C363.41212,138.353045 362.48485,145.319961 363.41212,151.435668 C364.027236,155.4922 366.476757,155.754767 369.919633,155.846036 C382.957105,156.192455 396.048451,155.846036 409.091536,155.846036 C409.2463,155.846036 409.379581,155.810472 409.501022,155.75998 C414.733183,154.580675 413.550316,149.117789 413.550316,144.865906 C413.550316,139.664351 414.570529,133.332498 413.537601,128.226146 L413.538374,128.225991 Z M411.625515,151.366992 C407.387214,147.433876 403.503695,142.762626 399.88326,138.328542 C399.873614,138.316687 399.85257,138.313614 399.840732,138.303076 C403.704161,134.972315 407.43167,131.524319 410.992507,127.870968 C412.37179,130.252845 411.704069,134.05434 411.704069,137.081171 C411.704069,139.341432 412.848327,146.95791 411.625152,151.366142 L411.625515,151.366992 Z M375.14057,125.685742 L392.718037,125.685742 C397.446029,125.685742 402.767194,124.992456 407.448047,125.685742 C408.700614,125.871023 409.592787,126.321951 410.247018,126.941929 C406.761492,130.59011 403.130955,134.105208 399.291208,137.376735 C396.766321,139.528192 392.794583,144.713898 389.24598,144.34691 C386.199301,144.031661 381.468728,139.393424 378.911403,137.500151 C374.596444,134.305506 370.211225,130.792992 367.029974,126.427809 C367.004545,126.393124 366.957195,126.375122 366.915548,126.352729 C369.107653,124.973239 372.70362,125.68579 375.140851,125.68579 L375.14057,125.685742 Z M365.258871,128.61692 C365.373734,128.227475 365.5342,127.899052 365.713959,127.598291 C368.941227,131.84669 373.21724,135.282322 377.549371,138.422115 C373.522413,142.668266 369.495455,146.91453 365.46816,151.160456 C364.7601,148.739463 365.25859,145.554934 365.25859,143.097973 C365.259029,138.885205 364.062591,132.673283 365.259029,128.616302 L365.258871,128.61692 Z M409.145859,154.493747 L382.436773,154.493747 C378.37693,154.493747 372.763723,155.542668 368.826891,154.493747 C367.385766,154.109562 366.492245,153.317027 365.934988,152.297105 C366.043279,152.251443 366.137542,152.20095 366.192785,152.142555 C370.306503,147.805022 374.420333,143.46749 378.534387,139.129957 C378.946511,139.42457 379.359072,139.720936 379.769445,140.011603 C382.215879,141.743694 386.61019,145.907793 389.93836,145.671527 C393.038463,145.451559 396.202205,141.768647 398.561768,139.47107 C402.370874,144.129056 406.465287,149.014091 410.963978,152.997337 C410.519855,153.757794 409.927097,154.288594 409.145847,154.493275 L409.145859,154.493747 Z" id="envelop"></path></g></g></g></svg>