<svg xmlns="http://www.w3.org/2000/svg" xmlns:xlink="http://www.w3.org/1999/xlink" width="1450px" height="422px" viewBox="0 0 1450 422"><title>Floor Copy</title><g id="Home-1" stroke="none" stroke-width="1" fill="none" fill-rule="evenodd"><g id="Floor-Copy" transform="translate(724.952495, 210.552935) scale(-1, 1) translate(-724.952495, -210.552935) translate(0.000000, 0.000000)" fill="#E7EEEF"><path d="M3.67535973,78.2596119 L3.67535973,421.10587 L1449.90499,421.10587 L1449.90499,70.4679667 L1262.64573,58.7800314 L1160.43338,58.7800314 C1099.83473,64.4940292 964.591409,72.4938755 908.413631,58.7800314 C838.191409,41.6377263 797.61857,65.0135969 767.969187,50.9880745 C744.249681,39.7676566 649.8913,23.9758535 605.677829,17.48266 L565.104989,22.1576783 C504.24573,7.3527109 380.966718,10.4698365 346.635854,7.35305375 C319.171162,4.85962755 249.885236,16.1838343 218.67536,22.1576783 C129.727212,12.028072 86.0333844,23.7159138 59.5049894,28.3910879 C32.9765943,33.0662621 10.9765943,1.78217588 3.67535973,28.3910879 C-3.62587484,55 1.90498936,54 3.67535973,78.2596119 Z" id="Path"></path><g id="Group-9" transform="translate(4.904989, 0.000000)"><path d="M931.122942,59.9048422 C931.216879,59.901033 931.351523,59.9325733 931.396926,59.8847295 C931.591063,59.6782699 931.530004,59.5172162 931.24506,59.482019 C931.177738,59.4731816 931.049357,59.5713071 931.032135,59.6406348 C931.013348,59.7172763 931.088498,59.8155541 931.122942,59.9048422 Z M762.295355,47.1473153 C762.127833,47.0504089 761.960311,46.8754896 761.789658,46.8730517 C761.487492,46.8680235 761.432695,47.0592462 761.64562,47.279419 C761.716073,47.3524036 761.849151,47.4555572 761.905514,47.4316354 C762.051117,47.3712973 762.168539,47.2480311 762.295355,47.1473153 Z M746.834809,45.8498958 C746.333809,44.3600347 745.494635,44.266785 744.325113,44.2492626 C744.813588,45.3402225 745.286406,46.0047024 746.834809,45.8498958 Z M781.793646,48.0219117 C781.870362,47.9451179 781.961168,47.8771614 782.015965,47.7890923 C782.056671,47.7249451 782.048843,47.6318478 782.062934,47.5512448 L781.826524,48.0470525 C780.832352,48.1061716 780.215496,46.3368662 778.649871,47.615392 C779.694143,48.8599396 780.644477,48.9443518 781.793646,48.0219117 Z M843.861276,49.3746411 C844.323136,49.8352517 844.78343,50.2958622 845.245289,50.7563205 C845.021404,51.1250527 844.734895,51.5151166 845.251551,51.8498707 C845.372104,51.9291024 845.630433,51.8096453 845.82457,51.7806953 C845.616342,51.4308567 845.406548,51.0810182 845.195189,50.7311796 C845.636695,50.6179697 846.363145,50.5047597 846.156482,50.0025525 C845.718108,48.9393237 844.778733,48.9556271 843.82057,49.4136474 L843.736027,49.2916001 L843.861276,49.3746411 Z M869.229095,52.1594839 C867.074796,54.1955868 862.143078,54.2760375 860.110897,52.1721305 C858.664259,50.6758698 857.277116,49.509335 855.093069,50.7840516 L855.141603,50.7374267 C853.663654,51.3112473 852.065151,49.3621468 850.607554,50.9627801 C850.934769,51.9003047 852.887104,51.0973216 852.599029,52.7194388 C851.379407,53.8809455 850.014182,51.6988733 848.79456,52.8427051 C848.547192,52.8440764 848.299823,52.8452954 848.052454,52.8465143 L848.091595,52.807508 C848.162048,52.8628178 848.241895,52.9735898 848.299823,52.9635335 C848.459517,52.9371737 848.609817,52.8603799 848.761682,52.8024798 C850.073676,53.6115576 851.860054,53.8091798 852.622513,55.3683688 C851.891366,56.1699805 851.142998,55.8364454 850.508919,55.7471574 C847.40272,55.3129065 844.280864,54.3805625 841.353146,56.3637935 C836.660968,54.0570837 831.251734,56.1686092 826.428044,53.8833834 C823.611485,52.5483288 820.256351,51.8876581 817.100051,51.7316325 C813.30028,51.5428477 809.198343,51.9003047 805.708565,51.1791436 C801.133809,50.2353719 796.106588,51.7051204 791.934198,48.8637488 C790.94942,48.1930218 789.875401,48.8561304 788.854614,48.7127514 C788.679264,48.674964 788.652648,48.1640717 788.342655,48.561754 L788.88123,48.6799921 C789.137992,50.8456085 792.25202,49.7522107 792.660648,52.0348463 C791.145123,52.6854606 788.948552,52.8175643 788.217405,51.8876581 C787.265505,50.6744985 786.587589,49.2827627 784.907674,48.3050128 C784.47243,49.2916001 785.854877,50.4844947 784.589852,51.2597467 C783.435987,51.9668898 782.545146,51.2080937 781.621427,50.8507891 C776.683447,48.9355145 771.388504,49.845308 766.283001,48.7957924 C768.196195,49.6778548 769.818182,50.8393614 771.77991,51.6799795 C770.787304,52.3708192 769.779041,52.552138 768.952391,52.3708192 C764.274304,51.3440066 759.190721,51.993402 754.935352,49.2085592 C754.201074,48.726617 753.360334,48.6761829 752.564996,48.9367334 C750.391909,49.6476858 748.669722,49.0650279 746.632844,48.0130743 C744.653894,46.9899185 742.018947,47.2870375 739.701823,46.9522834 C735.651551,46.3684065 731.754711,44.6493828 727.546312,45.1037463 C727.325559,45.1262969 727.075059,45.0458462 726.865265,44.9564058 C725.227621,44.2542908 724.018959,42.5201826 721.76759,43.2148315 C721.321387,43.3533346 720.511959,42.3313977 720,41 C722.420456,42.3364259 724.692178,40.8855711 726.826124,41.8683492 L726.793246,41.834371 C727.12829,43.0449404 728.103674,42.7278611 728.989818,42.7668675 C730.680693,42.841071 732.299549,43.2853782 733.871436,43.8867775 C734.042089,43.9484868 734.05618,44.4909194 734.392789,44.0466122 C734.20648,44.0088248 734.02017,43.9698184 733.835427,43.930812 C733.852648,43.6905266 733.868305,43.4500888 733.883961,43.2085844 L733.860477,43.2325062 C735.543523,42.5931672 736.980767,43.7357801 738.557351,43.841524 C739.855254,43.9283741 741.605623,46.3670352 742.319547,42.8901338 C742.516816,41.9262493 744.999897,43.0425025 746.491938,42.8032836 C747.619187,42.6221172 749.515159,42.4811762 748.943706,44.8494429 C748.715125,45.7895578 749.685812,46.2059815 750.503068,46.3531697 C751.290578,46.4979199 751.691378,46.1544809 751.838546,45.2597718 C752.287881,42.5655884 755.091915,44.9954121 756.383555,43.4098634 C756.840718,42.8473182 757.29788,44.6317081 757.845849,45.2748564 C757.485755,45.6182954 756.837586,45.7718831 757.001977,46.4564756 C757.017633,46.5206229 757.202377,46.6112823 757.268133,46.5873604 C757.950746,46.3406754 757.639186,45.6988985 757.811405,45.2471252 C759.265871,45.3201099 760.269436,45.1717027 761.741123,44.1272153 C763.37407,42.9695179 766.635267,43.3091477 769.342232,44.5160602 C768.642398,45.3892852 767.591863,46.3947663 769.176276,47.3411283 C770.193932,47.950146 770.926644,47.8721333 771.256991,46.6275857 L771.231941,46.6565358 C771.889503,46.190897 772.550197,45.7252582 773.237506,45.2396592 C774.482178,45.437129 774.0986,47.4078658 775.528016,47.3976571 C776.730415,46.5533821 775.1006,45.6900611 775.712759,44.7941331 C775.949169,44.7072829 776.295172,44.4455135 776.575419,44.5009757 C779.0585,44.9879461 781.699709,44.451913 784.081024,45.7656359 C784.860705,46.1959252 786.12573,46.719464 786.753546,45.2672379 L786.730061,45.2887219 C790.979167,45.5101136 795.217313,46.6149391 799.485207,45.4321009 C799.698132,45.3729818 800.004994,45.3502789 800.169385,45.4560227 C803.673253,47.6795392 807.706302,45.3038064 810.903308,46.2526063 C815.886692,47.7324112 821.092395,44.7865147 825.734472,47.7185456 C826.327844,48.0936774 827.102828,47.809205 827.705594,47.3549939 C828.309925,46.8981925 829.135009,46.6943232 829.697069,47.0528468 C832.299137,48.7101611 835.457002,48.316288 838.20624,49.3746411 C838.664968,50.0805653 839.502577,50.5423948 839.632524,51.4610257 L839.593383,51.4232383 C840.135089,51.1767057 840.745683,50.770186 840.545283,50.2152592 C840.153877,49.1241469 839.042283,49.5004976 838.18119,49.4074003 C838.287652,48.846074 838.403508,47.9929617 838.998446,48.0446146 C843.980264,48.4736849 849.162482,45.5629856 853.983041,48.8587206 C854.208491,49.0135272 854.747066,49.0310496 854.950597,48.8776143 C857.619987,46.8477585 859.440809,48.08484 861.114462,50.2681311 C861.972424,51.3868222 863.141946,51.3566532 864.236318,50.6165984 C865.238318,49.9384053 866.152643,49.4803849 867.467768,49.8943707 C873.65042,51.8486517 880.100794,51.6485916 886.474453,52.1003648 C888.047906,52.2109845 889.682418,52.5935823 891.072693,53.5009379 C891.240215,53.5801697 891.273093,54.089843 891.601874,53.6581824 C891.421827,53.6103387 891.240215,53.5612759 891.058602,53.5134322 C892.007371,52.4275004 892.957705,51.5416288 893.904908,53.5134322 L893.879858,53.4895103 C897.552814,53.784039 901.155317,54.9819617 905.111651,54.4044843 C906.649094,55.1582523 903.863848,57.3011658 906.332838,58.1417839 C906.810354,55.7407579 908.271082,54.6661014 910.813656,55.5835134 L910.787041,55.5571536 C912.382412,57.4270223 913.060328,54.6888043 914.323787,54.8900834 L914.301868,54.8687518 C914.383281,54.9140053 914.46939,55.0046647 914.546106,54.9984175 C914.721456,54.9795238 914.893675,54.9140053 915.065893,54.8675328 L915.04554,54.8888644 C917.115296,54.5251604 916.611165,56.8481736 917.746243,57.4408879 C920.778858,55.0902959 922.150346,55.0525084 925.618205,57.3654654 C926.24602,57.7844793 926.524701,58.2312243 927.249586,57.43845 C928.057448,56.5537973 928.974904,57.4258034 929.834432,57.6347009 L929.814079,57.6119979 C929.893926,57.6648699 929.980035,57.7693948 930.052054,57.7605574 C930.230535,57.7378545 930.402754,57.6636509 930.578104,57.60956 L930.556185,57.6308916 C932.660385,56.7287165 934.711354,57.7945356 936.792069,57.833542 C941.896006,57.9254203 947.006205,58.1417839 952.049083,59.0364929 C954.223736,59.4229 956.457882,59.2668744 958.635667,59.3774941 C960.735169,59.4844569 962.2914,60.0483735 964.13101,60.8562324 C965.363156,61.3985126 967.436044,60.6950263 969.13005,60.906514 C972.193977,61.2877405 975.53189,60.2722031 978.232592,62.5813508 C978.440821,62.7588604 978.894852,62.8280358 979.16727,62.7411856 C984.269642,61.1116023 989.077676,63.2144428 994,63.8196513 L993.965556,63.7844541 C989.663219,66.9732263 985.096292,67.6514194 979.713674,66.4295748 C975.026193,65.3649747 970.014628,65.5511692 965.179978,65.4631001 C961.72621,65.4001718 958.310017,64.9636355 955.231998,64.0512517 C950.294017,62.5889693 945.291846,62.8646042 940.346037,62.2618336 C936.009257,61.7344856 931.691263,60.9919929 927.27307,60.9127611 C925.433461,60.8800019 923.647083,60.1439087 921.906108,61.2664089 C921.810605,61.3267469 921.641518,61.4149684 921.586721,61.377181 C918.95334,59.6217411 915.549671,62.12973 912.94134,59.7978793 C911.313091,58.3406251 909.218285,59.5537847 907.348929,59.5021317 C902.318576,59.3624096 897.413474,58.4513971 892.488018,57.60956 C892.488018,57.60956 892.516199,57.639729 892.514633,57.639729 C892.262568,57.3968533 892.010502,57.1539776 891.760002,56.9111019 L891.783487,56.938833 C888.323456,57.2671875 885.137409,56.2568307 882.004594,55.0223394 C880.875779,54.5768133 879.775144,54.5605099 878.569613,54.7756545 C875.447757,55.3331716 872.678167,53.5562478 869.654945,53.3196192 C869.468636,53.3045347 869.343386,52.5394914 869.19152,52.1229154 L869.229095,52.1594839 Z" id="Shape"></path><path d="M1043.78803,63.9783127 C1043.69441,63.967739 1043.55867,63.992356 1043.51655,63.9375046 C1043.33712,63.7007515 1043.40889,63.5307452 1043.69441,63.5124064 C1043.76306,63.5074499 1043.8832,63.6226048 1043.89568,63.6986037 C1043.90972,63.7830286 1043.82859,63.883975 1043.78803,63.9783127 Z M1212.52763,61.8733081 C1212.70081,61.7799616 1212.88024,61.6025207 1213.04874,61.6114423 C1213.34987,61.6269725 1213.39199,61.8377869 1213.1642,62.0613228 C1213.09087,62.1353391 1212.95045,62.2377724 1212.89584,62.2080337 C1212.75542,62.1326957 1212.64777,61.9911064 1212.52763,61.8733081 Z M1227.98943,61.5408955 C1228.587,59.9634224 1229.42796,59.9207969 1230.59188,59.9827525 C1230.03176,61.1293448 1229.51845,61.815648 1227.98943,61.5408955 Z M1193.07946,61.4685313 C1193.00925,61.3801412 1192.92188,61.3003424 1192.87507,61.2012134 C1192.83918,61.1290144 1192.85323,61.0287289 1192.84386,60.9406693 L1193.04669,61.4934787 C1194.02963,61.6263116 1194.76138,59.7547558 1196.23267,61.2464823 C1195.11243,62.5207858 1194.16069,62.5462289 1193.07946,61.4685313 Z M1131.26969,58.6314588 C1130.77822,59.0976956 1130.28987,59.5642629 1129.79996,60.0304997 C1129.99811,60.4450242 1130.25555,60.8868092 1129.72039,61.2132741 C1129.59401,61.2905947 1129.34594,61.1433881 1129.15403,61.0986148 C1129.3865,60.7346461 1129.61742,60.3705122 1129.85145,60.0067087 C1129.41927,59.8535544 1128.70469,59.6807395 1128.94496,59.151721 C1129.45203,58.0317283 1130.38348,58.1143358 1131.30558,58.6763973 L1131.39919,58.550173 L1131.26969,58.6314588 Z M1105.85679,59.8867626 C1107.86168,62.2389289 1112.75921,62.6678271 1114.92324,60.5320925 C1116.46162,59.0136012 1117.91887,57.8473483 1120.00489,59.3780655 L1119.95964,59.3243707 C1121.39192,60.0475168 1123.11129,58.0494063 1124.45308,59.8821366 C1124.06458,60.8739224 1122.17672,59.8699107 1122.35458,61.6448157 C1123.48886,62.9860313 1124.99292,60.7197768 1126.12876,62.0418274 C1126.37527,62.0604967 1126.62179,62.0790008 1126.8683,62.0975049 L1126.83086,62.0525664 C1126.75753,62.107583 1126.67016,62.2219118 1126.61399,62.2068772 C1126.4564,62.1673908 1126.31286,62.0738791 1126.16464,62.0006889 C1124.80569,62.7851298 1123.01767,62.875172 1122.15331,64.5093138 C1122.82577,65.4272485 1123.5934,65.1182964 1124.22997,65.0655928 C1127.34729,64.8109965 1130.51454,64.01846 1133.2933,66.3671568 C1138.11283,64.1965618 1143.35049,66.8560281 1148.30108,64.71765 C1151.19217,63.468294 1154.57317,62.9860313 1157.7217,63.035761 C1161.51304,63.094908 1165.5665,63.7658462 1169.08636,63.2275757 C1173.69994,62.5234292 1178.59903,64.4618971 1182.93957,61.6767022 C1183.96308,61.0193116 1184.98658,61.8111872 1186.01165,61.7267624 C1186.18952,61.6980149 1186.2488,61.1470228 1186.5312,61.5987207 L1185.98825,61.6894238 C1185.58727,64.0148253 1182.56356,62.6159496 1182.00344,65.0573321 C1183.46693,65.8663901 1185.64344,66.1616293 1186.43291,65.2060256 C1187.45954,63.9594782 1188.22717,62.5006295 1189.96369,61.5590691 C1190.33035,62.6565925 1188.87622,63.8515928 1190.08071,64.7779535 C1191.18223,65.6231935 1192.11836,64.8638653 1193.06073,64.5412003 C1198.10025,62.8110686 1203.30359,64.1623623 1208.45077,63.3805648 C1206.48957,64.2025095 1204.79985,65.3467888 1202.79028,66.1203256 C1203.73266,66.936653 1204.7234,67.202484 1205.55656,67.0637034 C1210.27779,66.2769494 1215.28766,67.3316821 1219.70777,64.6133993 C1220.46916,64.1428669 1221.31012,64.1466669 1222.08399,64.4835403 C1224.19497,65.4034576 1225.9471,64.8922823 1228.04404,63.8952096 C1230.08013,62.9253974 1232.68102,63.4294684 1235.00731,63.2277409 C1239.07481,62.8766589 1243.0643,61.2867947 1247.21917,62.069914 C1247.43604,62.1097308 1247.69192,62.04001 1247.90723,61.9578982 C1249.58291,61.311577 1250.9013,59.5191592 1253.09341,60.4266853 C1253.52715,60.6074306 1254.40087,59.5578195 1255,58.1528309 C1252.50208,59.4310996 1250.34118,57.7037765 1248.15374,58.6193981 L1248.18807,58.5848682 C1247.77305,59.8713976 1246.826,59.4608383 1245.94135,59.4415081 C1244.25475,59.4048304 1242.61496,59.7732599 1241.01105,60.315 C1240.83786,60.3700166 1240.78637,60.955869 1240.48213,60.451798 C1240.67092,60.4238767 1240.85815,60.3946336 1241.04381,60.3652253 C1241.04381,60.1040204 1241.04381,59.8428154 1241.04381,59.5802887 L1241.06721,59.6078796 C1239.43522,58.7994825 1237.92961,59.9361619 1236.35534,59.9412836 C1235.0588,59.9452487 1233.15377,62.4627953 1232.6779,58.6514499 C1232.54684,57.5947345 1230.00212,58.6303023 1228.53395,58.2683162 C1227.42619,57.9942245 1225.54924,57.7102198 1225.95958,60.3123565 C1226.12341,61.3451156 1225.1311,61.7285797 1224.30731,61.8311783 C1223.51315,61.9332811 1223.14026,61.5337912 1223.05133,60.555553 C1222.78765,57.6092735 1219.83571,60.0442125 1218.65774,58.2392384 C1218.24116,57.5988649 1217.667,59.4978464 1217.0788,60.1555675 C1217.41268,60.5522487 1218.04613,60.7632283 1217.83706,61.4924874 C1217.81834,61.5608865 1217.628,61.6461374 1217.56403,61.6157379 C1216.90093,61.3014989 1217.2551,60.6287433 1217.11312,60.1279765 C1215.66212,60.1061682 1214.67449,59.8760236 1213.28122,58.6440152 C1211.73504,57.2781826 1208.46949,57.419937 1205.69698,58.5381123 C1206.33511,59.5313851 1207.31025,60.6920206 1205.67201,61.6061554 C1204.61886,62.1946513 1203.89492,62.0595054 1203.65152,60.6900381 L1203.67337,60.7230811 C1203.05084,60.1735759 1202.42675,59.6242359 1201.77458,59.0509398 C1200.52328,59.1784858 1200.77291,61.3371853 1199.35155,61.2273173 C1198.21415,60.2304099 1199.89139,59.4092912 1199.34375,58.3975144 C1199.1144,58.2871507 1198.78675,57.980016 1198.50435,58.0204937 C1196.00331,58.3753755 1193.41178,57.6122473 1190.95756,58.8687076 C1190.15248,59.2804235 1188.86062,59.7592166 1188.33326,58.1444049 L1188.3551,58.1691872 C1184.11442,58.1143358 1179.82537,59.0160794 1175.6627,57.4405889 C1175.45363,57.3617814 1175.15094,57.316182 1174.97932,57.4189458 C1171.34556,59.5821061 1167.49493,56.7321469 1164.25279,57.5370745 C1159.19767,58.7930391 1154.219,55.2448812 1149.40571,58.0956665 C1148.79099,58.4602961 1148.0374,58.0988056 1147.47104,57.5656567 C1146.9,57.0295339 1146.09336,56.7516423 1145.50984,57.1007416 C1142.81066,58.7137359 1139.69645,58.0685712 1136.89117,59.0231837 C1136.38878,59.7552514 1135.52442,60.1968712 1135.33251,61.1818832 L1135.37464,61.1437185 C1134.85352,60.8393924 1134.27312,60.357295 1134.50871,59.7706164 C1134.9721,58.6172503 1136.05333,59.1014956 1136.91457,59.060357 C1136.84593,58.4457571 1136.78976,57.5146053 1136.19375,57.5293094 C1131.21196,57.6482642 1126.25358,54.1399231 1121.23902,57.3718595 C1121.00343,57.5235269 1120.46671,57.5053532 1120.2748,57.3252688 C1117.75661,54.9440247 1115.86406,56.1563725 1114.05264,58.402636 C1113.12431,59.5535239 1111.96194,59.4396907 1110.92439,58.5633902 C1109.97266,57.7601148 1109.09425,57.2011924 1107.76026,57.5580568 C1101.48037,59.2440762 1095.07877,58.5805726 1088.70995,58.6276589 C1087.1388,58.6385631 1085.48809,58.9392544 1084.04488,59.8246418 C1083.87326,59.8986581 1083.80461,60.4478328 1083.50661,59.9581355 C1083.69071,59.9188143 1083.87326,59.8783366 1084.05736,59.8390155 C1083.18676,58.5982506 1082.30211,57.5740827 1081.22712,59.6419139 L1081.25364,59.6177925 C1077.58244,59.681896 1073.91904,60.728368 1070.02316,59.8292678 C1068.44422,60.5383707 1071.07007,63.0501347 1068.55812,63.7884807 C1068.24451,61.1575966 1066.86527,59.8937016 1064.27374,60.7100291 L1064.30339,60.6832642 C1062.59027,62.5959586 1062.10036,59.5862365 1060.83033,59.7165911 L1060.85218,59.694948 C1060.76949,59.7382343 1060.67743,59.8304243 1060.60254,59.8183636 C1060.42936,59.785651 1060.26241,59.7030435 1060.09235,59.6405922 L1060.11263,59.6652093 C1058.0781,59.1282604 1058.42447,61.6767022 1057.2543,62.2392594 C1054.39754,59.4857857 1053.03702,59.349979 1049.43291,61.6121031 C1048.78074,62.0220016 1048.47181,62.4860906 1047.8056,61.5780688 C1047.06137,60.5649703 1046.09091,61.4449055 1045.22187,61.6112771 L1045.24371,61.5883122 C1045.16102,61.6398593 1045.06741,61.7469186 1044.99564,61.7323797 C1044.82089,61.6955367 1044.65395,61.6031815 1044.48389,61.5326347 L1044.50417,61.5572517 C1042.47276,60.4351113 1040.36178,61.4463925 1038.2898,61.3442896 C1033.20816,61.0900236 1028.11247,60.9702428 1023.03707,61.5888078 C1020.84808,61.8561257 1018.6388,61.5324695 1016.46541,61.5014091 C1014.37003,61.4716704 1012.78485,61.9737588 1010.90166,62.7205307 C1009.63944,63.2219583 1007.62519,62.3170756 1005.92611,62.4284306 C1002.85403,62.6286712 999.602531,61.2986902 996.761366,63.6098832 C996.544495,63.7874894 996.08735,63.8309409 995.822112,63.7180991 C990.859045,61.6013642 985.934983,63.5433016 981,63.8572101 L981.035885,63.8215237 C985.100264,67.569757 989.595265,68.6200289 995.031079,67.6708686 C999.763233,66.8438022 1004.7341,67.3926465 1009.54739,67.6323735 C1012.98612,67.8035362 1016.41237,67.5677744 1019.53593,66.7940724 C1024.54424,65.5541337 1029.49951,66.1988027 1034.4579,65.889355 C1038.80624,65.6193936 1043.1499,65.1153226 1047.54816,65.3357194 C1049.37986,65.427579 1051.20532,64.7549886 1052.86228,66.0900912 C1052.95277,66.162125 1053.11504,66.2691843 1053.17276,66.2321761 C1055.90783,64.5152616 1059.12345,67.464515 1061.87568,65.1224268 C1063.59193,63.6586217 1065.59369,65.1161486 1067.4566,65.1899997 C1072.46803,65.3872665 1077.40614,64.7414409 1082.3614,64.1719448 C1082.3614,64.1719448 1082.3302,64.2026747 1082.33176,64.2026747 C1082.59856,63.9573304 1082.86535,63.7121513 1083.13215,63.4666418 L1083.10719,63.4950588 C1086.52564,64.0901633 1089.76154,63.2176628 1092.95999,62.0989918 C1094.113,61.6952063 1095.20827,61.7538576 1096.39092,62.0700792 C1099.45832,62.8895457 1102.33225,61.1590835 1105.3544,61.1124929 C1105.54006,61.1090234 1105.71637,60.2898873 1105.8958,59.8499197 L1105.85679,59.8867626 Z" id="Shape"></path><path d="M23.519,31.5727 L23.432,31.4505 L23.568,31.4273 L23.519,31.5727 Z M9.4135,33.7145225 C9.3545,33.6170225 9.2955,33.5196225 9.2375,33.4229225 C9.3505,33.3726225 9.4755,33.2668225 9.5725,33.2883225 C9.6535,33.3065225 9.7005,33.4750225 9.7625,33.5757225 C9.6465,33.6220225 9.5305,33.6682225 9.4135,33.7145225 Z M75.5416254,26.7891278 C75.4226254,26.7437278 75.2346254,26.7313278 75.1946254,26.6479278 C75.0836254,26.4126278 75.2486254,26.2581278 75.4626254,26.2152278 C75.5716254,26.1937278 75.7796254,26.2548278 75.8116254,26.3324278 C75.9096254,26.5637278 75.7476254,26.7033278 75.5416254,26.7891278 Z M30,27.5791239 C29.7025987,27.5915239 29.3243503,28.0334239 29,27.4206239 C29.3416747,27.2223239 29.6448508,27.1265239 30,27.5791239 Z M32.0509217,26.966109 C32.1219217,26.511009 32.1579217,26.111309 32.7259217,26.032809 C32.7899217,26.023709 32.9649217,26.231009 32.9479217,26.304509 C32.8559217,26.678709 32.6739217,26.990809 32.0509217,26.966109 Z M25,27.681378 C25.8472278,27.083478 26.6561627,27.022378 28,27.233778 C26.7913841,27.624478 26.0925409,28.175278 25,27.681378 Z M80,24 C79.9298473,25.4662332 79.8140531,26.463993 79.0804081,27 C78.7981069,25.278057 79.2959374,24.7256584 80,24 Z M39.1296649,27.4379323 C39.090395,27.3677568 39.0429747,27.3072836 39.0163007,27.2250135 C38.9962953,27.1646732 39.0044457,27.0757576 39,27 C39.0377881,27.1525786 39.0763171,27.3062204 39.1148461,27.4598622 C39.6068317,27.5521004 40.0432467,27.7486716 39.9965674,28.9296934 C39.1889403,29.292001 39.2674802,28.1722499 39.1296649,27.4379323 Z M20.7683761,28.7850014 C20.4851345,28.8080436 20.1371822,29.0686992 20.0035176,28.4832516 C19.975936,28.3583541 20.1170264,28.0227014 20.200832,28.0080248 C20.6294074,27.9305326 20.656989,28.4299757 20.7418554,28.8287376 C21.1523967,28.7086834 21.5024706,27.9535748 22,28.5959675 C21.7114542,29.1511814 21.7719215,30.2274129 20.9922113,29.9572176 C20.8553642,29.9099591 20.8405126,29.1935966 20.7683761,28.7850014 Z M7.516,33.48385 L7.438,33.43845 L7.491,33.51035 L7.562,33.56155 L7.516,33.48385 Z M54.9406603,30.357366 C56.7084338,30.9227884 58.3198149,32.7223467 60.295752,31.6566915 L60.2741807,31.6861607 C60.0293457,30.9830664 60.0336599,30.3807331 60.6678581,30.1201238 C61.1726281,29.9136903 61.440113,30.3267061 61.4897272,30.9375231 C61.5781698,32.0180617 61.7852549,32.9042225 62.7149808,33.0087044 L62.6934094,33.0469549 C62.6556595,32.6092325 62.4636744,31.9909739 62.6038883,31.762364 C64.320969,28.9770746 67.1856465,27.3753174 69.0763768,28.3845643 C71.1957635,29.5142184 71.7436762,27.8990661 72.8276374,26.9082746 C73.8468844,27.5363563 72.4544527,28.5566171 73.3464287,29.3371053 C74.1682978,29.7428283 74.8251459,27.9395491 75.8336073,28.3488441 C75.9997068,28.1214249 76.1647278,27.8941546 76.3308273,27.6667354 C76.6090979,26.9463763 76.9208042,26.2605467 77.6294235,26.6869577 C77.8559229,26.8234389 77.9842725,27.2093669 77.8149373,27.5253426 C77.36086,28.3747413 76.8258901,27.9568139 76.3081773,27.6359267 C76.1431564,27.8645365 75.979214,28.0932952 75.8141931,28.321905 C76.096778,28.7115538 76.436527,29.4920421 76.6511621,29.4305734 C78.3617714,28.942545 80.0141381,28.0342079 81.7926973,29.2683438 C82.1270534,29.4994838 82.5444594,28.5517055 82.562795,27.828965 C82.5994664,26.2493842 81.3774485,27.7441294 81.0732922,26.3833352 C82.83028,25.8314568 84.109462,23.7406293 86.3151342,24.4203566 C87.9890723,24.9366636 89.7428244,23.8537435 91.4512766,23.4690063 C93.9589479,22.9059653 96.4730907,21.4186618 99.2547184,23.3914635 C100.581357,24.3318001 102.828015,25.0411454 104.486853,22.9870801 C104.649717,22.7610004 104.81366,22.5335813 104.976523,22.3073528 C105.246165,21.8562353 105.567579,21.6374485 105.955863,21.9964374 C106.023813,22.0590968 106.047542,22.4328203 105.991456,22.4954796 C105.608564,22.9293323 105.300094,22.4302901 104.961423,22.2851764 C104.797481,22.5102142 104.63246,22.7351032 104.467439,22.960141 C105.66465,24.3969896 106.892061,25.4922629 108.383721,23.6263244 L108.358914,23.6607052 C109.367375,22.5015818 108.900355,21.0105575 108.837798,19.6092804 L108.859369,19.6387496 C107.631959,18.9676547 106.412098,18.3886884 105.444622,20.2939192 L105.456486,20.2754638 C103.026472,19.1630745 100.653622,19.8539644 98.1880143,20.2632593 C95.8992923,20.6442757 93.6806773,21.6706386 91.3595983,21.6533738 L91.3865625,21.6152722 C90.8914996,22.3713516 90.3953582,23.3448783 89.8959811,21.6178024 L89.9197096,21.6498018 C86.2590487,22.3479846 82.5940735,21.9104111 78.86762,23.2009553 C74.5134397,24.7092444 69.9597242,26.1018891 65.3272733,25.5401876 C64.5431541,25.4443382 63.7493278,25.2389465 63.1733723,26.4657896 C62.7290022,27.4110377 61.9265473,27.2794679 61.210378,27.0237702 C58.5215072,26.0637875 58.5225857,26.0564946 56.4247703,28.7987708 C55.835872,26.3047506 54.5750257,26.2089012 52.9668803,26.639033 C51.9044905,26.9241999 50.7396367,26.4989797 49.6222399,26.3760423 C48.2459868,26.2260171 46.9376834,26.3232061 45.5765302,26.9599202 C44.2455769,27.5830904 42.7528383,27.7674964 41.5534703,26.1030798 C41.2827497,25.7257843 40.884758,25.4037064 40.5115733,25.3066662 C38.6801643,24.8321818 36.9328836,24.1610869 35.1564816,23.2932327 C33.3887081,22.4290994 31.0719434,22.9342438 28.9795208,23.3582734 C25.0481393,24.1536451 21.1113649,25.009146 17.2953902,26.4387017 C15.1091322,27.2572916 12.4429113,26.7411335 10.7366162,29.9689079 C10.4734456,27.8240535 9.48008414,27.4725063 8.26669478,27.9273447 C7.55807539,28.1928655 6.8634774,28.5615286 7.36285453,30.0415392 C7.6497537,30.8945099 7.51169696,30.9830664 6.38135736,30.9954197 C6.20447215,31.2485872 6.16240799,31.7537316 5.76873055,31.6160597 C5.80324474,31.0457258 6.17858651,31.1932208 6.40077159,31.0248889 C5.70833072,29.3482679 4.94146865,28.6721127 3.46383005,29.7477398 C2.46442864,30.4765825 1.0793312,29.9578942 0.0567405753,31.0298005 L0.0860776337,30.9818757 C-0.0599605171,31.6284129 -0.0858461568,32.1962167 0.548352016,32.3326979 L0.526996364,32.3646974 C0.70690156,32.3635067 0.887777467,32.3635067 1.06865337,32.3621672 L1.04902343,32.3352281 C4.99000422,31.7034255 7.9970527,35.4832273 11.5487782,37 C11.6458493,35.6232806 10.7970161,35.9318146 10.5985595,35.051756 C11.2510933,34.5845644 12.051391,34.2011666 11.529364,32.5662193 C11.1809864,31.4771971 11.6825207,29.978731 12.7718747,30.9854478 C14.2408847,32.3413303 15.7282304,31.265852 17.1799834,31.6111481 C17.8735028,31.775908 18.5993793,30.555316 19.1785705,32.5208248 C19.5226338,33.6860503 20.646502,32.0659865 21.7423274,31.0592697 C21.0854793,33.4008834 21.9839267,33.8531915 22.9654239,34.002026 C23.4960795,34.0831409 24.5703335,35.0861368 24.349227,33.0026022 C24.2963772,33.0738939 24.2510773,33.1612598 24.1895989,33.2115658 C24.144299,33.2496675 24.0785064,33.2410351 24.0224208,33.2521977 C24.1399848,33.1820966 24.2564701,33.1119955 24.3729555,33.0420433 C24.4322768,31.1146361 25.8743226,29.851031 27.6043462,30.5798737 C29.5792048,31.413347 31.5540634,30.5073913 33.5709862,30.9585087 C35.0885318,31.2988933 34.1631202,28.9205175 34.0477134,27.6765585 L33.946328,27.4982547 L34.0768347,27.634736 C34.6010189,27.3568619 35.1047103,26.9438461 35.9546222,27.2770866 C35.0313677,29.3765465 35.0982389,31.205574 36.9749478,32.1655568 C37.1960543,32.278671 37.5843389,32.587205 37.5875746,32.5797633 C38.8602852,29.2732553 41.8371338,32.1089996 43.3234009,29.542497 C43.7753211,28.7631994 44.0719274,29.1208488 44.7600539,29.5904217 C45.8709793,30.3487336 47.4230391,30.1336677 48.7583067,29.938248 C50.0795529,29.7440189 51.226071,30.1201238 52.4114176,30.780205 C53.2807437,31.2633218 54.2579266,31.9061382 54.966546,30.3131622 C54.8597677,30.2000479 54.5415901,30.5134935 54.6311112,29.9997167 C54.7346538,30.1189331 54.8381963,30.2381496 54.9406603,30.357366 Z" id="z"></path><path d="M169.629508,16.0797204 C169.372053,15.9225988 169.142684,15.8592285 169.058426,15.714689 C168.883669,15.4194724 168.893031,15.0823823 169.309639,14.9974845 C169.471914,14.9645258 169.837032,15.1394155 169.835472,15.2167181 C169.832351,15.4942279 169.712205,15.7705408 169.629508,16.0797204 Z M173.280687,15.4638316 L173.965673,14.0546786 L174,14.0888801 C171.687587,13.0535659 169.175451,13.7518054 166.785021,13.294327 C164.975035,12.9471099 165.109223,15.2876836 163.776699,15.712234 C163.071429,15.1368838 163.938974,14.3993486 163.477115,13.7847487 C163.097954,13.2803794 162.710992,12.906556 162.060333,13.0206072 C161.520458,13.1169209 161.425277,13.4679432 161.428398,14.0267987 C161.43776,15.8833185 160.236304,15.6970435 159.173717,15.0317014 C156.379161,13.2816683 154.506761,13.3209487 151.479716,15.4194724 C151.26595,15.6741811 151.710645,16.2228789 151.07715,16.2862493 C151.2207,16.0062231 151.365811,15.7261969 151.509362,15.4460787 C150.815014,14.2574175 149.875693,14.024267 148.68984,14.7453075 L148.716366,14.7706403 C147.680305,14.0356522 147.076456,14.6059082 146.566227,15.4587528 L146.594313,15.4295994 C141.615291,13.8214974 136.561373,15.2268604 131.544903,15.1596848 C130.705444,15.1482843 129.848821,16.2546408 129,16.8438465 L129.040569,16.7932117 C129.037448,17.0465395 129.035888,17.3000207 129.035888,17.5547294 L129.021845,17.523121 C131.835125,17.369682 134.649965,17.0516029 137.463245,17.5332479 C137.545943,17.0390209 137.307212,16.4231168 138.010922,16.1392547 C138.276179,16.7995027 137.95319,17.1961425 137.442961,17.5166765 C137.458564,17.7410043 137.474168,17.9665596 137.489771,18.1908874 C141.548197,17.0985553 145.533287,19.2212303 149.633842,18.4759771 C150.484223,18.321464 149.544903,19.2022038 149.415395,19.6039071 L149.38887,19.5784362 C150.042649,19.8306899 150.88991,20.2412927 151.384535,19.8154995 C153.785888,17.7422318 156.74896,19.0766907 159.403086,18.5456384 C161.559466,18.1161627 164.054438,18.990458 166.393377,19.2224578 C168.507628,19.4328226 170.200589,18.8397809 172.057386,18.4735221 C173.940707,18.1021997 173.196429,16.5676564 173.313454,15.4283565 C173.194868,15.2876836 172.743932,15.5449241 172.887483,15.0874458 C173.018551,15.2128975 173.149619,15.3383799 173.280687,15.4638316 Z" id="Shape"></path><path d="M128.959055,17.6066379 C128.919685,17.0448933 128.990551,16.0814688 128.462992,16.1006635 C126.387402,16.1748708 124.070866,15.3240276 122,17.5349093 C123.811024,17.976435 125.675591,17.5913007 126.847244,18.9756774 L126.825197,19 L127.593701,19 L127.571654,18.9769167 C128.04252,18.7491824 128.511811,18.5200538 128.982677,18.2923195 L128.995276,18.3243882 C128.752756,18.0659795 128.781102,17.8100496 129,17.5553589 L128.959055,17.6066379 Z" id="Path"></path><path d="M113,19.1104945 C114.19161,19.8536132 115.463536,20.2071925 116.992476,19.874353 C117.093238,18.0054336 116.170324,17.2387318 114.918842,17.0315015 C113.819232,16.8491924 113.029206,17.4473001 113,19.1104945 Z" id="Path"></path><path d="M83.0832697,30 C83.3644003,29.0788534 83.6455309,28.1587779 84,27 C82.5286478,27.1136897 81.3399542,27.4979088 80,28.1448536 C80.7028266,29.6056819 82.2948816,29.1507702 83.1061879,29.9723044 L83.0832697,30 Z" id="Path"></path><path d="M119.034774,24.02515 C120.820417,25.84865 123.87531,24.10605 126,24.97485 C123.970939,23.77485 121.321162,24.40335 119,24.05815 L119.034774,24.02515 Z" id="Path"></path><path d="M73,27.6713923 C73.9178486,27.9988282 74.6080562,29.7739477 75.7189443,28.6081018 C76.2816729,28.0176173 75.9174473,27.0506618 75.3456131,26.5208985 C74.0981403,25.3683426 73.4680299,26.2899291 73.0291381,27.7130951 L73,27.6713923 Z" id="Path"></path><path d="M91,25.3240989 C92.5429376,25.9244989 93.6222431,26.1251989 95,25.4380989 C93.7686532,24.9862989 92.6217738,25.1035989 91,25.3240989 Z" id="Path"></path><path d="M109.020453,23.4771192 C108.898271,23.8359308 109.330609,24.0223148 110.127145,23.9978661 C110.994171,23.9708439 111.84005,23.8326643 111.990429,23.4182247 C112.075016,23.1893772 111.586286,23.0339747 111.024717,23.009526 C110.113047,22.9677554 109.335308,23.0527813 109.020453,23.4771192 Z" id="Path"></path><path d="M120.419173,17.9987762 C120.727173,17.9102329 120.934173,17.7115328 120.980173,17.4362768 C121.036173,17.1025368 120.809173,16.9427957 120.462173,17.0185342 C120.140173,17.0905494 119.999173,17.3342931 120.012173,17.6282567 C120.022173,17.8487521 120.127173,18.0160308 120.419173,17.9987762 Z" id="Path"></path><path d="M123.965836,21.6124821 C123.086121,21.3456821 122.19573,21.1573821 121,21.4736821 C122.086833,21.9592821 123.083986,21.4629821 124,21.5942821 L123.965836,21.6124821 Z" id="Path"></path><path d="M114.12186,24.1546061 C114.24686,24.4668061 114.29186,24.8575061 114.75986,24.8451061 C114.80886,24.8442061 114.90086,24.7509061 114.89486,24.7129061 C114.82286,24.2620061 114.42686,24.2719061 114.10486,24.1777061 L114.12186,24.1546061 Z" id="Path"></path><path d="M108.4905,17.4905 L108.5095,17.5095 L108.4905,17.4905 Z" id="Path"></path><path d="M121.4915,19.49135 L121.5085,19.50865 L121.4915,19.49135 Z" id="Path"></path><path d="M605.429111,21.7660714 L605.566693,21.5841951 L605.352503,21.5498143 L605.429111,21.7660714 Z M625.336328,23.5275326 C625.428571,23.3825674 625.520813,23.2374534 625.611493,23.0936788 C625.434824,23.018666 625.239395,22.8613475 625.087742,22.8931982 C624.961104,22.9202861 624.887622,23.171073 624.790689,23.3209497 C624.972048,23.3898603 625.153406,23.4587709 625.336328,23.5275326 Z M529.181953,16.4313815 C529.369565,16.3638105 529.661927,16.3453549 529.724465,16.2212266 C529.898006,15.8708692 529.640039,15.6409193 529.305464,15.5770691 C529.13505,15.5450696 528.809855,15.6360077 528.759825,15.7516525 C528.606609,16.0957588 528.859885,16.3035323 529.181953,16.4313815 Z M594.915011,17.9875994 C595.399676,18.0059061 596.012542,18.6636076 596.540983,17.7515472 C595.9844,17.4565564 595.491918,17.3139726 594.915011,17.9875994 Z M592.530773,17.3102517 C592.419769,16.632904 592.363485,16.0380108 591.475454,15.9211754 C591.375394,15.9077803 591.101793,16.2163151 591.128372,16.3257087 C591.272208,16.8825002 591.556753,17.3471628 592.530773,17.3102517 Z M602.125573,17.8695733 C601.017098,16.9795405 599.960216,16.8886024 598.204478,17.2032394 C599.783547,17.7847374 600.696593,18.6045201 602.125573,17.8695733 Z M522.704642,14.5506738 C522.83597,15.881883 523.048597,16.7878411 524.405659,17.2745313 C524.927846,15.7110205 524.008546,15.2095957 522.704642,14.5506738 Z M581.86971,16.9907031 C581.952572,16.9119695 582.052632,16.8443984 582.110479,16.7521208 C582.151128,16.6845497 582.13393,16.5849792 582.143311,16.5001433 C582.063576,16.6710057 581.982277,16.8432077 581.902542,17.0152609 C580.862858,17.1185523 579.941995,17.3385303 580.040491,18.6610774 C581.744635,19.0668014 581.578911,17.813016 581.86971,16.9907031 Z M608.602884,18.2973249 C609.021884,18.3206919 609.533128,18.5848739 609.73012,17.9911714 C609.77077,17.8646618 609.562833,17.5241275 609.439322,17.5093928 C608.807694,17.4306591 608.767045,17.9371444 608.64197,18.3415288 C608.03692,18.2197819 607.520987,17.4540262 606.787736,18.1054767 C607.21299,18.6685191 607.123874,19.7600744 608.272999,19.4859205 C608.474682,19.4379956 608.49657,18.7115324 608.602884,18.2973249 Z M627.609562,23.0039314 L627.73151,22.9363603 L627.650212,23.0432238 L627.539208,23.1194273 L627.609562,23.0039314 Z M559.360937,20.3573489 C556.798467,20.9229216 554.462696,22.7224845 551.598483,21.6566777 L551.629751,21.686147 C551.984651,20.9830509 551.978397,20.380716 551.059098,20.1202549 C550.32741,19.913672 549.941242,20.3266889 549.86776,20.9376562 C549.741122,22.0180489 549.439379,22.9043608 548.091698,23.0088429 L548.122967,23.0469447 C548.177687,22.60937 548.457542,21.9909609 548.252732,21.7623505 C545.765307,18.9770539 541.612824,17.3754414 538.870559,18.3845421 C535.798409,19.5141991 535.004184,17.8990426 533.432932,16.9082486 C531.955486,17.5363319 533.973881,18.5565953 532.68092,19.3372344 C531.489583,19.7428095 530.537451,17.9395257 529.075639,18.3489706 C528.83487,18.1215508 528.595665,17.8941311 528.354896,17.6667113 C527.953093,16.9463503 527.499697,16.260519 526.47252,16.6870799 C526.144199,16.8234127 525.95815,17.2094905 526.203609,17.5253182 C526.861815,18.374719 527.637279,17.9567906 528.387728,17.6359025 C528.626933,17.8646618 528.864575,18.0932722 529.103781,18.3218826 C528.694161,18.7115324 528.201679,19.4920227 527.890555,19.4305539 C525.410948,18.942673 523.015765,18.0341847 520.437661,19.2683238 C519.952996,19.4994645 519.347947,18.5516837 519.321368,17.8289414 C519.269775,16.2495053 521.039583,17.7441055 521.480472,16.3834567 C518.9352,15.831428 517.079403,13.7406249 513.882178,14.4203688 C511.455727,14.9366325 508.913582,13.8537096 506.437101,13.4689714 C502.802115,12.9059884 499.157748,11.4186662 495.125649,13.3915475 C493.202624,14.3318865 489.94599,15.0411146 487.541427,12.9871183 C487.305348,12.7609488 487.067706,12.5335588 486.831627,12.3073744 C486.440768,11.8562558 485.974865,11.6374536 485.412028,11.9963838 C485.313532,12.0590731 485.279136,12.4327529 485.360435,12.4954422 C485.915454,12.9293555 486.362597,12.4302972 486.853515,12.2852427 C487.091157,12.5101917 487.330363,12.7351557 487.569568,12.9600899 C485.834156,14.3970315 484.054967,15.4922332 481.892736,13.6263048 L481.928695,13.6607303 C480.466884,12.5015891 481.145414,11.0105609 481.23453,9.60928018 L481.203261,9.63877926 C482.984014,8.96763798 484.750695,8.38868505 486.153096,10.2939506 L486.135899,10.2755099 C489.658317,9.16308799 493.097874,9.85390525 496.671887,10.263231 C499.989496,10.6442782 503.207045,11.6706586 506.569993,11.6534533 L506.530907,11.6153367 C507.248524,12.371299 507.967704,13.3448282 508.691574,11.6177925 L508.657179,11.6497473 C513.963477,12.3479468 519.276029,11.9103573 524.677697,13.2010239 C530.989283,14.7092425 537.590106,16.101861 544.305059,15.5401581 C545.441676,15.4443084 546.592364,15.239065 547.427238,16.4657624 C548.071374,17.4110129 549.236133,17.2794429 550.274253,17.0238933 C554.170333,16.0637593 554.16877,16.0564664 557.209651,18.7987497 C558.063286,16.304723 559.892505,16.2088733 562.222023,16.6391551 C563.76357,16.9243228 565.450516,16.4989526 567.070235,16.3760149 C569.065178,16.2261382 570.961624,16.3231785 572.934679,16.9598943 C574.863958,17.5830661 577.027752,17.7674726 578.766292,16.1032005 C579.158714,15.7257552 579.737185,15.4036764 580.278133,15.3066361 C582.931282,14.8321653 585.464047,14.161024 588.039024,13.2932122 C590.601494,12.4290767 593.959752,12.9342671 596.992816,13.3583424 C602.691536,14.1536418 608.398074,15.0091151 613.929507,16.4386744 C617.098589,17.2574153 620.9634,16.741107 623.438318,19.9690386 C623.818233,17.8240298 625.258156,17.4724818 627.017021,17.9273213 C628.044197,18.1928427 629.051049,18.5615068 628.327179,20.0415212 C627.911305,20.894643 628.111425,20.9830509 629.749905,20.9954042 C630.006308,21.2485724 630.067282,21.7538669 630.637936,21.6161946 C630.587906,21.0457104 630.043831,21.1932058 629.721763,21.0248735 C630.725488,19.3482482 631.83709,18.67224 633.978996,19.7477211 C635.4283,20.4767145 637.435751,19.957876 638.917887,21.0297851 L638.875674,20.9818602 C639.086738,21.6283991 639.124261,22.1963531 638.204961,22.3328347 L638.23623,22.3646854 C637.975136,22.3634947 637.714042,22.3634947 637.451385,22.3623041 L637.479527,22.3352161 C631.766736,21.7034119 627.407879,25.4832234 622.259488,27 C622.118779,25.623277 623.349202,25.9318118 623.638438,25.051751 C622.690996,24.584707 621.530927,24.2011594 622.289193,22.5663567 C622.792619,21.4771828 622.065622,19.9788617 620.486553,20.9855811 C618.358718,22.3413183 616.201178,21.2658372 614.096794,21.6112831 C613.093069,21.7758945 612.040877,20.5552993 611.199749,22.5208132 C610.701014,23.6860418 609.071914,22.0659737 607.483464,21.0592544 C608.435596,23.4008741 607.133255,23.8533322 605.710529,24.0020183 C604.941319,24.0831333 603.385701,25.0861318 603.704642,23.0027407 C603.781251,23.0740326 603.846915,23.1612499 603.936031,23.2117049 C604.001695,23.2498066 604.097064,23.2411742 604.178363,23.252188 C604.007949,23.1820868 603.839098,23.1121344 603.670247,23.0420331 C603.584258,21.114621 601.495509,19.8510125 598.986196,20.5798571 C596.123546,21.4133326 593.260897,20.5073745 590.337274,20.9584931 C588.139084,21.2990274 589.478948,18.9204966 589.646235,17.6765344 L589.793198,17.4982302 L589.604023,17.6347118 C588.844193,17.3569859 588.114069,16.943969 586.882082,17.2770615 C588.220383,19.3765268 588.125013,21.2055591 585.403073,22.1655443 C585.084132,22.2786588 584.519732,22.5871936 584.515042,22.5797519 C582.670189,19.2732354 578.355108,22.108987 576.200695,19.5424778 C575.547179,18.7631781 575.117234,19.1208284 574.1182,19.5904026 C572.507862,20.3488653 570.258079,20.13365 568.322546,19.9382298 C566.407338,19.7440002 564.745407,20.1202549 563.027192,20.7803377 C561.768627,21.263307 560.352155,21.9062739 559.323415,20.3131449 C559.478195,20.2000304 559.939408,20.5134767 559.809643,19.9996986 C559.659553,20.1189154 559.509463,20.2381321 559.360937,20.3573489 Z" id="Shape"></path><path d="M667.146308,31.8964789 C663.107324,29.8048297 658.569565,29.3626454 654.256805,29.246347 C650.696143,29.1494578 646.883732,28.4125361 643.338804,29.9444504 C642.629189,30.2507706 641.990378,29.9935994 641.445973,29.4260382 C640.412232,28.3492999 639.57045,28.990428 638.764856,29.7777508 L638.791604,29.7531763 C636.17185,29.7466023 633.715733,31.5009391 631,30.4783586 L631.022028,30.5184291 C631.5743,26.8058027 633.0486,25.1807558 636.554193,25.908599 C638.823072,26.3791144 639.69475,25.4315095 640.860659,24.2073242 C641.154889,24.2913784 641.445973,24.3832588 641.744924,24.4477473 C641.770099,24.4530691 641.836183,24.2732214 641.883385,24.1789931 C641.582861,24.1298442 641.280763,24.0806952 640.978666,24.030294 C640.674994,22.8823366 639.881988,22.2604611 638.761709,21.989046 L638.804191,22.0408559 C640.368176,19.9723725 641.672546,21.4487203 642.740902,22.5087104 C643.441077,23.2055616 643.688105,24.353519 644.254538,25.5401382 C647.952088,24.2021589 651.956456,24.5745329 655.517119,25.1367722 C658.844914,25.6603497 662.285996,26.8018896 665.694036,27.1870986 C669.539488,27.6239611 672.889312,29.901719 676.991232,29.4855179 C679.16728,29.264504 682.137908,29.2721737 682.831788,32.6423225 C682.899446,32.9732172 683.683012,33.504621 683.88441,33.4114884 C686.450667,32.2261214 689.662029,34.4198251 691.937203,31.8770697 L691.912028,31.9016442 C695.639473,31.6003328 699.370066,31.142809 702.886672,33.0378622 C705.153978,34.2595431 707.474781,35.3868392 710.177926,35.2742974 C710.511493,35.2600536 710.985094,35.3480209 711.173905,35.5729479 C713.545057,38.3936925 716.855545,37.2831446 719.810438,37.7032588 C721.799248,37.9876655 723.737709,38.5370697 725.213582,40.0638187 C725.813057,40.6856942 726.371623,41.3513968 725.68089,42.1980428 C725.117603,42.8897286 724.249072,43.2943468 723.484387,42.7410294 C721.457815,41.2737602 718.70432,41.5090179 716.806769,39.8066474 C716.257643,39.311401 715.625126,39.0943002 714.879322,39.0722302 C711.37845,38.9714278 710.659395,38.7504139 707.378802,36.8747698 C706.815516,39.7884905 705.070587,39.1058831 703.258,38.2140013 L703.287895,38.2514109 C702.622336,36.9832419 701.203106,36.06929 702.081078,34.2285511 C700.170939,34.6602482 700.246464,35.9154255 699.788597,37.1034534 C695.12339,34.754633 690.198567,35.8108665 685.440528,35.2703843 C684.39892,35.1528337 683.100844,35.4798153 682.40067,34.7248932 C679.212909,31.2797687 675.243156,32.2932708 671.378823,32.5815906 L671.199452,32.4328915 L671.367809,32.5945822 C669.034419,33.005618 668.933719,30.7291123 667.899979,29.5553282 C667.187217,30.2792583 667.901552,31.3121695 667.102252,31.8564084 L667.146308,31.8964789 Z" id="Path"></path><path d="M419.370341,8.0797006 C419.629347,7.92256317 419.857148,7.85920799 419.941403,7.71474467 C420.117714,7.41948097 420.106792,7.08238966 419.690198,6.99747622 C419.527929,6.96453275 419.162824,7.13942314 419.164384,7.21671063 C419.167505,7.49423671 419.287646,7.77050459 419.370341,8.0797006 Z M415.719289,7.46384034 L415.034326,6.05468235 L415,6.08888402 C417.312333,5.05355077 419.824382,5.75180805 422.214729,5.29432808 C424.024652,4.94710976 423.892029,7.28769176 425.222946,7.71221291 C425.928193,7.13689138 425.060678,6.39935358 425.52252,5.78473618 C425.901668,5.28038043 426.288617,4.90655569 426.939253,5.0206073 C427.47911,5.1169213 427.574287,5.46794492 427.571166,6.02680239 C427.561804,7.88328265 428.763219,7.69700706 429.825769,7.03170858 C432.620228,5.28166932 434.492563,5.32094984 437.519503,7.41948097 C437.733262,7.6741906 437.288582,8.22289037 437.923616,8.2862609 C437.77851,8.00620306 437.634964,7.72614522 437.489858,7.44608739 C438.184182,6.25742201 439.12347,6.02425529 440.309282,6.74531369 L440.284317,6.77064656 C441.320343,6.03565585 441.92261,6.60591388 442.432821,7.45874615 L442.404736,7.42960798 C447.383586,5.82150029 452.437329,7.22685298 457.453625,7.1596925 C458.293055,7.14829194 459.149648,8.25457564 460,8.84384482 L459.957872,8.79316374 C459.960993,9.04659982 459.962553,9.30005124 459.962553,9.55476087 L459.976596,9.52309095 C457.163413,9.36975882 454.34867,9.05167867 451.535488,9.53321796 C451.452793,9.03900456 451.691516,8.42311362 450.98783,8.13926583 C450.722582,8.79948545 451.04556,9.19614199 451.555771,9.51673855 C451.540169,9.74105181 451.526126,9.96660792 451.508963,10.1909058 C447.450678,9.09855445 443.467286,11.2211756 439.365313,10.4760425 C438.514961,10.3214368 439.455809,11.2021644 439.583752,11.6038691 L439.610277,11.5785209 C438.95652,11.8306988 438.109289,12.2412876 437.61468,11.8154929 C435.213411,9.74231001 432.250442,11.0766969 429.596408,10.5457348 C427.440103,10.1161347 424.945217,10.9905253 422.606359,11.2224338 C420.492181,11.432784 418.799279,10.8397402 416.942547,10.4735108 C415.059291,10.1022178 415.803544,8.56759228 415.686523,7.42834978 C415.805104,7.28769176 416.256024,7.54491779 416.114039,7.08745316 C415.981415,7.21290533 415.850352,7.33838818 415.719289,7.46384034 Z" id="Shape"></path><path d="M654.703531,32.4927989 C655.164092,33.4828322 655.763282,33.9772487 656.855379,33.3624436 C656.283915,32.0849868 655.399763,32.614731 654.686588,32.5113203 L654.566442,32.3696664 L654.703531,32.4927989 Z M646.384183,39.44001 C644.561967,41.3194098 642.305377,40.9865405 640.1104,40.9625314 L640.142747,40.9951152 C640.547855,38.4796451 642.708944,37.6907739 644.212311,37.4769213 C647.400804,37.0209194 650.28123,35.9614312 653.056914,33.8964751 C650.581596,33.5253627 648.11552,33.038149 645.609395,34.3354991 C642.77826,35.8000555 639.848543,36.8310759 636.655429,36.3467776 L636.686235,36.4033705 C636.578412,35.5536191 635.663453,34.9614512 636.133255,33.6882817 C639.523532,34.1655488 642.371611,32.6939611 645.456902,30.9080254 C648.389699,29.2126383 652.197407,30.3527287 655.61541,30.6643328 C656.746015,30.7677435 657.850435,31.3158374 658.997985,30.7337877 C659.684974,30.3853125 660.345778,30.357016 660.786314,31.2067674 C661.191422,31.9872354 660.974234,32.7435228 660.521376,33.3440938 C659.504755,34.6896336 658.97488,36.9797609 656.590442,35.8057148 C656.045163,35.5366412 655.050107,35.6072966 654.608031,36.0025896 C652.178923,38.1752437 649.167568,38.4981664 646.359538,39.4655626 L646.265578,39.3252807 L646.384183,39.44001 Z" id="Shape"></path><path d="M461.040936,7.60662354 C461.080297,7.04492887 461.009447,6.08146821 461.536887,6.10066337 C463.612011,6.17487226 465.928025,5.3240108 468,7.53497091 C466.187809,7.9763976 464.325236,7.59125502 463.152272,8.97567684 L463.174314,9 L462.405983,9 L462.428025,8.97696271 C461.957265,8.74920804 461.488079,8.52018299 461.017319,8.29242832 L461.004723,8.32443574 C461.247188,8.06597501 461.218848,7.81005505 461,7.55543645 L461.040936,7.60662354 Z" id="Path"></path><path d="M477,10.1104477 C475.807307,10.8536053 474.535782,11.2072207 473.007324,10.8743285 C472.908055,9.00536197 473.829217,8.23870468 475.080304,8.03150633 C476.179567,7.84917915 476.969343,8.44730798 477,10.1104477 Z" id="Path"></path><path d="M506.91638,23 C506.635357,22.0787474 506.354334,21.1587188 506,20 C507.47079,20.1136839 508.660557,20.4978834 510,21.1449482 C509.297442,22.605702 507.704467,22.1508135 506.893471,22.9721528 L506.91638,23 Z" id="Path"></path><path d="M470.965226,16.0251 C469.179583,17.8486 466.12469,16.106 464,16.9749 C466.029061,15.77487 468.680576,16.4034 471,16.0581 L470.965226,16.0251 Z" id="Path"></path><path d="M516,19.6713159 C515.083973,19.998746 514.391944,21.7738341 513.281056,20.608238 C512.718327,20.017764 513.082553,19.0508256 513.654387,18.5208425 C514.90186,17.3683069 515.53197,18.2901062 515.970862,19.713018 L516,19.6713159 Z" id="Path"></path><path d="M498,16.3240432 C496.457062,16.9245432 495.377757,17.1252432 494,16.4380432 C495.231347,15.9863432 496.378226,16.1035432 498,16.3240432 Z" id="Path"></path><path d="M480.978921,15.4771014 C481.103446,15.8360129 480.668784,16.0223975 479.872293,15.9978498 C479.005316,15.9708275 478.159486,15.8327465 478.009116,15.4182363 C477.926882,15.1893386 478.413235,15.0340148 478.974773,15.0094968 C479.88874,14.9678053 480.664084,15.0528216 480.978921,15.4771014 Z" id="Path"></path><path d="M470.580384,8.998776 C470.272384,8.9102801 470.065384,8.71152986 470.019384,8.43627993 C469.963384,8.10252918 470.190384,7.94279159 470.537384,8.01853754 C470.860384,8.09054205 471.000384,8.33428943 470.988384,8.62829195 C470.977384,8.84879157 470.872384,9.0160302 470.580384,8.998776 Z" id="Path"></path><path d="M467.034164,13.6124375 C467.913879,13.3456775 468.806406,13.1573775 470,13.4736875 C468.913167,13.9593075 467.916014,13.4629475 467,13.5942675 L467.034164,13.6124375 Z" id="Path"></path><path d="M475.87914,16.1546311 C475.75314,16.4667811 475.70814,16.8574811 475.24014,16.8450811 C475.19114,16.8442811 475.09914,16.7508811 475.10514,16.7129811 C475.17714,16.2619811 475.57314,16.2718811 475.89514,16.1777611 L475.87914,16.1546311 Z" id="Path"></path><path d="M480.5095,9.4905 L480.4905,9.5095 L480.5095,9.4905 Z" id="Path"></path><path d="M467.5085,11.49133 L467.4915,11.50867 L467.5085,11.49133 Z" id="Path"></path><path d="M304.717197,5.61666088 C304.642529,5.78084283 304.611418,6.01169007 304.479194,6.08946125 C304.368748,6.15611159 304.143189,6.04995535 303.968964,6.02032965 C304.040521,5.85366644 304.070077,5.62036783 304.200745,5.54137096 C304.312747,5.47346504 304.539861,5.58332824 304.717197,5.61666088 Z M394.976476,2.56502005 C395.116478,2.41689158 395.242479,2.16875023 395.405815,2.14159085 C395.804043,2.07494051 396.077825,2.27862837 395.914489,2.68971104 C395.858488,2.83290688 395.552039,2.96623745 395.371592,2.95513155 C395.23159,2.94525134 395.107144,2.70452389 394.976476,2.56502005 Z M320.039636,5.18829905 C319.810967,5.43518482 319.568296,5.67097964 319.190291,5.48210463 C319.13429,5.45494525 319.14829,5.30064351 319.129624,5.20557822 C319.44385,5.2105258 319.759632,5.21545843 320.075415,5.22039106 L320.039636,5.18829905 Z M329.841331,4.51057019 L329.768219,4.63402055 L329.875554,4.5463542 L329.965777,4.44637122 L329.841331,4.51057019 Z M257.016966,16.6220832 C260.316346,16.7331422 263.159942,14.9789184 266.362876,14.4814399 C268.826911,14.0975166 271.522727,14.6135299 273.821871,13.2630048 L273.84676,13.3000444 C273.607201,13.051918 273.633646,12.8062579 273.851427,12.5618384 L273.796981,12.6186085 C273.960317,12.4433207 274.150098,12.406296 274.367878,12.5087603 C274.464324,12.5828245 274.552992,12.6655283 274.62766,12.7618193 L274.647882,13.0457447 L274.517214,13.304977 L274.542103,13.2667267 C275.231224,14.4579875 276.170793,15.0246574 277.393477,14.5839042 C278.552382,13.486453 275.301225,12.9618002 277.343698,11.9458273 L277.315698,11.9186529 C277.838372,12.6951391 278.673717,12.5605978 279.44995,12.5902235 L279.418839,12.6124502 L280.842192,11.2273519 L280.801747,11.269339 C281.290199,10.7780189 281.780206,10.7014734 282.270213,11.2656321 L282.231323,11.2421796 C283.142892,11.2779786 284.090238,10.8903484 284.962917,11.3396963 C290.121213,13.9938267 295.872183,14.9826552 301.299593,16.8455464 C304.102744,17.8071109 307.128342,18.7946839 309.572155,20.6883667 L309.536377,20.6562298 C311.267734,20.1303812 312.773534,20.811832 314.171998,21.6080786 C315.494239,22.3599315 316.706034,21.9771292 317.070039,20.9106341 C317.404488,19.9303854 318.476281,18.5120291 316.524031,17.5256519 C314.056885,16.2775462 311.661296,14.9406681 308.834811,14.5974913 C308.833255,14.8382188 308.828589,15.0801121 308.825478,15.3221101 C309.338818,15.3505101 309.984383,15.0789163 310.155496,15.860365 C310.171052,15.9319629 310.065273,16.085024 309.984383,16.1122283 C309.198816,16.3664831 309.033925,15.8232955 308.869034,15.2899732 C308.869034,15.0678553 308.870589,14.8468434 308.870589,14.6258764 C307.770796,14.3049114 306.79856,15.2986427 305.354984,13.9123486 C303.804073,12.4248009 300.683584,12.5260245 298.263106,11.8853352 C296.368412,11.3841349 294.584165,10.6459289 292.703471,10.2447265 C292.502802,8.9867854 293.751931,9.12998124 294.165714,8.55225031 L294.142381,8.57694337 C297.233313,10.0570921 300.571583,10.6977664 303.939408,11.244646 L303.91763,11.2668578 C303.99852,11.216246 304.085633,11.1187143 304.1603,11.1261282 C304.336081,11.144648 304.505639,11.2137796 304.678308,11.2631658 L304.658085,11.240939 C305.846546,9.86942781 307.011674,10.5311032 308.175246,11.2779637 C308.371249,10.7471376 307.884353,9.87068339 309.15526,9.76080525 C309.270373,10.5879032 308.696365,10.9150414 308.141023,11.2508192 C308.512806,12.3026061 309.186372,12.2593783 310.00305,11.7334998 C311.053065,11.0582373 312.073524,10.3298966 313.171761,9.73364587 C315.086677,8.69544615 316.903592,7.98807664 319.25407,9.15712567 C321.150319,10.0990344 323.479018,10.0410386 325.675494,9.88548129 L325.642827,9.91512193 C326.358393,8.48065239 326.719287,9.55216981 327.203071,10.100275 C327.965304,10.9668789 328.217308,12.4828266 329.814886,12.3544436 C333.454938,12.0569311 335.985862,14.4802142 338.972571,15.749306 C340.587261,16.4368852 342.096171,17.1392623 343.895974,16.6220832 L343.724861,16.494881 L343.861752,16.6554158 C343.933308,15.3381038 343.550636,14.3283639 342.573733,14.1493691 C339.378577,13.5642242 336.525648,12.7284867 334.612287,9.7682042 C333.923166,8.70286004 331.524466,9.32872152 330.077779,7.57700892 C334.299616,8.16462007 338.054781,7.95598463 341.809945,7.8597086 L341.758611,7.89426692 C342.28284,6.41906579 343.024851,5.45370462 344.735986,6.69681788 C345.533998,7.27578945 346.478233,7.15851236 347.389802,7.191845 L347.354023,7.22765891 C346.781571,6.54129046 346.458011,5.36113553 347.733584,5.79936263 C351.731419,7.17087383 355.419693,6.05859493 359.146857,5.06114174 C360.728879,4.63771255 361.481779,5.58826087 362.452459,6.35610745 C363.126025,6.88815921 363.197581,6.86842868 364.214929,5.8339359 C364.725158,5.31299004 365.247832,5.3784147 365.761173,5.64999353 C367.091192,6.35734808 368.436766,6.25612447 369.810341,5.84626749 L369.766785,5.88701403 C369.881898,5.07102196 370.014122,4.30934865 371.225917,4.65993929 C373.833065,5.41421366 376.404435,5.25988202 379.122029,4.96731708 C381.183169,4.74635006 383.303421,5.56850044 385.537231,4.73029658 C386.745915,4.27600106 387.383701,5.31420078 386.590357,6.56102099 L386.621468,6.53016962 C390.357966,4.7907886 394.082019,7.29306861 397.813849,6.55608836 C398.196521,6.1227939 398.608749,5.84502686 399.134535,6.3635064 C399.195202,6.42275779 399.226314,6.6042488 399.182758,6.64991303 C398.655417,7.19679258 398.235411,6.68572693 397.781182,6.50178455 C397.645847,7.34740232 398.09852,7.73255129 398.912087,7.83624122 C399.798766,7.94982631 400.414775,8.37077425 400.629445,9.24231075 L400.603,9.21763264 C401.499013,8.96209234 402.507027,8.71643226 402.681252,7.70663254 C402.829031,6.85113457 401.905018,6.76967138 401.295232,6.52030435 L401.334121,6.55732899 C401.55968,6.10180779 401.786794,5.64627163 402.013909,5.19075042 L401.998353,5.2031119 C402.248801,5.20557822 402.499249,5.20802958 402.749697,5.21173653 L402.724808,5.1845921 C404.190162,5.96849216 405.699072,6.21536298 407.410207,6.01784839 C409.342235,5.79441505 411.322485,5.62652615 413.212512,6.54498246 C415.572323,7.69057907 417.467017,6.43511927 419.243486,5.15496641 C420.48017,4.26244379 420.113054,3.06992738 418.776813,3.08720654 C415.216096,3.13288572 411.596267,2.66870998 408.097773,3.68716422 C407.86288,3.75505519 407.758657,4.24021704 407.593766,4.5315563 L407.623322,4.50315629 C406.122189,3.9772778 407.161315,2.22182835 405.823518,1.40461209 C404.922839,1.53545991 403.809045,1.69594986 402.695252,1.85766549 L402.735697,1.81940022 C402.587917,1.99098112 402.345247,2.32924018 402.304802,2.30947975 C397.393843,-0.26193037 392.028656,0.83675689 386.850138,0.625661112 C384.647441,0.536779545 382.446298,0.660232892 380.270045,0.203475536 C379.710037,0.0862008349 378.865359,-0.139719 378.579132,0.119521371 C376.413768,2.08604641 374.147292,0.925647425 371.89326,0.475063334 C371.712813,0.493580141 371.65059,0.961434427 371.370586,0.600966556 C371.5557,0.571339367 371.740813,0.542948326 371.925927,0.513319642 C371.824814,0.457769223 371.703479,0.333097665 371.6257,0.35531843 C367.592088,1.50462348 363.399806,-0.647083828 359.398861,0.881199915 C357.798171,1.49226648 355.998368,1.1552615 354.640349,0.868862353 C351.974089,0.304706623 349.780724,-0.448339066 347.215577,1.46016401 C346.069116,2.31565302 343.972198,1.21204658 342.149061,1.35030829 C338.768791,1.60460646 335.312297,2.13420685 331.750025,1.76014883 C326.254169,1.18365553 320.5872,0.88120141 315.488016,4.34514761 C313.926217,5.40679976 311.1744,5.40804039 309.099259,5.09571502 C304.882088,4.45995838 300.820475,5.15989904 296.783751,5.85121507 C293.717708,6.37709356 290.461884,5.05250216 287.630733,6.65239429 C285.885375,7.63874157 283.572231,6.47955781 282.119322,8.3633753 C281.385089,9.31516425 280.629078,7.9177343 279.631953,7.99302422 C276.83658,8.20536661 274.299433,9.31885625 271.689174,9.98794554 C269.285806,10.6039417 266.381543,9.66573995 264.317292,12.1458082 C263.432168,13.2099266 262.464599,11.5248644 261.904591,10.5706091 L261.937258,10.6014904 C261.220137,10.8101109 260.50146,11.0174907 259.782783,11.2248855 C259.824783,11.5285713 259.86834,11.8322422 259.91034,12.1371686 C259.809228,12.132221 259.647448,12.164328 259.619447,12.1186488 C259.401666,11.7729908 259.614781,11.5088258 259.835673,11.2545112 C257.906756,10.2903907 256.992077,12.3643089 255.455166,12.6050363 C250.545763,13.3716423 245.645694,14.1814611 240.737846,14.9530594 C239.964724,15.0739837 238.966044,14.8172327 239.000887,16.0394346 C239.032933,17.0108644 239.740721,17.5232603 240.625845,17.4207213 C242.305869,17.2244623 243.833446,17.9380499 245.451247,17.9812478 C247.322606,18.0293784 249.155077,18.1639048 251.057548,19.6057284 C249.914199,17.5725867 251.760669,16.8380727 251.995561,14.9937163 C253.188689,16.9232727 254.593376,17.4232624 256.329401,16.6270158 L256.310734,16.6491379 C256.461625,16.1504935 256.2874,15.1999901 256.970299,15.3183733 C257.891201,15.478908 257.088522,16.187563 257.038744,16.6590032 L257.016966,16.6220832 Z" id="Shape"></path><path d="M204.253204,17.1354528 C204.206711,17.2273995 204.183464,17.3566811 204.105975,17.3989941 C204.047084,17.4316439 203.920002,17.3566811 203.822366,17.3301805 C203.868859,17.2382339 203.892106,17.1076346 203.966495,17.0664929 C204.028486,17.033843 204.155568,17.1088059 204.253204,17.1354528 Z M210.996285,20.0737915 C210.914147,20.0483158 210.832009,20.0218153 210.749871,19.9951683 C210.810312,19.8560771 210.864554,19.713472 210.943593,19.584044 C210.952892,19.5695492 211.10477,19.6323599 211.188458,19.6590068 C211.124917,19.798098 211.059826,19.9358715 210.996285,20.0737915 Z M212.476323,18.649351 C212.623552,18.7629665 213.040442,18.4752673 212.949005,18.9371966 C212.801776,18.8295839 212.654547,18.7218248 212.507318,18.6155298 C212.350791,18.5079171 211.862611,18.8077685 212.047035,18.2817109 C212.191164,18.4038184 212.332194,18.5272435 212.476323,18.649351 Z M218.053972,17.9878624 L218.224447,18.0871296 L218.094266,17.9480384 L218.053972,17.9878624 Z M203.400827,19.9347002 C205.172222,20.6893067 206.656909,22.45108 208.955229,21.3228306 C207.042803,21.2455252 206.952916,19.9551979 206.937419,18.6167011 L206.794839,18.5162626 L206.900224,18.6505223 C207.13734,18.646862 207.376006,18.6445194 207.611572,18.6408591 C208.126098,18.3494996 208.583282,17.8114362 209.310128,18.2986947 C208.812649,18.9045467 208.141596,18.4776099 207.580576,18.6022064 C207.458144,19.779943 208.200487,20.5235685 209.048215,21.2152179 C209.841701,21.8948616 210.75297,22.1547425 211.808369,21.9093563 L211.783572,21.9335143 C214.320558,21.6081872 216.855994,21.5720235 218.892401,19.5368994 C219.616147,18.8126001 220.265504,19.6916566 219.499914,20.6178577 L219.465819,20.5865256 C220.091929,20.8500669 220.955155,21.3699752 221.373595,20.7811069 C222.920273,18.5997174 224.993875,19.2901955 227.171312,19.3421716 C229.523874,19.3989794 232.160045,19.8912159 234.149959,17.9648757 L234.122063,17.9903514 C235.157315,17.5307647 236.332046,17.2599029 237,15.9310693 C234.308037,14.2164406 231.380507,15.4474711 228.795479,15.7025205 C220.983051,16.4764533 213.286856,15.842783 205.551918,15.0725104 C202.715825,14.7908141 199.921576,16.0520054 197.034341,15.6190657 C196.594204,15.5514235 196.164916,15.4244844 195.729429,15.3252172 L195.760424,15.3555245 C195.518659,14.9068894 195.275344,14.457083 195.033579,14.0084626 L195.059925,14.0338651 C192.972375,14.8718238 190.703501,14.6735236 188.646946,14.4014465 C184.02706,13.7908068 179.405623,14.6795704 174.819832,14.0302487 L174.850828,14 C174.643158,14.1729123 174.437037,14.3446388 174.227817,14.5175511 C174.147229,14.64572 174.07129,14.7775199 174,14.9117503 C175.246021,16.5079318 177.505596,16.2164259 179.016629,17.3191997 L178.960837,17.2853785 C179.910851,16.8356015 180.984847,16.3373621 181.959657,16.7303314 C185.373816,18.103967 189.124277,17.058001 192.544636,18.1729269 C193.383066,18.4461314 194.387321,17.839108 194.855354,18.0604827 C197.582962,19.3518348 200.93823,17.9940117 203.442671,19.973353 L203.400827,19.9347002 Z" id="Shape"></path></g></g></g></svg>