<svg xmlns="http://www.w3.org/2000/svg" xmlns:xlink="http://www.w3.org/1999/xlink" width="1896px" height="434px" viewBox="0 0 1896 434"><title>Floor-white</title><g id="Home-1" stroke="none" stroke-width="1" fill="none" fill-rule="evenodd"><g id="Floor-white" fill="#FFFFFF"><path d="M202.083951,61.8965025 C151.523951,62.519859 68.142084,73.0650259 32.7703704,78.2596119 L0,434 L1896,421.10587 L1896,70.4679667 L1708.74074,58.7800314 L1606.5284,58.7800314 C1545.92974,64.4940292 1410.68642,72.4938755 1354.50864,58.7800314 C1284.28642,41.6377263 1243.71358,65.0135969 1214.0642,50.9880745 C1190.34469,39.7676566 1095.98631,23.9758535 1051.77284,17.48266 L1011.2,22.1576783 C950.340741,7.3527109 827.061728,10.4698365 792.730864,7.35305375 C765.266173,4.85962755 695.980247,16.1838343 664.77037,22.1576783 C575.822222,12.028072 532.128395,23.7159138 505.6,28.3910879 C479.071605,33.0662621 487.654321,25.2743052 446.301235,28.3910879 C404.948148,31.5078707 265.283951,61.1173068 202.083951,61.8965025 Z" id="Path" fill-rule="nonzero"></path><g id="Group-9" transform="translate(42.000000, 0.000000)"><path d="M62.8769507,69.9048006 C62.7837962,69.9009914 62.6480567,69.9325319 62.6028102,69.8846878 C62.4089862,69.6783794 62.4697324,69.5171723 62.7554584,69.481975 C62.8226236,69.4731375 62.9506915,69.5714159 62.9674436,69.6405917 C62.9868573,69.717386 62.911864,69.815512 62.8769507,69.9048006 Z M231.704092,57.147199 C231.872083,57.0502919 232.040231,56.8753716 232.209631,56.8729337 C232.512109,56.8679055 232.567845,57.0591294 232.354451,57.2793034 C232.284624,57.3522885 232.150137,57.4555951 232.094401,57.431673 C231.949581,57.3711823 231.832003,57.2479153 231.704092,57.147199 Z M247.165863,55.8497719 C247.666392,54.359902 248.505409,54.2666518 249.674303,54.2491293 C249.185672,55.3400956 248.713637,56.0045794 247.165863,55.8497719 Z M212.206569,58.0218005 C212.130261,57.9450062 212.038484,57.8770494 211.984157,57.7889797 C211.944062,57.7248321 211.951827,57.6317343 211.937596,57.5511308 L212.174271,58.0469415 C213.167329,58.1060609 213.78409,56.3367451 215.349916,57.6152784 C214.306444,58.8598333 213.356049,58.944246 212.206569,58.0218005 Z M150.138936,59.3745378 C149.67739,59.8351511 149.217098,60.2957644 148.755552,60.7562253 C148.97928,61.1249597 149.265006,61.5150259 148.749133,61.8497819 C148.627484,61.9291664 148.370096,61.8095563 148.174863,61.7806061 C148.384343,61.4307655 148.593823,61.0809249 148.804556,60.7310843 C148.363677,60.6178737 147.637072,60.5046631 147.84389,60.0024529 C148.282265,58.9392178 149.221012,58.9555214 150.179016,59.4135444 L150.264499,59.2914963 L150.138936,59.3745378 Z M124.771317,62.1593969 C126.925456,64.1955118 131.85701,64.275963 133.889657,62.1720436 C135.336605,60.6757741 136.72265,59.5092325 138.906536,60.7839565 L138.858628,60.7373314 C140.336576,61.3111553 141.934919,59.3620435 143.392044,60.9626861 C143.064985,61.9002162 141.112498,61.0973808 141.400729,62.7193552 C142.620036,63.8808686 143.985571,61.6987836 145.204878,62.8426222 C145.453185,62.8439935 145.700084,62.8452124 145.948392,62.8464314 L145.908312,62.8074248 C145.838485,62.8627349 145.758325,62.9735076 145.700084,62.9634512 C145.541017,62.9370913 145.39103,62.860297 145.238539,62.8023966 C143.926077,63.6116315 142.140329,63.8091025 141.377558,65.3683006 C142.108077,66.169917 142.856758,65.83638 143.491617,65.7470914 C146.597499,65.3128381 149.718723,64.3804885 152.647532,66.3637312 C157.338606,64.0570078 162.748457,66.1686981 167.571512,63.8833065 C170.389006,62.5482441 173.744447,61.8875695 176.899332,61.7315431 C180.699567,61.5427571 184.801027,61.9002162 188.292208,61.1790509 C192.866799,60.2352736 197.892806,61.7051831 202.065377,58.8636425 C203.050655,58.1929115 204.123889,58.856024 205.145379,58.7126442 C205.321229,58.6748566 205.347078,58.1639613 205.6574,58.561646 L205.119483,58.6798848 C204.862173,60.8456662 201.748652,59.7521096 201.338756,62.0347586 C202.855469,62.6853767 205.052256,62.8174812 205.782822,61.8875695 C206.734485,60.6744028 207.41204,59.2826589 209.091684,58.3049032 C209.527428,59.2914963 208.145236,60.4843979 209.409797,61.2596544 C210.564473,61.9668017 211.455306,61.2080011 212.378522,60.8506944 C217.316572,58.9354086 222.611491,59.8452075 227.716296,58.7956857 C225.803888,59.6777533 224.18253,60.8392667 222.219725,61.6798898 C223.212768,62.3707335 224.221326,62.5520533 225.047583,62.3707335 C229.725772,61.3439148 234.808564,61.993314 239.063925,59.2084549 C239.798358,58.7265099 240.640037,58.6760755 241.435216,58.9366275 C243.607517,59.6475841 245.329858,59.0649227 247.366419,58.0129631 C249.345992,56.9899536 251.981247,57.2869219 254.298211,56.9521659 C258.348006,56.3682856 262.245152,54.6492518 266.454014,55.103618 C266.673828,55.1261687 266.92464,55.0457175 267.135373,54.9562766 C268.772388,54.2541575 269.981361,52.5200391 272.232413,53.2146921 C272.678615,53.3531961 273.488042,52.3312532 274,51 C271.579548,52.3362814 269.307674,50.8854181 267.174044,51.868202 L267.206452,51.8342235 C266.871566,53.0448 265.896653,52.7277189 265.009728,52.7667255 C263.319639,52.8409295 261.700786,53.2852392 260.128431,53.886642 C259.957778,53.9483517 259.943531,54.4907875 259.607392,54.0464777 C259.793545,54.0088424 259.979854,53.9696834 260.164754,53.9306768 C260.147845,53.69039 260.131093,53.4501031 260.115593,53.2084449 L260.140017,53.232367 C258.456503,52.5930241 257.018793,53.7356437 255.442524,53.8413882 C254.14431,53.9282389 252.394884,56.3670667 251.681117,52.8899925 C251.483379,51.9261024 248.999519,53.0423621 247.507325,52.8032942 C246.381173,52.6219744 244.484265,52.4810325 245.05697,54.8493131 C245.284611,55.7894335 244.314865,56.2058596 243.496358,56.353201 C242.709006,56.4977998 242.309303,56.1543587 242.160725,55.2596444 C241.712018,52.5654452 238.908772,54.9952832 237.616977,53.4097252 C237.159345,52.847329 236.70281,54.6317293 236.154529,55.274729 C236.513996,55.6181701 237.16185,55.7717587 236.997617,56.4563553 C236.982117,56.5205029 236.797217,56.6111628 236.731304,56.5872407 C236.048537,56.3405544 236.361504,55.6987736 236.18819,55.2469978 C234.733571,55.3199828 233.730163,55.1715748 232.258635,54.1270812 C230.625691,52.969377 227.364657,53.3091612 224.658338,54.5159284 C225.357874,55.3891586 226.407749,56.3946456 224.823824,57.3410131 C223.806233,57.9500344 223.073083,57.8720212 222.743363,56.6274663 L222.76799,56.6564165 C222.109834,56.190775 221.450363,55.7252859 220.762475,55.2395317 C219.517305,55.4370027 219.901352,57.407751 218.471281,57.3976946 C217.270058,56.5532623 218.899228,55.6899362 218.287634,54.794003 C218.051006,54.7071523 217.704518,54.4453813 217.423943,54.5008439 C214.941336,54.9878171 212.299693,54.4517808 209.919216,55.7655115 C209.139534,56.1958032 207.874947,56.7193452 207.246538,55.2671106 L207.269818,55.2885947 C203.020955,55.5099877 198.782409,56.6148196 194.515446,55.4319745 C194.302099,55.3728551 193.995769,55.350152 193.830127,55.4558965 C190.326108,57.6795784 186.294474,55.3036793 183.096847,56.2524847 C178.113472,57.7322983 172.907779,54.7865368 168.265865,57.718585 C167.672338,58.0935666 166.896572,57.8090925 166.295217,57.3548788 C165.690104,56.8980747 164.865178,56.6942042 164.302806,57.0528822 C161.701212,58.710054 158.542413,58.3161786 155.793493,59.3745378 C155.335705,60.0804661 154.497784,60.5422984 154.367212,61.4609347 L154.406039,61.4232994 C153.865586,61.176613 153.25515,60.7700909 153.454297,60.2151608 C153.846172,59.1241945 154.958077,59.5003951 155.81917,59.4072972 C155.711924,58.8459676 155.596851,57.9928503 155.002071,58.0445036 C150.020105,58.4735763 144.837583,55.5628599 140.017189,58.8586143 C139.790956,59.0134218 139.253009,59.0309443 139.050104,58.8775081 C136.379935,56.8476404 134.55943,58.0847291 132.88625,60.2680331 C132.027662,61.3867307 130.857516,61.3565615 129.763616,60.6166547 C128.761461,59.9383053 127.847451,59.4802823 126.532329,59.8942705 C120.35047,61.8485629 113.899637,61.6485016 107.52505,62.1002775 C105.952695,62.2110502 104.318342,62.5934979 102.928227,63.5008588 C102.760235,63.580091 102.726574,64.0897673 102.398107,63.6581042 C102.579093,63.6102602 102.760235,63.5611972 102.941221,63.5133531 C101.992141,62.427415 101.043061,61.5415382 100.095233,63.5133531 L100.119814,63.4895835 C96.4476468,63.7839615 92.8453068,64.9818913 88.8886666,64.4044105 C87.3512256,65.1581829 90.1364674,67.3011089 87.6681075,68.141732 C87.1896534,65.7408443 85.7298673,64.6661815 83.1865142,65.5834465 L83.2135994,65.5570865 C81.6180739,67.4271186 80.9404726,64.6887322 79.6771721,64.8900124 L79.6978384,64.8686807 C79.616426,64.9139345 79.5310996,65.0045944 79.4548538,64.9983472 C79.2790344,64.9794534 79.1069726,64.9140868 78.9336582,64.8674617 L78.9543244,64.8887935 C76.8842588,64.5252396 77.3897982,66.8481141 76.2533131,67.4408318 C73.2211727,65.0902261 71.8504705,65.0524384 68.3826175,67.3654089 C67.7541768,67.7844253 67.4750263,68.2311729 66.7509261,67.4383939 C65.9427519,66.5537361 65.0259236,67.4257473 64.1660839,67.634646 L64.1867502,67.6120953 C64.1065903,67.6648152 64.0200114,67.7693407 63.9475231,67.7605033 C63.7691987,67.7378002 63.5971369,67.6635962 63.42257,67.609505 L63.4433928,67.6308367 C61.3396663,66.7286563 59.2888579,67.7944817 57.2084592,67.8334883 C52.1039047,67.9253672 46.9952797,68.141732 41.9508452,69.0364463 C39.776196,69.4228556 37.5436189,69.2668291 35.3658385,69.3776018 C33.2647736,69.4845652 31.7085452,70.0483328 29.8705048,70.8561964 C28.6383601,71.3984797 26.5639108,70.6949893 24.8699077,70.9064783 C21.8075508,71.287707 18.4680787,70.2721637 15.7673805,72.5813249 C15.5607184,72.7588355 15.1051224,72.8280113 14.8342698,72.7411606 C9.73190721,71.1115678 4.922316,73.2144206 0,73.8196326 L0.034443687,73.7844353 C4.33677332,76.9732262 8.9036931,77.6514233 14.286302,76.4295715 C18.9737747,75.3649651 23.9853311,75.5511607 28.8199723,75.4630911 C32.2737347,75.4001625 35.6899223,74.9636236 38.7679354,74.0512344 C43.7059076,72.5889434 48.7080703,72.86458 53.6538707,72.2618059 C57.990644,71.7344547 62.3094126,70.99211 66.7275983,70.9127255 C68.566265,70.8801184 70.3532661,70.1438685 72.0948641,71.2663753 C72.1892711,71.326866 72.3586715,71.4149357 72.414251,71.377148 C75.0468447,69.6216979 78.4500375,72.1297014 81.0594599,69.7978371 C82.6873938,68.3405743 84.7820397,69.553741 86.6517056,69.5020877 C91.6815799,69.3623648 96.5873003,68.451347 101.512434,67.609505 C101.512434,67.609505 101.48394,67.6396742 101.485193,67.6396742 C101.737414,67.396797 101.989636,67.1539199 102.240449,66.9110428 L102.217121,66.938774 C105.677302,67.2672829 108.863187,66.2567677 111.99631,65.0222692 C113.125123,64.5767405 114.225443,64.560437 115.430502,64.7755829 C118.551883,65.3331032 121.322721,63.556169 124.344528,63.3196914 C124.530837,63.3044544 124.656244,62.5394067 124.808735,62.1229806 L124.771317,62.1593969 Z" id="Shape"></path><path d="M1340.12294,59.9048422 C1340.21688,59.901033 1340.35152,59.9325733 1340.39693,59.8847295 C1340.59106,59.6782699 1340.53,59.5172162 1340.24506,59.482019 C1340.17774,59.4731816 1340.04936,59.5713071 1340.03214,59.6406348 C1340.01335,59.7172763 1340.0885,59.8155541 1340.12294,59.9048422 Z M1171.29535,47.1473153 C1171.12783,47.0504089 1170.96031,46.8754896 1170.78966,46.8730517 C1170.48749,46.8680235 1170.4327,47.0592462 1170.64562,47.279419 C1170.71607,47.3524036 1170.84915,47.4555572 1170.90551,47.4316354 C1171.05112,47.3712973 1171.16854,47.2480311 1171.29535,47.1473153 Z M1155.83481,45.8498958 C1155.33381,44.3600347 1154.49463,44.266785 1153.32511,44.2492626 C1153.81359,45.3402225 1154.28641,46.0047024 1155.83481,45.8498958 Z M1190.79365,48.0219117 C1190.87036,47.9451179 1190.96117,47.8771614 1191.01596,47.7890923 C1191.05667,47.7249451 1191.04884,47.6318478 1191.06293,47.5512448 L1190.82652,48.0470525 C1189.83235,48.1061716 1189.2155,46.3368662 1187.64987,47.615392 C1188.69414,48.8599396 1189.64448,48.9443518 1190.79365,48.0219117 Z M1252.86128,49.3746411 C1253.32314,49.8352517 1253.78343,50.2958622 1254.24529,50.7563205 C1254.0214,51.1250527 1253.7349,51.5151166 1254.25155,51.8498707 C1254.3721,51.9291024 1254.63043,51.8096453 1254.82457,51.7806953 C1254.61634,51.4308567 1254.40655,51.0810182 1254.19519,50.7311796 C1254.6367,50.6179697 1255.36314,50.5047597 1255.15648,50.0025525 C1254.71811,48.9393237 1253.77873,48.9556271 1252.82057,49.4136474 L1252.73603,49.2916001 L1252.86128,49.3746411 Z M1278.2291,52.1594839 C1276.0748,54.1955868 1271.14308,54.2760375 1269.1109,52.1721305 C1267.66426,50.6758698 1266.27712,49.509335 1264.09307,50.7840516 L1264.1416,50.7374267 C1262.66365,51.3112473 1261.06515,49.3621468 1259.60755,50.9627801 C1259.93477,51.9003047 1261.8871,51.0973216 1261.59903,52.7194388 C1260.37941,53.8809455 1259.01418,51.6988733 1257.79456,52.8427051 C1257.54719,52.8440764 1257.29982,52.8452954 1257.05245,52.8465143 L1257.09159,52.807508 C1257.16205,52.8628178 1257.24189,52.9735898 1257.29982,52.9635335 C1257.45952,52.9371737 1257.60982,52.8603799 1257.76168,52.8024798 C1259.07368,53.6115576 1260.86005,53.8091798 1261.62251,55.3683688 C1260.89137,56.1699805 1260.143,55.8364454 1259.50892,55.7471574 C1256.40272,55.3129065 1253.28086,54.3805625 1250.35315,56.3637935 C1245.66097,54.0570837 1240.25173,56.1686092 1235.42804,53.8833834 C1232.61149,52.5483288 1229.25635,51.8876581 1226.10005,51.7316325 C1222.30028,51.5428477 1218.19834,51.9003047 1214.70857,51.1791436 C1210.13381,50.2353719 1205.10659,51.7051204 1200.9342,48.8637488 C1199.94942,48.1930218 1198.8754,48.8561304 1197.85461,48.7127514 C1197.67926,48.674964 1197.65265,48.1640717 1197.34265,48.561754 L1197.88123,48.6799921 C1198.13799,50.8456085 1201.25202,49.7522107 1201.66065,52.0348463 C1200.14512,52.6854606 1197.94855,52.8175643 1197.2174,51.8876581 C1196.2655,50.6744985 1195.58759,49.2827627 1193.90767,48.3050128 C1193.47243,49.2916001 1194.85488,50.4844947 1193.58985,51.2597467 C1192.43599,51.9668898 1191.54515,51.2080937 1190.62143,50.8507891 C1185.68345,48.9355145 1180.3885,49.845308 1175.283,48.7957924 C1177.19619,49.6778548 1178.81818,50.8393614 1180.77991,51.6799795 C1179.7873,52.3708192 1178.77904,52.552138 1177.95239,52.3708192 C1173.2743,51.3440066 1168.19072,51.993402 1163.93535,49.2085592 C1163.20107,48.726617 1162.36033,48.6761829 1161.565,48.9367334 C1159.39191,49.6476858 1157.66972,49.0650279 1155.63284,48.0130743 C1153.65389,46.9899185 1151.01895,47.2870375 1148.70182,46.9522834 C1144.65155,46.3684065 1140.75471,44.6493828 1136.54631,45.1037463 C1136.32556,45.1262969 1136.07506,45.0458462 1135.86526,44.9564058 C1134.22762,44.2542908 1133.01896,42.5201826 1130.76759,43.2148315 C1130.32139,43.3533346 1129.51196,42.3313977 1129,41 C1131.42046,42.3364259 1133.69218,40.8855711 1135.82612,41.8683492 L1135.79325,41.834371 C1136.12829,43.0449404 1137.10367,42.7278611 1137.98982,42.7668675 C1139.68069,42.841071 1141.29955,43.2853782 1142.87144,43.8867775 C1143.04209,43.9484868 1143.05618,44.4909194 1143.39279,44.0466122 C1143.20648,44.0088248 1143.02017,43.9698184 1142.83543,43.930812 C1142.85265,43.6905266 1142.8683,43.4500888 1142.88396,43.2085844 L1142.86048,43.2325062 C1144.54352,42.5931672 1145.98077,43.7357801 1147.55735,43.841524 C1148.85525,43.9283741 1150.60562,46.3670352 1151.31955,42.8901338 C1151.51682,41.9262493 1153.9999,43.0425025 1155.49194,42.8032836 C1156.61919,42.6221172 1158.51516,42.4811762 1157.94371,44.8494429 C1157.71512,45.7895578 1158.68581,46.2059815 1159.50307,46.3531697 C1160.29058,46.4979199 1160.69138,46.1544809 1160.83855,45.2597718 C1161.28788,42.5655884 1164.09191,44.9954121 1165.38356,43.4098634 C1165.84072,42.8473182 1166.29788,44.6317081 1166.84585,45.2748564 C1166.48576,45.6182954 1165.83759,45.7718831 1166.00198,46.4564756 C1166.01763,46.5206229 1166.20238,46.6112823 1166.26813,46.5873604 C1166.95075,46.3406754 1166.63919,45.6988985 1166.81141,45.2471252 C1168.26587,45.3201099 1169.26944,45.1717027 1170.74112,44.1272153 C1172.37407,42.9695179 1175.63527,43.3091477 1178.34223,44.5160602 C1177.6424,45.3892852 1176.59186,46.3947663 1178.17628,47.3411283 C1179.19393,47.950146 1179.92664,47.8721333 1180.25699,46.6275857 L1180.23194,46.6565358 C1180.8895,46.190897 1181.5502,45.7252582 1182.23751,45.2396592 C1183.48218,45.437129 1183.0986,47.4078658 1184.52802,47.3976571 C1185.73042,46.5533821 1184.1006,45.6900611 1184.71276,44.7941331 C1184.94917,44.7072829 1185.29517,44.4455135 1185.57542,44.5009757 C1188.0585,44.9879461 1190.69971,44.451913 1193.08102,45.7656359 C1193.86071,46.1959252 1195.12573,46.719464 1195.75355,45.2672379 L1195.73006,45.2887219 C1199.97917,45.5101136 1204.21731,46.6149391 1208.48521,45.4321009 C1208.69813,45.3729818 1209.00499,45.3502789 1209.16938,45.4560227 C1212.67325,47.6795392 1216.7063,45.3038064 1219.90331,46.2526063 C1224.88669,47.7324112 1230.09239,44.7865147 1234.73447,47.7185456 C1235.32784,48.0936774 1236.10283,47.809205 1236.70559,47.3549939 C1237.30993,46.8981925 1238.13501,46.6943232 1238.69707,47.0528468 C1241.29914,48.7101611 1244.457,48.316288 1247.20624,49.3746411 C1247.66497,50.0805653 1248.50258,50.5423948 1248.63252,51.4610257 L1248.59338,51.4232383 C1249.13509,51.1767057 1249.74568,50.770186 1249.54528,50.2152592 C1249.15388,49.1241469 1248.04228,49.5004976 1247.18119,49.4074003 C1247.28765,48.846074 1247.40351,47.9929617 1247.99845,48.0446146 C1252.98026,48.4736849 1258.16248,45.5629856 1262.98304,48.8587206 C1263.20849,49.0135272 1263.74707,49.0310496 1263.9506,48.8776143 C1266.61999,46.8477585 1268.44081,48.08484 1270.11446,50.2681311 C1270.97242,51.3868222 1272.14195,51.3566532 1273.23632,50.6165984 C1274.23832,49.9384053 1275.15264,49.4803849 1276.46777,49.8943707 C1282.65042,51.8486517 1289.10079,51.6485916 1295.47445,52.1003648 C1297.04791,52.2109845 1298.68242,52.5935823 1300.07269,53.5009379 C1300.24021,53.5801697 1300.27309,54.089843 1300.60187,53.6581824 C1300.42183,53.6103387 1300.24021,53.5612759 1300.0586,53.5134322 C1301.00737,52.4275004 1301.95771,51.5416288 1302.90491,53.5134322 L1302.87986,53.4895103 C1306.55281,53.784039 1310.15532,54.9819617 1314.11165,54.4044843 C1315.64909,55.1582523 1312.86385,57.3011658 1315.33284,58.1417839 C1315.81035,55.7407579 1317.27108,54.6661014 1319.81366,55.5835134 L1319.78704,55.5571536 C1321.38241,57.4270223 1322.06033,54.6888043 1323.32379,54.8900834 L1323.30187,54.8687518 C1323.38328,54.9140053 1323.46939,55.0046647 1323.54611,54.9984175 C1323.72146,54.9795238 1323.89367,54.9140053 1324.06589,54.8675328 L1324.04554,54.8888644 C1326.1153,54.5251604 1325.61117,56.8481736 1326.74624,57.4408879 C1329.77886,55.0902959 1331.15035,55.0525084 1334.6182,57.3654654 C1335.24602,57.7844793 1335.5247,58.2312243 1336.24959,57.43845 C1337.05745,56.5537973 1337.9749,57.4258034 1338.83443,57.6347009 L1338.81408,57.6119979 C1338.89393,57.6648699 1338.98004,57.7693948 1339.05205,57.7605574 C1339.23054,57.7378545 1339.40275,57.6636509 1339.5781,57.60956 L1339.55619,57.6308916 C1341.66039,56.7287165 1343.71135,57.7945356 1345.79207,57.833542 C1350.89601,57.9254203 1356.00621,58.1417839 1361.04908,59.0364929 C1363.22374,59.4229 1365.45788,59.2668744 1367.63567,59.3774941 C1369.73517,59.4844569 1371.2914,60.0483735 1373.13101,60.8562324 C1374.36316,61.3985126 1376.43604,60.6950263 1378.13005,60.906514 C1381.19398,61.2877405 1384.53189,60.2722031 1387.23259,62.5813508 C1387.44082,62.7588604 1387.89485,62.8280358 1388.16727,62.7411856 C1393.26964,61.1116023 1398.07768,63.2144428 1403,63.8196513 L1402.96556,63.7844541 C1398.66322,66.9732263 1394.09629,67.6514194 1388.71367,66.4295748 C1384.02619,65.3649747 1379.01463,65.5511692 1374.17998,65.4631001 C1370.72621,65.4001718 1367.31002,64.9636355 1364.232,64.0512517 C1359.29402,62.5889693 1354.29185,62.8646042 1349.34604,62.2618336 C1345.00926,61.7344856 1340.69126,60.9919929 1336.27307,60.9127611 C1334.43346,60.8800019 1332.64708,60.1439087 1330.90611,61.2664089 C1330.81061,61.3267469 1330.64152,61.4149684 1330.58672,61.377181 C1327.95334,59.6217411 1324.54967,62.12973 1321.94134,59.7978793 C1320.31309,58.3406251 1318.21828,59.5537847 1316.34893,59.5021317 C1311.31858,59.3624096 1306.41347,58.4513971 1301.48802,57.60956 C1301.48802,57.60956 1301.5162,57.639729 1301.51463,57.639729 C1301.26257,57.3968533 1301.0105,57.1539776 1300.76,56.9111019 L1300.78349,56.938833 C1297.32346,57.2671875 1294.13741,56.2568307 1291.00459,55.0223394 C1289.87578,54.5768133 1288.77514,54.5605099 1287.56961,54.7756545 C1284.44776,55.3331716 1281.67817,53.5562478 1278.65495,53.3196192 C1278.46864,53.3045347 1278.34339,52.5394914 1278.19152,52.1229154 L1278.2291,52.1594839 Z" id="Shape"></path><path d="M1452.78803,63.9783127 C1452.69441,63.967739 1452.55867,63.992356 1452.51655,63.9375046 C1452.33712,63.7007515 1452.40889,63.5307452 1452.69441,63.5124064 C1452.76306,63.5074499 1452.8832,63.6226048 1452.89568,63.6986037 C1452.90972,63.7830286 1452.82859,63.883975 1452.78803,63.9783127 Z M1621.52763,61.8733081 C1621.70081,61.7799616 1621.88024,61.6025207 1622.04874,61.6114423 C1622.34987,61.6269725 1622.39199,61.8377869 1622.1642,62.0613228 C1622.09087,62.1353391 1621.95045,62.2377724 1621.89584,62.2080337 C1621.75542,62.1326957 1621.64777,61.9911064 1621.52763,61.8733081 Z M1636.98943,61.5408955 C1637.587,59.9634224 1638.42796,59.9207969 1639.59188,59.9827525 C1639.03176,61.1293448 1638.51845,61.815648 1636.98943,61.5408955 Z M1602.07946,61.4685313 C1602.00925,61.3801412 1601.92188,61.3003424 1601.87507,61.2012134 C1601.83918,61.1290144 1601.85323,61.0287289 1601.84386,60.9406693 L1602.04669,61.4934787 C1603.02963,61.6263116 1603.76138,59.7547558 1605.23267,61.2464823 C1604.11243,62.5207858 1603.16069,62.5462289 1602.07946,61.4685313 Z M1540.26969,58.6314588 C1539.77822,59.0976956 1539.28987,59.5642629 1538.79996,60.0304997 C1538.99811,60.4450242 1539.25555,60.8868092 1538.72039,61.2132741 C1538.59401,61.2905947 1538.34594,61.1433881 1538.15403,61.0986148 C1538.3865,60.7346461 1538.61742,60.3705122 1538.85145,60.0067087 C1538.41927,59.8535544 1537.70469,59.6807395 1537.94496,59.151721 C1538.45203,58.0317283 1539.38348,58.1143358 1540.30558,58.6763973 L1540.39919,58.550173 L1540.26969,58.6314588 Z M1514.85679,59.8867626 C1516.86168,62.2389289 1521.75921,62.6678271 1523.92324,60.5320925 C1525.46162,59.0136012 1526.91887,57.8473483 1529.00489,59.3780655 L1528.95964,59.3243707 C1530.39192,60.0475168 1532.11129,58.0494063 1533.45308,59.8821366 C1533.06458,60.8739224 1531.17672,59.8699107 1531.35458,61.6448157 C1532.48886,62.9860313 1533.99292,60.7197768 1535.12876,62.0418274 C1535.37527,62.0604967 1535.62179,62.0790008 1535.8683,62.0975049 L1535.83086,62.0525664 C1535.75753,62.107583 1535.67016,62.2219118 1535.61399,62.2068772 C1535.4564,62.1673908 1535.31286,62.0738791 1535.16464,62.0006889 C1533.80569,62.7851298 1532.01767,62.875172 1531.15331,64.5093138 C1531.82577,65.4272485 1532.5934,65.1182964 1533.22997,65.0655928 C1536.34729,64.8109965 1539.51454,64.01846 1542.2933,66.3671568 C1547.11283,64.1965618 1552.35049,66.8560281 1557.30108,64.71765 C1560.19217,63.468294 1563.57317,62.9860313 1566.7217,63.035761 C1570.51304,63.094908 1574.5665,63.7658462 1578.08636,63.2275757 C1582.69994,62.5234292 1587.59903,64.4618971 1591.93957,61.6767022 C1592.96308,61.0193116 1593.98658,61.8111872 1595.01165,61.7267624 C1595.18952,61.6980149 1595.2488,61.1470228 1595.5312,61.5987207 L1594.98825,61.6894238 C1594.58727,64.0148253 1591.56356,62.6159496 1591.00344,65.0573321 C1592.46693,65.8663901 1594.64344,66.1616293 1595.43291,65.2060256 C1596.45954,63.9594782 1597.22717,62.5006295 1598.96369,61.5590691 C1599.33035,62.6565925 1597.87622,63.8515928 1599.08071,64.7779535 C1600.18223,65.6231935 1601.11836,64.8638653 1602.06073,64.5412003 C1607.10025,62.8110686 1612.30359,64.1623623 1617.45077,63.3805648 C1615.48957,64.2025095 1613.79985,65.3467888 1611.79028,66.1203256 C1612.73266,66.936653 1613.7234,67.202484 1614.55656,67.0637034 C1619.27779,66.2769494 1624.28766,67.3316821 1628.70777,64.6133993 C1629.46916,64.1428669 1630.31012,64.1466669 1631.08399,64.4835403 C1633.19497,65.4034576 1634.9471,64.8922823 1637.04404,63.8952096 C1639.08013,62.9253974 1641.68102,63.4294684 1644.00731,63.2277409 C1648.07481,62.8766589 1652.0643,61.2867947 1656.21917,62.069914 C1656.43604,62.1097308 1656.69192,62.04001 1656.90723,61.9578982 C1658.58291,61.311577 1659.9013,59.5191592 1662.09341,60.4266853 C1662.52715,60.6074306 1663.40087,59.5578195 1664,58.1528309 C1661.50208,59.4310996 1659.34118,57.7037765 1657.15374,58.6193981 L1657.18807,58.5848682 C1656.77305,59.8713976 1655.826,59.4608383 1654.94135,59.4415081 C1653.25475,59.4048304 1651.61496,59.7732599 1650.01105,60.315 C1649.83786,60.3700166 1649.78637,60.955869 1649.48213,60.451798 C1649.67092,60.4238767 1649.85815,60.3946336 1650.04381,60.3652253 C1650.04381,60.1040204 1650.04381,59.8428154 1650.04381,59.5802887 L1650.06721,59.6078796 C1648.43522,58.7994825 1646.92961,59.9361619 1645.35534,59.9412836 C1644.0588,59.9452487 1642.15377,62.4627953 1641.6779,58.6514499 C1641.54684,57.5947345 1639.00212,58.6303023 1637.53395,58.2683162 C1636.42619,57.9942245 1634.54924,57.7102198 1634.95958,60.3123565 C1635.12341,61.3451156 1634.1311,61.7285797 1633.30731,61.8311783 C1632.51315,61.9332811 1632.14026,61.5337912 1632.05133,60.555553 C1631.78765,57.6092735 1628.83571,60.0442125 1627.65774,58.2392384 C1627.24116,57.5988649 1626.667,59.4978464 1626.0788,60.1555675 C1626.41268,60.5522487 1627.04613,60.7632283 1626.83706,61.4924874 C1626.81834,61.5608865 1626.628,61.6461374 1626.56403,61.6157379 C1625.90093,61.3014989 1626.2551,60.6287433 1626.11312,60.1279765 C1624.66212,60.1061682 1623.67449,59.8760236 1622.28122,58.6440152 C1620.73504,57.2781826 1617.46949,57.419937 1614.69698,58.5381123 C1615.33511,59.5313851 1616.31025,60.6920206 1614.67201,61.6061554 C1613.61886,62.1946513 1612.89492,62.0595054 1612.65152,60.6900381 L1612.67337,60.7230811 C1612.05084,60.1735759 1611.42675,59.6242359 1610.77458,59.0509398 C1609.52328,59.1784858 1609.77291,61.3371853 1608.35155,61.2273173 C1607.21415,60.2304099 1608.89139,59.4092912 1608.34375,58.3975144 C1608.1144,58.2871507 1607.78675,57.980016 1607.50435,58.0204937 C1605.00331,58.3753755 1602.41178,57.6122473 1599.95756,58.8687076 C1599.15248,59.2804235 1597.86062,59.7592166 1597.33326,58.1444049 L1597.3551,58.1691872 C1593.11442,58.1143358 1588.82537,59.0160794 1584.6627,57.4405889 C1584.45363,57.3617814 1584.15094,57.316182 1583.97932,57.4189458 C1580.34556,59.5821061 1576.49493,56.7321469 1573.25279,57.5370745 C1568.19767,58.7930391 1563.219,55.2448812 1558.40571,58.0956665 C1557.79099,58.4602961 1557.0374,58.0988056 1556.47104,57.5656567 C1555.9,57.0295339 1555.09336,56.7516423 1554.50984,57.1007416 C1551.81066,58.7137359 1548.69645,58.0685712 1545.89117,59.0231837 C1545.38878,59.7552514 1544.52442,60.1968712 1544.33251,61.1818832 L1544.37464,61.1437185 C1543.85352,60.8393924 1543.27312,60.357295 1543.50871,59.7706164 C1543.9721,58.6172503 1545.05333,59.1014956 1545.91457,59.060357 C1545.84593,58.4457571 1545.78976,57.5146053 1545.19375,57.5293094 C1540.21196,57.6482642 1535.25358,54.1399231 1530.23902,57.3718595 C1530.00343,57.5235269 1529.46671,57.5053532 1529.2748,57.3252688 C1526.75661,54.9440247 1524.86406,56.1563725 1523.05264,58.402636 C1522.12431,59.5535239 1520.96194,59.4396907 1519.92439,58.5633902 C1518.97266,57.7601148 1518.09425,57.2011924 1516.76026,57.5580568 C1510.48037,59.2440762 1504.07877,58.5805726 1497.70995,58.6276589 C1496.1388,58.6385631 1494.48809,58.9392544 1493.04488,59.8246418 C1492.87326,59.8986581 1492.80461,60.4478328 1492.50661,59.9581355 C1492.69071,59.9188143 1492.87326,59.8783366 1493.05736,59.8390155 C1492.18676,58.5982506 1491.30211,57.5740827 1490.22712,59.6419139 L1490.25364,59.6177925 C1486.58244,59.681896 1482.91904,60.728368 1479.02316,59.8292678 C1477.44422,60.5383707 1480.07007,63.0501347 1477.55812,63.7884807 C1477.24451,61.1575966 1475.86527,59.8937016 1473.27374,60.7100291 L1473.30339,60.6832642 C1471.59027,62.5959586 1471.10036,59.5862365 1469.83033,59.7165911 L1469.85218,59.694948 C1469.76949,59.7382343 1469.67743,59.8304243 1469.60254,59.8183636 C1469.42936,59.785651 1469.26241,59.7030435 1469.09235,59.6405922 L1469.11263,59.6652093 C1467.0781,59.1282604 1467.42447,61.6767022 1466.2543,62.2392594 C1463.39754,59.4857857 1462.03702,59.349979 1458.43291,61.6121031 C1457.78074,62.0220016 1457.47181,62.4860906 1456.8056,61.5780688 C1456.06137,60.5649703 1455.09091,61.4449055 1454.22187,61.6112771 L1454.24371,61.5883122 C1454.16102,61.6398593 1454.06741,61.7469186 1453.99564,61.7323797 C1453.82089,61.6955367 1453.65395,61.6031815 1453.48389,61.5326347 L1453.50417,61.5572517 C1451.47276,60.4351113 1449.36178,61.4463925 1447.2898,61.3442896 C1442.20816,61.0900236 1437.11247,60.9702428 1432.03707,61.5888078 C1429.84808,61.8561257 1427.6388,61.5324695 1425.46541,61.5014091 C1423.37003,61.4716704 1421.78485,61.9737588 1419.90166,62.7205307 C1418.63944,63.2219583 1416.62519,62.3170756 1414.92611,62.4284306 C1411.85403,62.6286712 1408.60253,61.2986902 1405.76137,63.6098832 C1405.54449,63.7874894 1405.08735,63.8309409 1404.82211,63.7180991 C1399.85904,61.6013642 1394.93498,63.5433016 1390,63.8572101 L1390.03589,63.8215237 C1394.10026,67.569757 1398.59526,68.6200289 1404.03108,67.6708686 C1408.76323,66.8438022 1413.7341,67.3926465 1418.54739,67.6323735 C1421.98612,67.8035362 1425.41237,67.5677744 1428.53593,66.7940724 C1433.54424,65.5541337 1438.49951,66.1988027 1443.4579,65.889355 C1447.80624,65.6193936 1452.1499,65.1153226 1456.54816,65.3357194 C1458.37986,65.427579 1460.20532,64.7549886 1461.86228,66.0900912 C1461.95277,66.162125 1462.11504,66.2691843 1462.17276,66.2321761 C1464.90783,64.5152616 1468.12345,67.464515 1470.87568,65.1224268 C1472.59193,63.6586217 1474.59369,65.1161486 1476.4566,65.1899997 C1481.46803,65.3872665 1486.40614,64.7414409 1491.3614,64.1719448 C1491.3614,64.1719448 1491.3302,64.2026747 1491.33176,64.2026747 C1491.59856,63.9573304 1491.86535,63.7121513 1492.13215,63.4666418 L1492.10719,63.4950588 C1495.52564,64.0901633 1498.76154,63.2176628 1501.95999,62.0989918 C1503.113,61.6952063 1504.20827,61.7538576 1505.39092,62.0700792 C1508.45832,62.8895457 1511.33225,61.1590835 1514.3544,61.1124929 C1514.54006,61.1090234 1514.71637,60.2898873 1514.8958,59.8499197 L1514.85679,59.8867626 Z" id="Shape"></path><path d="M393.570747,31.7660849 L393.434729,31.5842091 L393.647355,31.5496795 L393.570747,31.7660849 Z M373.663602,33.5275416 C373.57136,33.3824279 373.479117,33.2374631 373.388438,33.0935401 C373.565106,33.0186763 373.760534,32.8612094 373.912187,32.8932088 C374.038825,32.9202967 374.112306,33.1710829 374.209239,33.3209592 C374.027881,33.3898696 373.846523,33.4586312 373.663602,33.5275416 Z M469.817631,26.43126 C469.631583,26.3636891 469.337659,26.3452336 469.275121,26.2211056 C469.101581,25.8708979 469.359547,25.6409486 469.69412,25.5770986 C469.864534,25.5450992 470.189727,25.6360371 470.239757,25.7515327 C470.392973,26.0957869 470.139698,26.3035599 469.817631,26.43126 Z M404.084809,27.9874738 C403.60171,28.0059293 402.987282,28.6636291 402.460406,27.7515711 C403.015424,27.4564322 403.507904,27.3138487 404.084809,27.9874738 Z M406.469039,27.3102767 C406.580043,26.6329307 406.636326,26.0380391 407.524354,25.921204 C407.624413,25.9076601 407.898013,26.2161941 407.871435,26.3255874 C407.7276,26.8825263 407.443056,27.3470388 406.469039,27.3102767 Z M396.875837,27.869448 C397.982745,26.9795664 399.039623,26.8886285 400.795354,27.2032647 C399.216291,27.7847612 398.303248,28.6045418 396.875837,27.869448 Z M476.294919,24.5505868 C476.165154,25.8819117 475.950964,26.7878675 474.593908,27.2745564 C474.071722,25.7110497 474.992582,25.2094773 476.294919,24.5505868 Z M417.130064,26.9905801 C417.047202,26.9119955 416.947142,26.8442758 416.890859,26.7521472 C416.848646,26.6845763 416.865844,26.585006 416.856463,26.5001703 C416.936198,26.6710324 417.017497,26.8430851 417.098795,27.0151378 C418.136912,27.118429 419.057772,27.3385553 418.959276,28.6610989 C417.255138,29.0668218 417.420861,27.8128909 417.130064,26.9905801 Z M390.396986,28.2971985 C389.97955,28.3205655 389.466745,28.5848956 389.269753,27.9911947 C389.229104,27.8645365 389.43704,27.5241519 389.560551,27.5092685 C390.192177,27.4306838 390.232826,27.9371677 390.3579,28.3415512 C390.962947,28.2198045 391.478879,27.4540509 392.212127,28.1054996 C391.786874,28.6685406 391.87599,29.7599442 390.726869,29.4859399 C390.525187,29.4380152 390.503299,28.7115538 390.396986,28.2971985 Z M371.390376,33.0037928 L371.268428,32.936222 L371.35129,33.043234 L371.462293,33.1194373 L371.390376,33.0037928 Z M439.638755,30.357366 C442.201216,30.9227884 444.536979,32.7223467 447.401182,31.6566915 L447.369913,31.6861607 C447.015015,30.9830664 447.021269,30.3807331 447.940565,30.1201238 C448.67225,29.9136903 449.05998,30.3267061 449.131898,30.9375231 C449.260099,32.0180617 449.560278,32.9042225 450.907954,33.0087044 L450.876685,33.0469549 C450.821965,32.6092325 450.543675,31.9909739 450.746921,31.762364 C453.2359,28.9770746 457.388368,27.3753174 460.12906,28.3845643 C463.201198,29.5142184 463.995421,27.8990661 465.566667,26.9082746 C467.044108,27.5363563 465.02572,28.5566171 466.318677,29.3371053 C467.51001,29.7428283 468.462138,27.9395491 469.923945,28.3488441 C470.164713,28.1214249 470.403917,27.8941546 470.644685,27.6667354 C471.04805,26.9463763 471.499881,26.2605467 472.527054,26.6869577 C472.855374,26.8234389 473.041423,27.2093669 472.795964,27.5253426 C472.13776,28.3747413 471.362299,27.9568139 470.611853,27.6359267 C470.372649,27.8645365 470.135007,28.0932952 469.895803,28.321905 C470.305421,28.7115538 470.797901,29.4920421 471.109024,29.4305734 C473.588623,28.942545 475.983797,28.0342079 478.561891,29.2683438 C479.046555,29.4994838 479.651602,28.5517055 479.67818,27.828965 C479.731337,26.2493842 477.959971,27.7441294 477.519084,26.3833352 C480.06591,25.8314568 481.920138,23.7406293 485.117351,24.4203566 C487.543793,24.9366636 490.085929,23.8537435 492.562401,23.4690063 C496.197374,22.9059653 499.841728,21.4186618 503.873812,23.3914635 C505.79683,24.3318001 509.053453,25.0411454 511.458008,22.9870801 C511.694085,22.7610004 511.931727,22.5335813 512.167804,22.3073528 C512.558662,21.8562353 513.024564,21.6374485 513.587398,21.9964374 C513.685894,22.0590968 513.72029,22.4328203 513.638991,22.4954796 C513.083974,22.9293323 512.636833,22.4302901 512.145916,22.2851764 C511.908275,22.5102142 511.669071,22.7351032 511.429866,22.960141 C513.165272,24.3969896 514.944455,25.4922629 517.106678,23.6263244 L517.070719,23.6607052 C518.532525,22.5015818 517.85556,21.0105575 517.764881,19.6092804 L517.79615,19.6387496 C516.016967,18.9676547 514.248729,18.3886884 512.846333,20.2939192 L512.863531,20.2754638 C509.341124,19.1630745 505.90158,19.8539644 502.32758,20.2632593 C499.009983,20.6442757 495.794009,21.6706386 492.429509,21.6533738 L492.468595,21.6152722 C491.750981,22.3713516 491.031804,23.3448783 490.307936,21.6178024 L490.342331,21.6498018 C485.036052,22.3479846 479.723519,21.9104111 474.321871,23.2009553 C468.010307,24.7092444 461.409508,26.1018891 454.69458,25.5401876 C453.557966,25.4443382 452.407283,25.2389465 451.572411,26.4657896 C450.928278,27.4110377 449.765087,27.2794679 448.72697,27.0237702 C444.829341,26.0637875 444.830904,26.0564946 441.790034,28.7987708 C440.936402,26.3047506 439.108753,26.2089012 436.77768,26.639033 C435.237702,26.9241999 433.549198,26.4989797 431.929485,26.3760423 C429.93455,26.2260171 428.03811,26.3232061 426.065062,26.9599202 C424.13579,27.5830904 421.972004,27.7674964 420.233471,26.1030798 C419.84105,25.7257843 419.264145,25.4037064 418.723198,25.3066662 C416.068495,24.8321818 413.53574,24.1610869 410.960772,23.2932327 C408.398311,22.4290994 405.040065,22.9342438 402.007012,23.3582734 C396.308312,24.1536451 390.601795,25.009146 385.070382,26.4387017 C381.901311,27.2572916 378.036514,26.7411335 375.563168,29.9689079 C375.181692,27.8240535 373.741773,27.4725063 371.982915,27.9273447 C370.955742,28.1928655 369.948894,28.5615286 370.672762,30.0415392 C371.088634,30.8945099 370.888515,30.9830664 369.250041,30.9954197 C368.993639,31.2485872 368.932665,31.7537316 368.362013,31.6160597 C368.412043,31.0457258 368.956116,31.1932208 369.278183,31.0248889 C368.274461,29.3482679 367.162863,28.6721127 365.020965,29.7477398 C363.572291,30.4765825 361.564535,29.9578942 360.082248,31.0298005 L360.124773,30.9818757 C359.913085,31.6284129 359.875562,32.1962167 360.794859,32.3326979 L360.763903,32.3646974 C361.024683,32.3635067 361.28687,32.3635067 361.549057,32.3621672 L361.520603,32.3352281 C367.233217,31.7034255 371.592058,35.4832273 376.740431,37 C376.881139,35.6232806 375.650721,35.9318146 375.36305,35.051756 C376.308924,34.5845644 377.468989,34.2011666 376.712289,32.5662193 C376.207301,31.4771971 376.934296,29.978731 378.51336,30.9854478 C380.64275,32.3413303 382.798719,31.265852 384.903095,31.6111481 C385.90838,31.775908 386.960568,30.555316 387.80013,32.5208248 C388.298864,33.6860503 389.927957,32.0659865 391.516401,31.0592697 C390.564273,33.4008834 391.866609,33.8531915 393.28933,34.002026 C394.058537,34.0831409 395.615713,35.0861368 395.29521,33.0026022 C395.218602,33.0738939 395.152938,33.1612598 395.063822,33.2115658 C394.998158,33.2496675 394.902789,33.2410351 394.821491,33.2521977 C394.991905,33.1820966 395.160755,33.1119955 395.329605,33.0420433 C395.415594,31.1146361 397.505899,29.851031 400.013639,30.5798737 C402.876279,31.413347 405.738918,30.5073913 408.66253,30.9585087 C410.862275,31.2988933 409.520853,28.9205175 409.353566,27.6765585 L409.206604,27.4982547 L409.395779,27.634736 C410.155605,27.3568619 410.885727,26.9438461 412.117709,27.2770866 C410.779414,29.3765465 410.876346,31.205574 413.596713,32.1655568 C413.917216,32.278671 414.480051,32.587205 414.484741,32.5797633 C416.329588,29.2732553 420.644653,32.1089996 422.799058,29.542497 C423.454135,28.7631994 423.884078,29.1208488 424.881546,29.5904217 C426.491878,30.3487336 428.741653,30.1336677 430.677179,29.938248 C432.592379,29.7440189 434.254305,30.1201238 435.972514,30.780205 C437.232638,31.2633218 438.649105,31.9061382 439.676278,30.3131622 C439.521498,30.2000479 439.060286,30.5134935 439.190051,29.9997167 C439.34014,30.1189331 439.49023,30.2381496 439.638755,30.357366 Z" id="Shape"></path><path d="M331.853661,39.8963424 C335.892316,37.8048535 340.431476,37.36267 344.742962,37.2463718 C348.30487,37.1493263 352.116166,36.4125624 355.661082,37.9444739 C356.370537,38.2507936 357.009975,37.9936228 357.554378,37.4260627 C358.587486,36.3491698 359.42958,36.9904532 360.235171,37.7776182 L360.20921,37.7530437 C362.828797,37.7466262 365.284906,39.5008034 368,38.4783812 L367.977972,38.5184516 C367.425702,34.8056754 365.951407,33.180788 362.445512,33.9086298 C360.17664,34.3791444 359.304808,33.4315412 358.139218,32.2073581 C357.845461,32.2914121 357.554378,32.3831359 357.255586,32.4477808 C357.229467,32.4529461 357.164485,32.2732552 357.116495,32.1788706 C357.417963,32.1297217 357.71943,32.0807293 358.020897,32.0303282 C358.325039,30.8823729 359.118987,30.2604985 360.239105,29.9890839 L360.196151,30.0407372 C358.631699,27.9724141 357.328278,29.4487592 356.260083,30.5087474 C355.558337,31.2054408 355.311468,32.3533961 354.745036,33.5401697 C351.047971,32.2021928 347.042987,32.5744096 343.483753,33.1368044 C340.15597,33.660381 336.713641,34.8017623 333.3064,35.1871272 C329.461276,35.6239888 326.111307,37.9017426 322.008928,37.4855422 C319.832416,37.2643722 316.861799,37.2721985 316.16792,40.6423412 C316.100263,40.9732353 315.317959,41.5044816 315.115302,41.4115057 C312.550155,40.2259843 309.337861,42.4198406 307.062538,39.8770898 L307.088499,39.9016642 C303.360438,39.6003534 299.63096,39.1428304 296.113264,41.0378802 C293.845808,42.2595589 291.524856,43.3866964 288.823294,43.2743113 C288.489414,43.2600676 288.015028,43.3480347 287.826689,43.5729613 C285.455073,46.3935443 282.145384,45.2831549 279.190501,45.7032684 C277.200911,45.9876746 275.263401,46.5370778 273.787219,48.063824 C273.186959,48.6855418 272.62808,49.3513997 273.319441,50.1980442 C273.882096,50.8897288 274.75141,51.2943463 275.516879,50.7410299 C277.542658,49.2737633 280.296301,49.5090206 282.193531,47.8064967 C282.743126,47.3114076 283.374697,47.0943073 284.121914,47.0722372 C287.621358,46.9714351 288.341198,46.7504216 291.622408,44.8746243 C292.185063,47.7884963 293.930144,47.1058901 295.743038,46.2138534 L295.713143,46.2514194 C296.378385,44.9832528 297.797453,44.0693025 296.919013,42.2284104 C298.829145,42.6602632 298.753778,43.9154383 299.21243,45.1034641 C303.876205,42.7546479 308.802583,43.810723 313.559819,43.2703982 C314.602053,43.1526913 315.900124,43.4798288 316.599352,42.7249081 C319.788203,39.2797899 323.756683,40.2932901 327.621318,40.5816094 L327.800688,40.4329106 L327.632961,40.5944445 C329.965557,41.005636 330.066885,38.7291345 331.099993,37.5553525 C331.813381,38.2792812 331.098734,39.3120341 331.897874,39.856272 L331.853661,39.8963424 Z" id="Path"></path><path d="M578.629508,16.0797204 C578.372053,15.9225988 578.142684,15.8592285 578.058426,15.714689 C577.883669,15.4194724 577.893031,15.0823823 578.309639,14.9974845 C578.471914,14.9645258 578.837032,15.1394155 578.835472,15.2167181 C578.832351,15.4942279 578.712205,15.7705408 578.629508,16.0797204 Z M582.280687,15.4638316 L582.965673,14.0546786 L583,14.0888801 C580.687587,13.0535659 578.175451,13.7518054 575.785021,13.294327 C573.975035,12.9471099 574.109223,15.2876836 572.776699,15.712234 C572.071429,15.1368838 572.938974,14.3993486 572.477115,13.7847487 C572.097954,13.2803794 571.710992,12.906556 571.060333,13.0206072 C570.520458,13.1169209 570.425277,13.4679432 570.428398,14.0267987 C570.43776,15.8833185 569.236304,15.6970435 568.173717,15.0317014 C565.379161,13.2816683 563.506761,13.3209487 560.479716,15.4194724 C560.26595,15.6741811 560.710645,16.2228789 560.07715,16.2862493 C560.2207,16.0062231 560.365811,15.7261969 560.509362,15.4460787 C559.815014,14.2574175 558.875693,14.024267 557.68984,14.7453075 L557.716366,14.7706403 C556.680305,14.0356522 556.076456,14.6059082 555.566227,15.4587528 L555.594313,15.4295994 C550.615291,13.8214974 545.561373,15.2268604 540.544903,15.1596848 C539.705444,15.1482843 538.848821,16.2546408 538,16.8438465 L538.040569,16.7932117 C538.037448,17.0465395 538.035888,17.3000207 538.035888,17.5547294 L538.021845,17.523121 C540.835125,17.369682 543.649965,17.0516029 546.463245,17.5332479 C546.545943,17.0390209 546.307212,16.4231168 547.010922,16.1392547 C547.276179,16.7995027 546.95319,17.1961425 546.442961,17.5166765 C546.458564,17.7410043 546.474168,17.9665596 546.489771,18.1908874 C550.548197,17.0985553 554.533287,19.2212303 558.633842,18.4759771 C559.484223,18.321464 558.544903,19.2022038 558.415395,19.6039071 L558.38887,19.5784362 C559.042649,19.8306899 559.88991,20.2412927 560.384535,19.8154995 C562.785888,17.7422318 565.74896,19.0766907 568.403086,18.5456384 C570.559466,18.1161627 573.054438,18.990458 575.393377,19.2224578 C577.507628,19.4328226 579.200589,18.8397809 581.057386,18.4735221 C582.940707,18.1021997 582.196429,16.5676564 582.313454,15.4283565 C582.194868,15.2876836 581.743932,15.5449241 581.887483,15.0874458 C582.018551,15.2128975 582.149619,15.3383799 582.280687,15.4638316 Z" id="Shape"></path><path d="M344.29618,41.4928269 C343.835773,42.4828569 343.236582,42.9771003 342.145099,42.3624687 C342.716256,41.0848446 343.60041,41.614587 344.314048,41.5111767 L344.433578,41.3695233 L344.29618,41.4928269 Z M352.616001,48.4400151 C354.437757,50.3194088 356.694504,49.9865405 358.888868,49.9625315 L358.857137,49.9951152 C358.452645,47.4796534 356.291244,46.6907848 354.787567,46.4769328 C351.599532,46.020761 348.718178,44.9614477 345.942338,42.896327 C348.417967,42.5253873 350.884662,42.0381752 353.39079,43.335521 C356.221313,44.7999011 359.151033,45.8310896 362.343997,45.3466214 L362.313499,45.4033856 C362.42163,44.5534655 363.336282,43.961471 362.866942,42.6881343 C359.47666,43.1655713 356.62827,41.6939884 353.543437,39.907887 C350.609866,38.2126771 346.802308,39.3527636 343.384146,39.6643667 C342.253231,39.7677771 341.148964,40.3158693 340.001567,39.73365 C339.314577,39.3853473 338.654388,39.357051 338.21416,40.2067996 C337.808281,40.987265 338.025777,41.7435499 338.47879,42.344119 C339.495104,43.6894829 340.024364,45.9797741 342.409575,44.8055604 C342.954084,44.5364876 343.95022,44.6073143 344.391681,45.0024346 C346.821408,47.1750815 349.832612,47.4980032 352.640184,48.4653961 L352.734298,48.3252862 L352.616001,48.4400151 Z" id="Shape"></path><path d="M537.959055,17.6066379 C537.919685,17.0448933 537.990551,16.0814688 537.462992,16.1006635 C535.387402,16.1748708 533.070866,15.3240276 531,17.5349093 C532.811024,17.976435 534.675591,17.5913007 535.847244,18.9756774 L535.825197,19 L536.593701,19 L536.571654,18.9769167 C537.04252,18.7491824 537.511811,18.5200538 537.982677,18.2923195 L537.995276,18.3243882 C537.752756,18.0659795 537.781102,17.8100496 538,17.5553589 L537.959055,17.6066379 Z" id="Path"></path><path d="M522,19.1104945 C523.19161,19.8536132 524.463536,20.2071925 525.992476,19.874353 C526.093238,18.0054336 525.170324,17.2387318 523.918842,17.0315015 C522.819232,16.8491924 522.029206,17.4473001 522,19.1104945 Z" id="Path"></path><path d="M492.08327,30 C492.3644,29.0788534 492.645531,28.1587779 493,27 C491.528648,27.1136897 490.339954,27.4979088 489,28.1448536 C489.702827,29.6056819 491.294882,29.1507702 492.106188,29.9723044 L492.08327,30 Z" id="Path"></path><path d="M528.034774,24.02515 C529.820417,25.84865 532.87531,24.10605 535,24.97485 C532.970939,23.77485 530.321162,24.40335 528,24.05815 L528.034774,24.02515 Z" id="Path"></path><path d="M482,27.6713923 C482.917849,27.9988282 483.608056,29.7739477 484.718944,28.6081018 C485.281673,28.0176173 484.917447,27.0506618 484.345613,26.5208985 C483.09814,25.3683426 482.46803,26.2899291 482.029138,27.7130951 L482,27.6713923 Z" id="Path"></path><path d="M500,25.3240989 C501.542938,25.9244989 502.622243,26.1251989 504,25.4380989 C502.768653,24.9862989 501.621774,25.1035989 500,25.3240989 Z" id="Path"></path><path d="M518.020453,23.4771192 C517.898271,23.8359308 518.330609,24.0223148 519.127145,23.9978661 C519.994171,23.9708439 520.84005,23.8326643 520.990429,23.4182247 C521.075016,23.1893772 520.586286,23.0339747 520.024717,23.009526 C519.113047,22.9677554 518.335308,23.0527813 518.020453,23.4771192 Z" id="Path"></path><path d="M529.419173,17.9987762 C529.727173,17.9102329 529.934173,17.7115328 529.980173,17.4362768 C530.036173,17.1025368 529.809173,16.9427957 529.462173,17.0185342 C529.140173,17.0905494 528.999173,17.3342931 529.012173,17.6282567 C529.022173,17.8487521 529.127173,18.0160308 529.419173,17.9987762 Z" id="Path"></path><path d="M532.965836,21.6124821 C532.086121,21.3456821 531.19573,21.1573821 530,21.4736821 C531.086833,21.9592821 532.083986,21.4629821 533,21.5942821 L532.965836,21.6124821 Z" id="Path"></path><path d="M523.12186,24.1546061 C523.24686,24.4668061 523.29186,24.8575061 523.75986,24.8451061 C523.80886,24.8442061 523.90086,24.7509061 523.89486,24.7129061 C523.82286,24.2620061 523.42686,24.2719061 523.10486,24.1777061 L523.12186,24.1546061 Z" id="Path"></path><path d="M517.4905,17.4905 L517.5095,17.5095 L517.4905,17.4905 Z" id="Path"></path><path d="M530.4915,19.49135 L530.5085,19.50865 L530.4915,19.49135 Z" id="Path"></path><path d="M1014.42911,21.7660714 L1014.56669,21.5841951 L1014.3525,21.5498143 L1014.42911,21.7660714 Z M1034.33633,23.5275326 C1034.42857,23.3825674 1034.52081,23.2374534 1034.61149,23.0936788 C1034.43482,23.018666 1034.23939,22.8613475 1034.08774,22.8931982 C1033.9611,22.9202861 1033.88762,23.171073 1033.79069,23.3209497 C1033.97205,23.3898603 1034.15341,23.4587709 1034.33633,23.5275326 Z M938.181953,16.4313815 C938.369565,16.3638105 938.661927,16.3453549 938.724465,16.2212266 C938.898006,15.8708692 938.640039,15.6409193 938.305464,15.5770691 C938.13505,15.5450696 937.809855,15.6360077 937.759825,15.7516525 C937.606609,16.0957588 937.859885,16.3035323 938.181953,16.4313815 Z M1003.91501,17.9875994 C1004.39968,18.0059061 1005.01254,18.6636076 1005.54098,17.7515472 C1004.9844,17.4565564 1004.49192,17.3139726 1003.91501,17.9875994 Z M1001.53077,17.3102517 C1001.41977,16.632904 1001.36349,16.0380108 1000.47545,15.9211754 C1000.37539,15.9077803 1000.10179,16.2163151 1000.12837,16.3257087 C1000.27221,16.8825002 1000.55675,17.3471628 1001.53077,17.3102517 Z M1011.12557,17.8695733 C1010.0171,16.9795405 1008.96022,16.8886024 1007.20448,17.2032394 C1008.78355,17.7847374 1009.69659,18.6045201 1011.12557,17.8695733 Z M931.704642,14.5506738 C931.83597,15.881883 932.048597,16.7878411 933.405659,17.2745313 C933.927846,15.7110205 933.008546,15.2095957 931.704642,14.5506738 Z M990.86971,16.9907031 C990.952572,16.9119695 991.052632,16.8443984 991.110479,16.7521208 C991.151128,16.6845497 991.13393,16.5849792 991.143311,16.5001433 C991.063576,16.6710057 990.982277,16.8432077 990.902542,17.0152609 C989.862858,17.1185523 988.941995,17.3385303 989.040491,18.6610774 C990.744635,19.0668014 990.578911,17.813016 990.86971,16.9907031 Z M1017.60288,18.2973249 C1018.02188,18.3206919 1018.53313,18.5848739 1018.73012,17.9911714 C1018.77077,17.8646618 1018.56283,17.5241275 1018.43932,17.5093928 C1017.80769,17.4306591 1017.76704,17.9371444 1017.64197,18.3415288 C1017.03692,18.2197819 1016.52099,17.4540262 1015.78774,18.1054767 C1016.21299,18.6685191 1016.12387,19.7600744 1017.273,19.4859205 C1017.47468,19.4379956 1017.49657,18.7115324 1017.60288,18.2973249 Z M1036.60956,23.0039314 L1036.73151,22.9363603 L1036.65021,23.0432238 L1036.53921,23.1194273 L1036.60956,23.0039314 Z M968.360937,20.3573489 C965.798467,20.9229216 963.462696,22.7224845 960.598483,21.6566777 L960.629751,21.686147 C960.984651,20.9830509 960.978397,20.380716 960.059098,20.1202549 C959.32741,19.913672 958.941242,20.3266889 958.86776,20.9376562 C958.741122,22.0180489 958.439379,22.9043608 957.091698,23.0088429 L957.122967,23.0469447 C957.177687,22.60937 957.457542,21.9909609 957.252732,21.7623505 C954.765307,18.9770539 950.612824,17.3754414 947.870559,18.3845421 C944.798409,19.5141991 944.004184,17.8990426 942.432932,16.9082486 C940.955486,17.5363319 942.973881,18.5565953 941.68092,19.3372344 C940.489583,19.7428095 939.537451,17.9395257 938.075639,18.3489706 C937.83487,18.1215508 937.595665,17.8941311 937.354896,17.6667113 C936.953093,16.9463503 936.499697,16.260519 935.47252,16.6870799 C935.144199,16.8234127 934.95815,17.2094905 935.203609,17.5253182 C935.861815,18.374719 936.637279,17.9567906 937.387728,17.6359025 C937.626933,17.8646618 937.864575,18.0932722 938.103781,18.3218826 C937.694161,18.7115324 937.201679,19.4920227 936.890555,19.4305539 C934.410948,18.942673 932.015765,18.0341847 929.437661,19.2683238 C928.952996,19.4994645 928.347947,18.5516837 928.321368,17.8289414 C928.269775,16.2495053 930.039583,17.7441055 930.480472,16.3834567 C927.9352,15.831428 926.079403,13.7406249 922.882178,14.4203688 C920.455727,14.9366325 917.913582,13.8537096 915.437101,13.4689714 C911.802115,12.9059884 908.157748,11.4186662 904.125649,13.3915475 C902.202624,14.3318865 898.94599,15.0411146 896.541427,12.9871183 C896.305348,12.7609488 896.067706,12.5335588 895.831627,12.3073744 C895.440768,11.8562558 894.974865,11.6374536 894.412028,11.9963838 C894.313532,12.0590731 894.279136,12.4327529 894.360435,12.4954422 C894.915454,12.9293555 895.362597,12.4302972 895.853515,12.2852427 C896.091157,12.5101917 896.330363,12.7351557 896.569568,12.9600899 C894.834156,14.3970315 893.054967,15.4922332 890.892736,13.6263048 L890.928695,13.6607303 C889.466884,12.5015891 890.145414,11.0105609 890.23453,9.60928018 L890.203261,9.63877926 C891.984014,8.96763798 893.750695,8.38868505 895.153096,10.2939506 L895.135899,10.2755099 C898.658317,9.16308799 902.097874,9.85390525 905.671887,10.263231 C908.989496,10.6442782 912.207045,11.6706586 915.569993,11.6534533 L915.530907,11.6153367 C916.248524,12.371299 916.967704,13.3448282 917.691574,11.6177925 L917.657179,11.6497473 C922.963477,12.3479468 928.276029,11.9103573 933.677697,13.2010239 C939.989283,14.7092425 946.590106,16.101861 953.305059,15.5401581 C954.441676,15.4443084 955.592364,15.239065 956.427238,16.4657624 C957.071374,17.4110129 958.236133,17.2794429 959.274253,17.0238933 C963.170333,16.0637593 963.16877,16.0564664 966.209651,18.7987497 C967.063286,16.304723 968.892505,16.2088733 971.222023,16.6391551 C972.76357,16.9243228 974.450516,16.4989526 976.070235,16.3760149 C978.065178,16.2261382 979.961624,16.3231785 981.934679,16.9598943 C983.863958,17.5830661 986.027752,17.7674726 987.766292,16.1032005 C988.158714,15.7257552 988.737185,15.4036764 989.278133,15.3066361 C991.931282,14.8321653 994.464047,14.161024 997.039024,13.2932122 C999.601494,12.4290767 1002.95975,12.9342671 1005.99282,13.3583424 C1011.69154,14.1536418 1017.39807,15.0091151 1022.92951,16.4386744 C1026.09859,17.2574153 1029.9634,16.741107 1032.43832,19.9690386 C1032.81823,17.8240298 1034.25816,17.4724818 1036.01702,17.9273213 C1037.0442,18.1928427 1038.05105,18.5615068 1037.32718,20.0415212 C1036.91131,20.894643 1037.11142,20.9830509 1038.7499,20.9954042 C1039.00631,21.2485724 1039.06728,21.7538669 1039.63794,21.6161946 C1039.58791,21.0457104 1039.04383,21.1932058 1038.72176,21.0248735 C1039.72549,19.3482482 1040.83709,18.67224 1042.979,19.7477211 C1044.4283,20.4767145 1046.43575,19.957876 1047.91789,21.0297851 L1047.87567,20.9818602 C1048.08674,21.6283991 1048.12426,22.1963531 1047.20496,22.3328347 L1047.23623,22.3646854 C1046.97514,22.3634947 1046.71404,22.3634947 1046.45139,22.3623041 L1046.47953,22.3352161 C1040.76674,21.7034119 1036.40788,25.4832234 1031.25949,27 C1031.11878,25.623277 1032.3492,25.9318118 1032.63844,25.051751 C1031.691,24.584707 1030.53093,24.2011594 1031.28919,22.5663567 C1031.79262,21.4771828 1031.06562,19.9788617 1029.48655,20.9855811 C1027.35872,22.3413183 1025.20118,21.2658372 1023.09679,21.6112831 C1022.09307,21.7758945 1021.04088,20.5552993 1020.19975,22.5208132 C1019.70101,23.6860418 1018.07191,22.0659737 1016.48346,21.0592544 C1017.4356,23.4008741 1016.13326,23.8533322 1014.71053,24.0020183 C1013.94132,24.0831333 1012.3857,25.0861318 1012.70464,23.0027407 C1012.78125,23.0740326 1012.84691,23.1612499 1012.93603,23.2117049 C1013.00169,23.2498066 1013.09706,23.2411742 1013.17836,23.252188 C1013.00795,23.1820868 1012.8391,23.1121344 1012.67025,23.0420331 C1012.58426,21.114621 1010.49551,19.8510125 1007.9862,20.5798571 C1005.12355,21.4133326 1002.2609,20.5073745 999.337274,20.9584931 C997.139084,21.2990274 998.478948,18.9204966 998.646235,17.6765344 L998.793198,17.4982302 L998.604023,17.6347118 C997.844193,17.3569859 997.114069,16.943969 995.882082,17.2770615 C997.220383,19.3765268 997.125013,21.2055591 994.403073,22.1655443 C994.084132,22.2786588 993.519732,22.5871936 993.515042,22.5797519 C991.670189,19.2732354 987.355108,22.108987 985.200695,19.5424778 C984.547179,18.7631781 984.117234,19.1208284 983.1182,19.5904026 C981.507862,20.3488653 979.258079,20.13365 977.322546,19.9382298 C975.407338,19.7440002 973.745407,20.1202549 972.027192,20.7803377 C970.768627,21.263307 969.352155,21.9062739 968.323415,20.3131449 C968.478195,20.2000304 968.939408,20.5134767 968.809643,19.9996986 C968.659553,20.1189154 968.509463,20.2381321 968.360937,20.3573489 Z" id="Shape"></path><path d="M1076.14631,31.8964789 C1072.10732,29.8048297 1067.56956,29.3626454 1063.2568,29.246347 C1059.69614,29.1494578 1055.88373,28.4125361 1052.3388,29.9444504 C1051.62919,30.2507706 1050.99038,29.9935994 1050.44597,29.4260382 C1049.41223,28.3492999 1048.57045,28.990428 1047.76486,29.7777508 L1047.7916,29.7531763 C1045.17185,29.7466023 1042.71573,31.5009391 1040,30.4783586 L1040.02203,30.5184291 C1040.5743,26.8058027 1042.0486,25.1807558 1045.55419,25.908599 C1047.82307,26.3791144 1048.69475,25.4315095 1049.86066,24.2073242 C1050.15489,24.2913784 1050.44597,24.3832588 1050.74492,24.4477473 C1050.7701,24.4530691 1050.83618,24.2732214 1050.88339,24.1789931 C1050.58286,24.1298442 1050.28076,24.0806952 1049.97867,24.030294 C1049.67499,22.8823366 1048.88199,22.2604611 1047.76171,21.989046 L1047.80419,22.0408559 C1049.36818,19.9723725 1050.67255,21.4487203 1051.7409,22.5087104 C1052.44108,23.2055616 1052.6881,24.353519 1053.25454,25.5401382 C1056.95209,24.2021589 1060.95646,24.5745329 1064.51712,25.1367722 C1067.84491,25.6603497 1071.286,26.8018896 1074.69404,27.1870986 C1078.53949,27.6239611 1081.88931,29.901719 1085.99123,29.4855179 C1088.16728,29.264504 1091.13791,29.2721737 1091.83179,32.6423225 C1091.89945,32.9732172 1092.68301,33.504621 1092.88441,33.4114884 C1095.45067,32.2261214 1098.66203,34.4198251 1100.9372,31.8770697 L1100.91203,31.9016442 C1104.63947,31.6003328 1108.37007,31.142809 1111.88667,33.0378622 C1114.15398,34.2595431 1116.47478,35.3868392 1119.17793,35.2742974 C1119.51149,35.2600536 1119.98509,35.3480209 1120.1739,35.5729479 C1122.54506,38.3936925 1125.85554,37.2831446 1128.81044,37.7032588 C1130.79925,37.9876655 1132.73771,38.5370697 1134.21358,40.0638187 C1134.81306,40.6856942 1135.37162,41.3513968 1134.68089,42.1980428 C1134.1176,42.8897286 1133.24907,43.2943468 1132.48439,42.7410294 C1130.45782,41.2737602 1127.70432,41.5090179 1125.80677,39.8066474 C1125.25764,39.311401 1124.62513,39.0943002 1123.87932,39.0722302 C1120.37845,38.9714278 1119.65939,38.7504139 1116.3788,36.8747698 C1115.81552,39.7884905 1114.07059,39.1058831 1112.258,38.2140013 L1112.2879,38.2514109 C1111.62234,36.9832419 1110.20311,36.06929 1111.08108,34.2285511 C1109.17094,34.6602482 1109.24646,35.9154255 1108.7886,37.1034534 C1104.12339,34.754633 1099.19857,35.8108665 1094.44053,35.2703843 C1093.39892,35.1528337 1092.10084,35.4798153 1091.40067,34.7248932 C1088.21291,31.2797687 1084.24316,32.2932708 1080.37882,32.5815906 L1080.19945,32.4328915 L1080.36781,32.5945822 C1078.03442,33.005618 1077.93372,30.7291123 1076.89998,29.5553282 C1076.18722,30.2792583 1076.90155,31.3121695 1076.10225,31.8564084 L1076.14631,31.8964789 Z" id="Path"></path><path d="M828.370341,8.0797006 C828.629347,7.92256317 828.857148,7.85920799 828.941403,7.71474467 C829.117714,7.41948097 829.106792,7.08238966 828.690198,6.99747622 C828.527929,6.96453275 828.162824,7.13942314 828.164384,7.21671063 C828.167505,7.49423671 828.287646,7.77050459 828.370341,8.0797006 Z M824.719289,7.46384034 L824.034326,6.05468235 L824,6.08888402 C826.312333,5.05355077 828.824382,5.75180805 831.214729,5.29432808 C833.024652,4.94710976 832.892029,7.28769176 834.222946,7.71221291 C834.928193,7.13689138 834.060678,6.39935358 834.52252,5.78473618 C834.901668,5.28038043 835.288617,4.90655569 835.939253,5.0206073 C836.47911,5.1169213 836.574287,5.46794492 836.571166,6.02680239 C836.561804,7.88328265 837.763219,7.69700706 838.825769,7.03170858 C841.620228,5.28166932 843.492563,5.32094984 846.519503,7.41948097 C846.733262,7.6741906 846.288582,8.22289037 846.923616,8.2862609 C846.77851,8.00620306 846.634964,7.72614522 846.489858,7.44608739 C847.184182,6.25742201 848.12347,6.02425529 849.309282,6.74531369 L849.284317,6.77064656 C850.320343,6.03565585 850.92261,6.60591388 851.432821,7.45874615 L851.404736,7.42960798 C856.383586,5.82150029 861.437329,7.22685298 866.453625,7.1596925 C867.293055,7.14829194 868.149648,8.25457564 869,8.84384482 L868.957872,8.79316374 C868.960993,9.04659982 868.962553,9.30005124 868.962553,9.55476087 L868.976596,9.52309095 C866.163413,9.36975882 863.34867,9.05167867 860.535488,9.53321796 C860.452793,9.03900456 860.691516,8.42311362 859.98783,8.13926583 C859.722582,8.79948545 860.04556,9.19614199 860.555771,9.51673855 C860.540169,9.74105181 860.526126,9.96660792 860.508963,10.1909058 C856.450678,9.09855445 852.467286,11.2211756 848.365313,10.4760425 C847.514961,10.3214368 848.455809,11.2021644 848.583752,11.6038691 L848.610277,11.5785209 C847.95652,11.8306988 847.109289,12.2412876 846.61468,11.8154929 C844.213411,9.74231001 841.250442,11.0766969 838.596408,10.5457348 C836.440103,10.1161347 833.945217,10.9905253 831.606359,11.2224338 C829.492181,11.432784 827.799279,10.8397402 825.942547,10.4735108 C824.059291,10.1022178 824.803544,8.56759228 824.686523,7.42834978 C824.805104,7.28769176 825.256024,7.54491779 825.114039,7.08745316 C824.981415,7.21290533 824.850352,7.33838818 824.719289,7.46384034 Z" id="Shape"></path><path d="M1063.70353,32.4927989 C1064.16409,33.4828322 1064.76328,33.9772487 1065.85538,33.3624436 C1065.28391,32.0849868 1064.39976,32.614731 1063.68659,32.5113203 L1063.56644,32.3696664 L1063.70353,32.4927989 Z M1055.38418,39.44001 C1053.56197,41.3194098 1051.30538,40.9865405 1049.1104,40.9625314 L1049.14275,40.9951152 C1049.54785,38.4796451 1051.70894,37.6907739 1053.21231,37.4769213 C1056.4008,37.0209194 1059.28123,35.9614312 1062.05691,33.8964751 C1059.5816,33.5253627 1057.11552,33.038149 1054.60939,34.3354991 C1051.77826,35.8000555 1048.84854,36.8310759 1045.65543,36.3467776 L1045.68624,36.4033705 C1045.57841,35.5536191 1044.66345,34.9614512 1045.13326,33.6882817 C1048.52353,34.1655488 1051.37161,32.6939611 1054.4569,30.9080254 C1057.3897,29.2126383 1061.19741,30.3527287 1064.61541,30.6643328 C1065.74602,30.7677435 1066.85044,31.3158374 1067.99798,30.7337877 C1068.68497,30.3853125 1069.34578,30.357016 1069.78631,31.2067674 C1070.19142,31.9872354 1069.97423,32.7435228 1069.52138,33.3440938 C1068.50476,34.6896336 1067.97488,36.9797609 1065.59044,35.8057148 C1065.04516,35.5366412 1064.05011,35.6072966 1063.60803,36.0025896 C1061.17892,38.1752437 1058.16757,38.4981664 1055.35954,39.4655626 L1055.26558,39.3252807 L1055.38418,39.44001 Z" id="Shape"></path><path d="M870.040936,7.60662354 C870.080297,7.04492887 870.009447,6.08146821 870.536887,6.10066337 C872.612011,6.17487226 874.928025,5.3240108 877,7.53497091 C875.187809,7.9763976 873.325236,7.59125502 872.152272,8.97567684 L872.174314,9 L871.405983,9 L871.428025,8.97696271 C870.957265,8.74920804 870.488079,8.52018299 870.017319,8.29242832 L870.004723,8.32443574 C870.247188,8.06597501 870.218848,7.81005505 870,7.55543645 L870.040936,7.60662354 Z" id="Path"></path><path d="M886,10.1104477 C884.807307,10.8536053 883.535782,11.2072207 882.007324,10.8743285 C881.908055,9.00536197 882.829217,8.23870468 884.080304,8.03150633 C885.179567,7.84917915 885.969343,8.44730798 886,10.1104477 Z" id="Path"></path><path d="M915.91638,23 C915.635357,22.0787474 915.354334,21.1587188 915,20 C916.47079,20.1136839 917.660557,20.4978834 919,21.1449482 C918.297442,22.605702 916.704467,22.1508135 915.893471,22.9721528 L915.91638,23 Z" id="Path"></path><path d="M879.965226,16.0251 C878.179583,17.8486 875.12469,16.106 873,16.9749 C875.029061,15.77487 877.680576,16.4034 880,16.0581 L879.965226,16.0251 Z" id="Path"></path><path d="M925,19.6713159 C924.083973,19.998746 923.391944,21.7738341 922.281056,20.608238 C921.718327,20.017764 922.082553,19.0508256 922.654387,18.5208425 C923.90186,17.3683069 924.53197,18.2901062 924.970862,19.713018 L925,19.6713159 Z" id="Path"></path><path d="M907,16.3240432 C905.457062,16.9245432 904.377757,17.1252432 903,16.4380432 C904.231347,15.9863432 905.378226,16.1035432 907,16.3240432 Z" id="Path"></path><path d="M889.978921,15.4771014 C890.103446,15.8360129 889.668784,16.0223975 888.872293,15.9978498 C888.005316,15.9708275 887.159486,15.8327465 887.009116,15.4182363 C886.926882,15.1893386 887.413235,15.0340148 887.974773,15.0094968 C888.88874,14.9678053 889.664084,15.0528216 889.978921,15.4771014 Z" id="Path"></path><path d="M879.580384,8.998776 C879.272384,8.9102801 879.065384,8.71152986 879.019384,8.43627993 C878.963384,8.10252918 879.190384,7.94279159 879.537384,8.01853754 C879.860384,8.09054205 880.000384,8.33428943 879.988384,8.62829195 C879.977384,8.84879157 879.872384,9.0160302 879.580384,8.998776 Z" id="Path"></path><path d="M876.034164,13.6124375 C876.913879,13.3456775 877.806406,13.1573775 879,13.4736875 C877.913167,13.9593075 876.916014,13.4629475 876,13.5942675 L876.034164,13.6124375 Z" id="Path"></path><path d="M884.87914,16.1546311 C884.75314,16.4667811 884.70814,16.8574811 884.24014,16.8450811 C884.19114,16.8442811 884.09914,16.7508811 884.10514,16.7129811 C884.17714,16.2619811 884.57314,16.2718811 884.89514,16.1777611 L884.87914,16.1546311 Z" id="Path"></path><path d="M889.5095,9.4905 L889.4905,9.5095 L889.5095,9.4905 Z" id="Path"></path><path d="M876.5085,11.49133 L876.4915,11.50867 L876.5085,11.49133 Z" id="Path"></path><path d="M713.717197,5.61666088 C713.642529,5.78084283 713.611418,6.01169007 713.479194,6.08946125 C713.368748,6.15611159 713.143189,6.04995535 712.968964,6.02032965 C713.040521,5.85366644 713.070077,5.62036783 713.200745,5.54137096 C713.312747,5.47346504 713.539861,5.58332824 713.717197,5.61666088 Z M803.976476,2.56502005 C804.116478,2.41689158 804.242479,2.16875023 804.405815,2.14159085 C804.804043,2.07494051 805.077825,2.27862837 804.914489,2.68971104 C804.858488,2.83290688 804.552039,2.96623745 804.371592,2.95513155 C804.23159,2.94525134 804.107144,2.70452389 803.976476,2.56502005 Z M729.039636,5.18829905 C728.810967,5.43518482 728.568296,5.67097964 728.190291,5.48210463 C728.13429,5.45494525 728.14829,5.30064351 728.129624,5.20557822 C728.44385,5.2105258 728.759632,5.21545843 729.075415,5.22039106 L729.039636,5.18829905 Z M738.841331,4.51057019 L738.768219,4.63402055 L738.875554,4.5463542 L738.965777,4.44637122 L738.841331,4.51057019 Z M666.016966,16.6220832 C669.316346,16.7331422 672.159942,14.9789184 675.362876,14.4814399 C677.826911,14.0975166 680.522727,14.6135299 682.821871,13.2630048 L682.84676,13.3000444 C682.607201,13.051918 682.633646,12.8062579 682.851427,12.5618384 L682.796981,12.6186085 C682.960317,12.4433207 683.150098,12.406296 683.367878,12.5087603 C683.464324,12.5828245 683.552992,12.6655283 683.62766,12.7618193 L683.647882,13.0457447 L683.517214,13.304977 L683.542103,13.2667267 C684.231224,14.4579875 685.170793,15.0246574 686.393477,14.5839042 C687.552382,13.486453 684.301225,12.9618002 686.343698,11.9458273 L686.315698,11.9186529 C686.838372,12.6951391 687.673717,12.5605978 688.44995,12.5902235 L688.418839,12.6124502 L689.842192,11.2273519 L689.801747,11.269339 C690.290199,10.7780189 690.780206,10.7014734 691.270213,11.2656321 L691.231323,11.2421796 C692.142892,11.2779786 693.090238,10.8903484 693.962917,11.3396963 C699.121213,13.9938267 704.872183,14.9826552 710.299593,16.8455464 C713.102744,17.8071109 716.128342,18.7946839 718.572155,20.6883667 L718.536377,20.6562298 C720.267734,20.1303812 721.773534,20.811832 723.171998,21.6080786 C724.494239,22.3599315 725.706034,21.9771292 726.070039,20.9106341 C726.404488,19.9303854 727.476281,18.5120291 725.524031,17.5256519 C723.056885,16.2775462 720.661296,14.9406681 717.834811,14.5974913 C717.833255,14.8382188 717.828589,15.0801121 717.825478,15.3221101 C718.338818,15.3505101 718.984383,15.0789163 719.155496,15.860365 C719.171052,15.9319629 719.065273,16.085024 718.984383,16.1122283 C718.198816,16.3664831 718.033925,15.8232955 717.869034,15.2899732 C717.869034,15.0678553 717.870589,14.8468434 717.870589,14.6258764 C716.770796,14.3049114 715.79856,15.2986427 714.354984,13.9123486 C712.804073,12.4248009 709.683584,12.5260245 707.263106,11.8853352 C705.368412,11.3841349 703.584165,10.6459289 701.703471,10.2447265 C701.502802,8.9867854 702.751931,9.12998124 703.165714,8.55225031 L703.142381,8.57694337 C706.233313,10.0570921 709.571583,10.6977664 712.939408,11.244646 L712.91763,11.2668578 C712.99852,11.216246 713.085633,11.1187143 713.1603,11.1261282 C713.336081,11.144648 713.505639,11.2137796 713.678308,11.2631658 L713.658085,11.240939 C714.846546,9.86942781 716.011674,10.5311032 717.175246,11.2779637 C717.371249,10.7471376 716.884353,9.87068339 718.15526,9.76080525 C718.270373,10.5879032 717.696365,10.9150414 717.141023,11.2508192 C717.512806,12.3026061 718.186372,12.2593783 719.00305,11.7334998 C720.053065,11.0582373 721.073524,10.3298966 722.171761,9.73364587 C724.086677,8.69544615 725.903592,7.98807664 728.25407,9.15712567 C730.150319,10.0990344 732.479018,10.0410386 734.675494,9.88548129 L734.642827,9.91512193 C735.358393,8.48065239 735.719287,9.55216981 736.203071,10.100275 C736.965304,10.9668789 737.217308,12.4828266 738.814886,12.3544436 C742.454938,12.0569311 744.985862,14.4802142 747.972571,15.749306 C749.587261,16.4368852 751.096171,17.1392623 752.895974,16.6220832 L752.724861,16.494881 L752.861752,16.6554158 C752.933308,15.3381038 752.550636,14.3283639 751.573733,14.1493691 C748.378577,13.5642242 745.525648,12.7284867 743.612287,9.7682042 C742.923166,8.70286004 740.524466,9.32872152 739.077779,7.57700892 C743.299616,8.16462007 747.054781,7.95598463 750.809945,7.8597086 L750.758611,7.89426692 C751.28284,6.41906579 752.024851,5.45370462 753.735986,6.69681788 C754.533998,7.27578945 755.478233,7.15851236 756.389802,7.191845 L756.354023,7.22765891 C755.781571,6.54129046 755.458011,5.36113553 756.733584,5.79936263 C760.731419,7.17087383 764.419693,6.05859493 768.146857,5.06114174 C769.728879,4.63771255 770.481779,5.58826087 771.452459,6.35610745 C772.126025,6.88815921 772.197581,6.86842868 773.214929,5.8339359 C773.725158,5.31299004 774.247832,5.3784147 774.761173,5.64999353 C776.091192,6.35734808 777.436766,6.25612447 778.810341,5.84626749 L778.766785,5.88701403 C778.881898,5.07102196 779.014122,4.30934865 780.225917,4.65993929 C782.833065,5.41421366 785.404435,5.25988202 788.122029,4.96731708 C790.183169,4.74635006 792.303421,5.56850044 794.537231,4.73029658 C795.745915,4.27600106 796.383701,5.31420078 795.590357,6.56102099 L795.621468,6.53016962 C799.357966,4.7907886 803.082019,7.29306861 806.813849,6.55608836 C807.196521,6.1227939 807.608749,5.84502686 808.134535,6.3635064 C808.195202,6.42275779 808.226314,6.6042488 808.182758,6.64991303 C807.655417,7.19679258 807.235411,6.68572693 806.781182,6.50178455 C806.645847,7.34740232 807.09852,7.73255129 807.912087,7.83624122 C808.798766,7.94982631 809.414775,8.37077425 809.629445,9.24231075 L809.603,9.21763264 C810.499013,8.96209234 811.507027,8.71643226 811.681252,7.70663254 C811.829031,6.85113457 810.905018,6.76967138 810.295232,6.52030435 L810.334121,6.55732899 C810.55968,6.10180779 810.786794,5.64627163 811.013909,5.19075042 L810.998353,5.2031119 C811.248801,5.20557822 811.499249,5.20802958 811.749697,5.21173653 L811.724808,5.1845921 C813.190162,5.96849216 814.699072,6.21536298 816.410207,6.01784839 C818.342235,5.79441505 820.322485,5.62652615 822.212512,6.54498246 C824.572323,7.69057907 826.467017,6.43511927 828.243486,5.15496641 C829.48017,4.26244379 829.113054,3.06992738 827.776813,3.08720654 C824.216096,3.13288572 820.596267,2.66870998 817.097773,3.68716422 C816.86288,3.75505519 816.758657,4.24021704 816.593766,4.5315563 L816.623322,4.50315629 C815.122189,3.9772778 816.161315,2.22182835 814.823518,1.40461209 C813.922839,1.53545991 812.809045,1.69594986 811.695252,1.85766549 L811.735697,1.81940022 C811.587917,1.99098112 811.345247,2.32924018 811.304802,2.30947975 C806.393843,-0.26193037 801.028656,0.83675689 795.850138,0.625661112 C793.647441,0.536779545 791.446298,0.660232892 789.270045,0.203475536 C788.710037,0.0862008349 787.865359,-0.139719 787.579132,0.119521371 C785.413768,2.08604641 783.147292,0.925647425 780.89326,0.475063334 C780.712813,0.493580141 780.65059,0.961434427 780.370586,0.600966556 C780.5557,0.571339367 780.740813,0.542948326 780.925927,0.513319642 C780.824814,0.457769223 780.703479,0.333097665 780.6257,0.35531843 C776.592088,1.50462348 772.399806,-0.647083828 768.398861,0.881199915 C766.798171,1.49226648 764.998368,1.1552615 763.640349,0.868862353 C760.974089,0.304706623 758.780724,-0.448339066 756.215577,1.46016401 C755.069116,2.31565302 752.972198,1.21204658 751.149061,1.35030829 C747.768791,1.60460646 744.312297,2.13420685 740.750025,1.76014883 C735.254169,1.18365553 729.5872,0.88120141 724.488016,4.34514761 C722.926217,5.40679976 720.1744,5.40804039 718.099259,5.09571502 C713.882088,4.45995838 709.820475,5.15989904 705.783751,5.85121507 C702.717708,6.37709356 699.461884,5.05250216 696.630733,6.65239429 C694.885375,7.63874157 692.572231,6.47955781 691.119322,8.3633753 C690.385089,9.31516425 689.629078,7.9177343 688.631953,7.99302422 C685.83658,8.20536661 683.299433,9.31885625 680.689174,9.98794554 C678.285806,10.6039417 675.381543,9.66573995 673.317292,12.1458082 C672.432168,13.2099266 671.464599,11.5248644 670.904591,10.5706091 L670.937258,10.6014904 C670.220137,10.8101109 669.50146,11.0174907 668.782783,11.2248855 C668.824783,11.5285713 668.86834,11.8322422 668.91034,12.1371686 C668.809228,12.132221 668.647448,12.164328 668.619447,12.1186488 C668.401666,11.7729908 668.614781,11.5088258 668.835673,11.2545112 C666.906756,10.2903907 665.992077,12.3643089 664.455166,12.6050363 C659.545763,13.3716423 654.645694,14.1814611 649.737846,14.9530594 C648.964724,15.0739837 647.966044,14.8172327 648.000887,16.0394346 C648.032933,17.0108644 648.740721,17.5232603 649.625845,17.4207213 C651.305869,17.2244623 652.833446,17.9380499 654.451247,17.9812478 C656.322606,18.0293784 658.155077,18.1639048 660.057548,19.6057284 C658.914199,17.5725867 660.760669,16.8380727 660.995561,14.9937163 C662.188689,16.9232727 663.593376,17.4232624 665.329401,16.6270158 L665.310734,16.6491379 C665.461625,16.1504935 665.2874,15.1999901 665.970299,15.3183733 C666.891201,15.478908 666.088522,16.187563 666.038744,16.6590032 L666.016966,16.6220832 Z" id="Shape"></path><path d="M613.253204,17.1354528 C613.206711,17.2273995 613.183464,17.3566811 613.105975,17.3989941 C613.047084,17.4316439 612.920002,17.3566811 612.822366,17.3301805 C612.868859,17.2382339 612.892106,17.1076346 612.966495,17.0664929 C613.028486,17.033843 613.155568,17.1088059 613.253204,17.1354528 Z M619.996285,20.0737915 C619.914147,20.0483158 619.832009,20.0218153 619.749871,19.9951683 C619.810312,19.8560771 619.864554,19.713472 619.943593,19.584044 C619.952892,19.5695492 620.10477,19.6323599 620.188458,19.6590068 C620.124917,19.798098 620.059826,19.9358715 619.996285,20.0737915 Z M621.476323,18.649351 C621.623552,18.7629665 622.040442,18.4752673 621.949005,18.9371966 C621.801776,18.8295839 621.654547,18.7218248 621.507318,18.6155298 C621.350791,18.5079171 620.862611,18.8077685 621.047035,18.2817109 C621.191164,18.4038184 621.332194,18.5272435 621.476323,18.649351 Z M627.053972,17.9878624 L627.224447,18.0871296 L627.094266,17.9480384 L627.053972,17.9878624 Z M612.400827,19.9347002 C614.172222,20.6893067 615.656909,22.45108 617.955229,21.3228306 C616.042803,21.2455252 615.952916,19.9551979 615.937419,18.6167011 L615.794839,18.5162626 L615.900224,18.6505223 C616.13734,18.646862 616.376006,18.6445194 616.611572,18.6408591 C617.126098,18.3494996 617.583282,17.8114362 618.310128,18.2986947 C617.812649,18.9045467 617.141596,18.4776099 616.580576,18.6022064 C616.458144,19.779943 617.200487,20.5235685 618.048215,21.2152179 C618.841701,21.8948616 619.75297,22.1547425 620.808369,21.9093563 L620.783572,21.9335143 C623.320558,21.6081872 625.855994,21.5720235 627.892401,19.5368994 C628.616147,18.8126001 629.265504,19.6916566 628.499914,20.6178577 L628.465819,20.5865256 C629.091929,20.8500669 629.955155,21.3699752 630.373595,20.7811069 C631.920273,18.5997174 633.993875,19.2901955 636.171312,19.3421716 C638.523874,19.3989794 641.160045,19.8912159 643.149959,17.9648757 L643.122063,17.9903514 C644.157315,17.5307647 645.332046,17.2599029 646,15.9310693 C643.308037,14.2164406 640.380507,15.4474711 637.795479,15.7025205 C629.983051,16.4764533 622.286856,15.842783 614.551918,15.0725104 C611.715825,14.7908141 608.921576,16.0520054 606.034341,15.6190657 C605.594204,15.5514235 605.164916,15.4244844 604.729429,15.3252172 L604.760424,15.3555245 C604.518659,14.9068894 604.275344,14.457083 604.033579,14.0084626 L604.059925,14.0338651 C601.972375,14.8718238 599.703501,14.6735236 597.646946,14.4014465 C593.02706,13.7908068 588.405623,14.6795704 583.819832,14.0302487 L583.850828,14 C583.643158,14.1729123 583.437037,14.3446388 583.227817,14.5175511 C583.147229,14.64572 583.07129,14.7775199 583,14.9117503 C584.246021,16.5079318 586.505596,16.2164259 588.016629,17.3191997 L587.960837,17.2853785 C588.910851,16.8356015 589.984847,16.3373621 590.959657,16.7303314 C594.373816,18.103967 598.124277,17.058001 601.544636,18.1729269 C602.383066,18.4461314 603.387321,17.839108 603.855354,18.0604827 C606.582962,19.3518348 609.93823,17.9940117 612.442671,19.973353 L612.400827,19.9347002 Z" id="Shape"></path></g></g></g></svg>