<svg xmlns="http://www.w3.org/2000/svg" xmlns:xlink="http://www.w3.org/1999/xlink" width="52px" height="48px" viewBox="0 0 52 48"><title>flower</title><g id="Home-1" stroke="none" stroke-width="1" fill="none" fill-rule="evenodd"><g id="De-bebe---Home-1-" transform="translate(-694.000000, -5156.000000)" fill-rule="nonzero"><g id="Group-28" transform="translate(128.000000, 4997.000000)"><g id="Group-26" transform="translate(443.500000, 159.000000)"><g id="flower" transform="translate(122.500000, 0.000000)"><g id="Group" fill="#99B8BA"><path d="M26.0407599,48 C22.2480875,48 20.685173,38.5796345 20.1642015,33.9843342 C18.1219933,36.4908616 13.8500271,41.0234987 9.66141627,41.0234987 C8.93205619,41.0234987 8.22353496,40.8772846 7.55669146,40.6057441 C6.22300444,40.0626632 5.82706611,39.1227154 5.72287181,38.4334204 C5.24357804,35.1749347 10.7033593,29.7859008 13.7666716,27.0287206 C10.4532929,27.2375979 4.45170138,27.2167102 1.57593876,24.1671018 C0.429801479,22.9556136 -0.0911700107,21.3890339 0.0130242872,19.5509138 C0.138057445,17.3994778 1.4509056,14.8302872 7.07739769,14.8302872 C10.5574872,14.8302872 14.5168706,15.8120104 16.6632731,16.4177546 C15.496297,13.3472585 13.2457001,6.49608355 14.89197,2.7154047 C15.4129415,1.50391645 16.2673348,0.689295039 17.4343109,0.27154047 C17.9552824,0.0835509138 18.4762539,0 18.9763865,0 C23.6442911,0 26.1032765,7.54046997 27.1035417,11.6344648 C28.7706505,8.08355091 32.4174509,1.69190601 37.0436778,1.69190601 C37.7313601,1.69190601 38.4190425,1.8381201 39.1067249,2.10966057 C40.3987342,2.65274151 41.2322885,3.5926893 41.5657103,4.88772846 C42.5242978,8.60574413 38.9191751,14.5796345 36.6685783,17.8381201 C38.8983363,17.0234987 42.2117149,16.0417755 45.1916719,16.0417755 C49.7137044,16.0417755 51.2974577,18.3394256 51.8392681,20.2402089 C52.1726898,21.4099217 51.9851401,22.5169713 51.2974577,23.4986945 C49.2760883,26.4020888 43.0452693,27.6971279 37.4396161,28.2819843 C40.5446062,30.7049608 44.6707004,35.926893 44.9624444,39.3315927 C45.1291553,41.3159269 44.1080512,42.5900783 42.0658429,42.9660574 C37.002,43.8851175 33.5010716,39.2062663 31.6880909,35.7806789 C31.5005411,39.8955614 30.625309,46.0992167 27.1660583,47.7284595 C26.7909589,47.9164491 26.4158594,48 26.0407599,48 C26.0407599,48 26.0407599,48 26.0407599,48 Z M20.7476896,31.1644909 C20.8102062,31.1644909 20.8727227,31.1644909 20.9560782,31.1853786 C21.2686611,31.2689295 21.4978885,31.54047 21.5395662,31.8746736 C22.0396989,37.7441253 23.8110019,46.4334204 26.0615988,46.4334204 C26.2074708,46.4334204 26.3533428,46.3916449 26.5200537,46.308094 C29.9584655,44.6997389 30.3127261,35.5718016 30.1668541,32.2088773 C30.1460152,31.8120104 30.4169204,31.4778068 30.7920199,31.3942559 C31.1671194,31.310705 31.5422188,31.54047 31.667252,31.9164491 C31.7089297,32.0208877 35.3974079,42.5900783 41.7949378,41.4203655 C43.0035916,41.2114883 43.4828854,40.6475196 43.4203688,39.5613577 C43.1911413,35.6344648 36.3143177,28.5953003 34.9597918,28.5117493 C34.1262374,28.5117493 33.9803654,28.0313316 33.9803654,27.7597911 C33.9595265,27.0078329 34.6888866,26.9451697 35.084825,26.924282 C43.086947,26.3394256 48.5258894,24.772846 50.0262873,22.6214099 C50.4430645,22.0156658 50.5472588,21.4099217 50.3388702,20.6788512 C49.7553821,18.6109661 48.0674345,17.6083551 45.1916719,17.6083551 C40.5862839,17.6083551 34.7930809,20.2819843 34.7305644,20.3028721 C34.3971426,20.4490862 34.0220431,20.3655352 33.7928157,20.073107 C33.5635882,19.7806789 33.5635882,19.383812 33.7928157,19.0913838 C35.8558628,16.4804178 40.9822222,8.93994778 40.0444735,5.26370757 C39.836085,4.44908616 39.3359523,3.88511749 38.5023979,3.55091384 C38.0231042,3.34203655 37.5229715,3.23759791 37.0436778,3.23759791 C32.709195,3.23759791 28.7498117,11.3420366 27.5828355,14.4751958 C27.4578024,14.8093995 27.1660583,15.0182768 26.77012,14.9765013 C26.4158594,14.9347258 26.1241153,14.6840731 26.0824376,14.3289817 C25.4781107,10.7780679 22.9982864,1.54569191 18.9763865,1.54569191 C18.6429648,1.54569191 18.2887041,1.60835509 17.9552824,1.73368146 C17.2050834,2.00522193 16.6632731,2.52741514 16.3298513,3.32114883 C14.4960317,7.5613577 18.6846425,17.232376 18.7263202,17.3159269 C18.8513534,17.6083551 18.7888368,17.921671 18.5804482,18.151436 C18.3720596,18.381201 18.0386378,18.464752 17.7468938,18.3603133 C17.6843772,18.3394256 11.78698,16.3759791 7.05655883,16.3759791 C1.74264963,16.3759791 1.59677762,18.8198433 1.5550999,19.613577 C1.47174446,21.0339426 1.84684393,22.1827676 2.70123717,23.0809399 C4.61841226,25.1070496 8.53611786,25.5248042 11.4743971,25.5248042 C13.9958991,25.5248042 16.0172684,25.2114883 16.0381073,25.2114883 C16.3923679,25.1697128 16.7257897,25.3368146 16.8716617,25.6710183 C17.0175337,25.9843342 16.9341783,26.381201 16.6632731,26.5900783 C12.8289229,29.7232376 6.91068681,35.6553525 7.28578628,38.2036554 C7.327464,38.4960836 7.47333602,38.8720627 8.16101838,39.1436031 C8.64031215,39.3315927 9.14044478,39.4360313 9.66141627,39.4360313 C14.5168706,39.4360313 20.0600072,31.5613577 20.1016849,31.4778068 C20.2475569,31.2898172 20.4976233,31.1644909 20.7476896,31.1644909 Z" id="Shape"></path></g><path d="M14.7546046,36 C14.5920421,36 14.4294795,35.9405327 14.2872373,35.8414206 C13.9621121,35.5837292 13.9011512,35.1278135 14.1653153,34.7908323 L18.6357858,29.2801992 C18.8999499,28.9630405 19.3876376,28.9035732 19.7127627,29.1612647 C20.0378879,29.4189562 20.0988488,29.8748719 19.8346847,30.211853 L15.3642142,35.7224861 C15.2016517,35.9008879 14.9781281,36 14.7546046,36 Z" id="Path" fill="#9AB8BA"></path><path d="M19.2223374,23 C19.1588082,23 19.1164554,23 19.0529262,22.9820061 L9.62942775,21.3265664 C9.20589973,21.2545907 8.93060651,20.8947125 9.01531212,20.5348343 C9.10001772,20.1749561 9.52354574,19.9410353 9.94707376,20.0130109 L19.3705723,21.6684507 C19.7941003,21.7404263 20.0693935,22.1003045 19.9846879,22.4601827 C19.9211587,22.7660792 19.5823363,23 19.2223374,23 Z" id="Path" fill="#9AB8BA"></path><path d="M23.1221528,19 C22.7481019,19 22.3974291,18.7582712 22.2805382,18.4066656 L20.0362326,11.0449244 C19.8959635,10.6054174 20.1765017,10.1439351 20.6440653,10.0340584 C21.111629,9.90220631 21.6025709,10.1659105 21.7194618,10.6054174 L23.9637674,17.9671587 C24.1040365,18.4066656 23.8234983,18.8681479 23.3559347,18.9780247 C23.2858001,18.9780247 23.1922874,19 23.1221528,19 Z" id="Path" fill="#9AB8BA"></path><path d="M30.7541018,19 C30.6336951,19 30.5132883,18.9799789 30.3928815,18.9199155 C30.0316612,18.7197041 29.8911866,18.2792391 30.0918646,17.8988375 L33.5836609,11.3919681 C33.7843389,11.0315876 34.2258304,10.8914396 34.6071185,11.091651 C34.9683388,11.2918624 35.1088134,11.7323274 34.9081354,12.112729 L31.4163391,18.6195984 C31.2758645,18.859852 31.0149832,19 30.7541018,19 Z" id="Path" fill="#9AB8BA"></path><path d="M32.8003634,25 C32.4152051,25 32.0728422,24.7050649 32.0086492,24.3258626 C31.9444561,23.88346 32.2440237,23.4831909 32.693375,23.4410573 L43.0926482,22.0085154 C43.5206018,21.945315 43.9485555,22.2402501 43.9913508,22.6826528 C44.0555439,23.1250554 43.7559763,23.5253245 43.306625,23.5674581 L32.9073518,25 C32.8859541,25 32.8431587,25 32.8003634,25 Z" id="Path" fill="#9AB8BA"></path><path d="M37.2456359,36 C37.0442336,36 36.822691,35.9142303 36.6817094,35.7212484 L32.1904376,30.3391992 C31.9084743,30.0175628 31.9487548,29.5029446 32.2508583,29.2027506 C32.5529618,28.9025566 33.0363273,28.9454415 33.3182906,29.2670779 L37.8095624,34.6491271 C38.0915257,34.9707635 38.0512452,35.4853817 37.7491417,35.7855757 C37.5880199,35.9356727 37.426898,36 37.2456359,36 Z" id="Path" fill="#9AB8BA"></path><path d="M26.2887547,40 C25.9347973,40 25.6180986,39.6847111 25.5994693,39.2853452 L25.0033305,31.8655473 C24.9660718,31.4241429 25.2455119,31.0457963 25.6367279,31.0037577 C26.027944,30.9617192 26.3632721,31.2770081 26.4005307,31.7184125 L26.9966695,39.1382104 C27.0339282,39.5796148 26.7544881,39.9579615 26.3632721,40 C26.3260134,40 26.3073841,40 26.2887547,40 Z" id="Path" fill="#9AB8BA"></path><circle id="Oval" fill="#E46A4B" cx="26.5" cy="24.5" r="9.5"></circle></g></g></g></g></g></svg>