<svg xmlns="http://www.w3.org/2000/svg" xmlns:xlink="http://www.w3.org/1999/xlink" id="Layer_1" x="0px" y="0px" viewBox="0 0 820 97" style="enable-background:new 0 0 820 97;" xml:space="preserve"><style type="text/css">	.st0{display:none;fill-rule:evenodd;clip-rule:evenodd;fill:#F7F7F7;}	.st1{display:none;}	.st2{display:inline;fill-rule:evenodd;clip-rule:evenodd;fill:#0A1E33;}	.st3{display:inline;}	.st4{fill:#E46A4B;}	.st5{fill:none;stroke:#99B8BA;stroke-linecap:square;stroke-dasharray:10;}	.st6{display:none;fill-rule:evenodd;clip-rule:evenodd;fill:#0A1E33;}	.st7{display:inline;fill-rule:evenodd;clip-rule:evenodd;fill:#F7F7F7;}</style><g id="Home-1">	<g id="De-Bebe---Home-1-" transform="translate(71.000000, -7035.000000)">		<g id="Floor" transform="translate(-71.000000, 7035.000000)">			<path id="Path" class="st0" d="M-346.2-18.7V75H1100V-26.5L912.7-38.2H810.5c-60.6,5.7-195.8,13.7-252,0    C488.3-55.4,447.7-32,418.1-46C394.3-57.2,300-73,255.8-79.5l-40.6,4.7C154.3-89.6,31.1-86.5-3.3-89.6    c-27.5-2.5-96.8,8.8-128,14.8c-88.9-10.1-132.6,1.6-159.2,6.2c-26.5,4.7-48.5-26.6-55.8,0C-353.5-42-348-43-346.2-18.7z"></path>			<g id="post" transform="translate(1239.000000, 124.000000)" class="st1">				<path id="Shape" class="st2" d="M-345-87.8c-16-6.5-39.3,2.7-53.8,9.5c-6.2,2.9-9.5,7.7-11.1,14.3c-1.1,4.7-2.6,14.7,0.5,19.3     c0,0.1,0.1,0.1,0.2,0.2c-5.9,8.9-12.4,23.2,1.9,26.7c13.9,3.4,28.1-0.5,36.4-12.4c2.4-3.5,3.8-6.6,4.6-9.9c2.3-0.5,4.6-1,7-1.6     v28.9c0,0.5,0.4,0.8,0.9,0.8h6.2c0.9,0.1,2.1-0.4,2.1-1.1v-31.1c6.1-1.8,12.1-3.8,18.1-5.7c0.5-0.2,1.2-0.6,1.2-1.2     C-331.3-64.6-330.2-81.8-345-87.8L-345-87.8z M-397.8-77.2c0.3-0.1,0.6-0.3,0.9-0.4c9-1.4,15.5,1.5,19.8,6.8     c-5.4-0.1-11.1-0.5-16.4,0.1c-2.2,0.2-3.7,1-4.8,2.1c-0.4,0.2-0.7,0.5-0.7,0.8c-2.7,3.8-1.7,10.4-1.7,15.3c0,3-0.5,6.4,1.8,8.8     c1.2,1.2,2.6,1.6,4,1.8c-3.4-0.3-9.9-0.4-12.3-2.9c-1.8-1.9-1.8-6.2-1.9-8.6C-409.4-63.1-407-73-397.8-77.2L-397.8-77.2z      M-370-42.9c-7.9,1.4-16.1,1-24-0.1c0.9,0.1,1.8,0,2.8,0L-370-42.9C-370-42.9-370-42.9-370-42.9L-370-42.9z M-384.6-44.1     c-2.5,0-5.2,0.3-7.7,0c-1.8-0.2-3-1-3.7-2.1c3.2-3.6,6.4-7.2,9.6-10.7c0.9,0.6,1.8,1.2,2.6,1.7c4.7,2.8,8.5,2.2,12.8-0.3     c0.1,0.7,0.2,1.4,0.3,2.1c0.4,3.3,0.7,6.4,0.6,9.3L-384.6-44.1L-384.6-44.1z M-397-51.1v-10.1c0-1.4,0.1-2.7,0.5-3.8     c2.4,2.8,5.4,5.4,8.5,7.6c-2.9,3.1-5.8,6.3-8.7,9.4C-396.9-49-397-50-397-51.1L-397-51.1z M-381.1-56.4c-2.2-1.3-4.3-3-6.3-4.6     c-2.7-2.3-5.5-4.7-7.6-7.6c0.6-0.4,1.4-0.8,2.4-1c5.3-1,11.5,0,16.8,0c0,0,0,0,0,0c2.2,3.5,3.8,7.9,4.7,12.6     C-374.5-54.7-377.6-54.2-381.1-56.4L-381.1-56.4z M-396.9-19c-4.4,0.1-13.1-0.3-16-4.2c-2.3-3.1-0.7-8,0.5-11.2     c1.1-3,2.6-5.9,4.3-8.6c3.3,2.1,8.4,2.4,11.8,2.8c8.6,1,17.6,1.4,26.2,0.3c-0.3,1.1-0.7,2.2-1.2,3.4     C-376-26.2-385.2-19.3-396.9-19L-396.9-19z M-354-14.1c-1.1,0.1-2.2,0.2-3-0.1c0-0.2,0-0.6,0.1-1.2c0.6-4.2,0-9.1,0-13.4     c0-4.2,0.5-8.9,0-13c-0.1-0.5,0-0.9,0-1.2c1-0.3,1.9-0.6,2.9-0.9C-354-34-354-24.1-354-14.1L-354-14.1z M-345.4-47.8     c-7,2.1-13.9,4.3-21.1,5.8c0.4-3.1,0.3-6.3-0.2-10.2c-1.7-15.1-9-26.7-23.4-27.2c7-2.6,14.4-4.6,21.4-6.2     c11.3-2.6,27.1-2.9,31.7,10.4c2.1,6.1,3.8,17,2.5,23.3c-0.1,0.4,0,0.6,0.1,0.7c-0.3,0.1-0.7,0.2-1.4,0.4     C-338.9-49.7-342.2-48.8-345.4-47.8L-345.4-47.8z"></path>									<g id="Group-22" transform="translate(78.409431, 73.123526) rotate(39.000000) translate(-78.409431, -73.123526) translate(23.000000, 62.000000)" class="st3">					<path id="Path_00000123401773883728145550000015824947340330135169_" class="st4" d="M-281.6,206.4c-0.1,0-0.2,0-0.3,0      c-0.1,0-4.2-1-6.9-1.2c-0.5,0-0.9-0.5-0.9-0.9c0.1-0.5,0.5-0.9,1-0.8c2.9,0.2,7.1,1.2,7.2,1.3c0.5,0.1,0.8,0.6,0.7,1.1      C-280.8,206.1-281.2,206.4-281.6,206.4z"></path>					<path id="Path_00000005954801679531605420000002975251030743444141_" class="st4" d="M-289.7,194.9c-0.1,0-0.2,0-0.3,0      c-0.1,0-4.2-1-6.9-1.2c-0.5,0-0.9-0.5-0.9-0.9c0.1-0.5,0.5-0.9,1-0.8c2.9,0.2,7.1,1.2,7.2,1.3c0.5,0.1,0.8,0.6,0.7,1.1      C-288.9,194.6-289.3,194.9-289.7,194.9z"></path>					<path id="Path_00000016070905159248818920000015380563912475934630_" class="st4" d="M-307.5,202.3c-0.4,0-0.8-0.2-0.9-0.6      c-0.2-0.5,0.1-1,0.6-1.1c2.8-0.8,7-1.2,7.2-1.3c0.5-0.1,1,0.3,1.1,0.8c0.1,0.5-0.3,0.9-0.9,1c-0.1,0-4.3,0.5-6.9,1.2      C-307.3,202.2-307.4,202.3-307.5,202.3z"></path>					<path id="Path_00000157990890667063266780000009541551230128845966_" class="st4" d="M-319.2,198.9c-0.4,0-0.8-0.3-0.9-0.7      c-0.1-0.5,0.2-1,0.7-1.2c2.8-0.7,7.1-1.1,7.3-1.1c0.5-0.1,1,0.4,1,0.9c0.1,0.5-0.4,1-0.9,1c-0.1,0-4.3,0.3-6.9,1      C-319.1,198.9-319.2,198.9-319.2,198.9z"></path>					<path id="Path_00000062887455665148608120000016364907592716273548_" class="st4" d="M-338.8,195.4c-0.4,0-0.8-0.3-0.9-0.7      c-0.1-0.5,0.2-1,0.7-1.2c2.8-0.7,7.1-1.1,7.3-1.1c0.5-0.1,1,0.4,1,0.9s-0.4,1-0.9,1c-0.1,0-4.3,0.3-6.9,1      C-338.6,195.4-338.7,195.4-338.8,195.4z"></path>					<path id="Path_00000101068480635312937410000000164070607059501705_" class="st4" d="M-355.5,198.6c-0.4,0-0.8-0.3-0.9-0.7      c-0.1-0.5,0.2-1.1,0.7-1.2c2.8-0.7,7.1-1.1,7.3-1.1c0.5,0,1,0.4,1,0.9c0.1,0.5-0.4,1-0.9,1c-0.1,0-4.3,0.3-6.9,1.1      C-355.3,198.6-355.4,198.6-355.5,198.6z"></path>					<path id="Path_00000160170566117692358260000018165798805569850303_" class="st4" d="M-353.4,205c0,0-0.1,0-0.1,0      c-0.1,0-4.2-0.5-6.9-0.3c-0.5,0.1-1-0.4-1-1.1c-0.1-0.6,0.4-1.2,0.9-1.2c2.9-0.3,7.1,0.3,7.2,0.3c0.5,0.1,0.9,0.6,0.8,1.2      C-352.5,204.6-352.9,205-353.4,205z"></path>					<path id="Path_00000070801847226640602760000014583008940150300340_" class="st4" d="M-319.5,208.1c-0.4,0-0.8-0.3-0.9-0.7      c-0.1-0.5,0.2-1,0.7-1.2c2.8-0.7,7.1-1.1,7.3-1.1c0.5-0.1,1,0.4,1,0.9c0,0.5-0.4,1-0.9,1c-0.1,0-4.3,0.3-6.9,1      C-319.3,208.1-319.4,208.1-319.5,208.1z"></path>					<path id="Path_00000090990256037355489080000004472882820075205014_" class="st4" d="M-329,204.3c-0.4,0-0.8-0.3-0.9-0.7      c-0.1-0.5,0.2-1,0.7-1.2c2.8-0.7,7.1-1.1,7.3-1.1c0.5-0.1,1,0.4,1,0.9c0.1,0.5-0.4,1-0.9,1c-0.1,0-4.3,0.3-6.9,1      C-328.9,204.3-329,204.3-329,204.3z"></path>					<path id="Path_00000007397690800172821990000002634543393971640227_" class="st4" d="M-334.9,212.9c-0.4,0-0.8-0.3-0.9-0.7      c-0.1-0.5,0.2-1,0.7-1.2c2.8-0.7,7.1-1.1,7.3-1.1c0.5-0.1,1,0.4,1,0.9c0.1,0.5-0.4,1-0.9,1c-0.1,0-4.3,0.3-6.9,1      C-334.7,212.9-334.8,212.9-334.9,212.9z"></path>					<path id="Path_00000003101114121853836250000017359551598474981798_" class="st4" d="M-359.1,213.2c-0.4,0-0.8-0.3-0.9-0.7      c-0.1-0.5,0.2-1,0.7-1.2c2.8-0.7,7.1-1.1,7.3-1.1c0.5-0.1,1,0.4,1,0.9c0,0.5-0.4,1-0.9,1c-0.1,0-4.3,0.3-6.9,1      C-358.9,213.2-359,213.2-359.1,213.2z"></path>					<path id="Path_00000009553222390286365440000001639893464491493278_" class="st4" d="M-379,212.5c-0.4,0-0.8-0.3-0.9-0.7      c-0.1-0.5,0.2-1,0.7-1.2c2.8-0.7,7.1-1.1,7.3-1.1c0.5-0.1,1,0.4,1,0.9c0,0.5-0.4,1-0.9,1c-0.1,0-4.3,0.3-6.9,1      C-378.8,212.5-378.9,212.5-379,212.5z"></path>					<path id="Path_00000025440943434126848830000012790815186132338872_" class="st4" d="M-277.1,211.1c-0.4,0-0.8-0.3-0.9-0.7      c-0.1-0.5,0.2-1.1,0.7-1.2c2.8-0.7,7.1-1.1,7.3-1.1c0.5,0,1,0.4,1,0.9c0,0.5-0.4,1-0.9,1c-0.1,0-4.3,0.3-6.9,1.1      C-277,211.1-277.1,211.1-277.1,211.1z"></path>					<path id="Path_00000112601673860966358730000018128105727846493069_" class="st4" d="M-296,213.9c0,0-0.1,0-0.1,0      s-4.2-0.5-6.9-0.2c-0.5,0.1-1-0.4-1.1-1c-0.1-0.6,0.3-1.2,0.9-1.2c2.8-0.3,7.1,0.2,7.2,0.2c0.5,0.1,0.9,0.6,0.9,1.2      C-295.1,213.4-295.5,213.9-296,213.9z"></path>				</g>			</g>			<path id="Line" class="st5" d="M9.5,53.5c59.7-0.3,103.8-3,132.5-8C251.7,26.3,322.2,9.6,385,13c62.2,3.3,172.9,27.1,264,56.5    c24.7,8,78.9,15.5,162.5,22.5"></path>			<path id="envelop" class="st6" d="M-2.5,38.2c-0.9-4.5-5-3.9-8.6-3.9h-21.3c-5,0-10.6-0.7-15.6,0c-4.7,0.7-4.7,3.9-4.7,7.8    c0,6.2-0.9,13.2,0,19.3c0.6,4.1,3.1,4.3,6.5,4.4c13,0.3,26.1,0,39.2,0c0.2,0,0.3,0,0.4-0.1c5.2-1.2,4-6.6,4-10.9    C-2.4,49.7-1.4,43.3-2.5,38.2L-2.5,38.2z M-4.4,61.4c-4.2-3.9-8.1-8.6-11.7-13c0,0,0,0,0,0C-12.3,45-8.6,41.5-5,37.9    c1.4,2.4,0.7,6.2,0.7,9.2C-4.3,49.3-3.2,57-4.4,61.4L-4.4,61.4z M-40.9,35.7h17.6c4.7,0,10-0.7,14.7,0c1.3,0.2,2.1,0.6,2.8,1.3    c-3.5,3.6-7.1,7.2-11,10.4c-2.5,2.2-6.5,7.3-10,7c-3-0.3-7.8-5-10.3-6.8c-4.3-3.2-8.7-6.7-11.9-11.1c0,0-0.1-0.1-0.1-0.1    C-46.9,35-43.3,35.7-40.9,35.7L-40.9,35.7z M-50.7,38.6c0.1-0.4,0.3-0.7,0.5-1c3.2,4.2,7.5,7.7,11.8,10.8    c-4,4.2-8.1,8.5-12.1,12.7c-0.7-2.4-0.2-5.6-0.2-8.1C-50.7,48.9-51.9,42.7-50.7,38.6L-50.7,38.6z M-6.9,64.5h-26.7    c-4.1,0-9.7,1-13.6,0c-1.4-0.4-2.3-1.2-2.9-2.2c0.1,0,0.2-0.1,0.3-0.2c4.1-4.3,8.2-8.7,12.3-13c0.4,0.3,0.8,0.6,1.2,0.9    c2.4,1.7,6.8,5.9,10.2,5.7c3.1-0.2,6.3-3.9,8.6-6.2C-13.6,54.1-9.5,59-5,63C-5.5,63.8-6.1,64.3-6.9,64.5L-6.9,64.5z"></path>			<g id="Group-9" transform="translate(0.000000, 3.000000)" class="st1">				<path id="Shape_00000141416090352552967000000014169006538298797726_" class="st7" d="M586.1-30.1c0.1,0,0.2,0,0.3,0     c0.2-0.2,0.1-0.4-0.2-0.4c-0.1,0-0.2,0.1-0.2,0.2C586-30.3,586.1-30.2,586.1-30.1z M417.3-42.9c-0.2-0.1-0.3-0.3-0.5-0.3     c-0.3,0-0.4,0.2-0.1,0.4c0.1,0.1,0.2,0.2,0.3,0.2C417.1-42.6,417.2-42.8,417.3-42.9z M401.8-44.2c-0.5-1.5-1.3-1.6-2.5-1.6     C399.8-44.7,400.3-44,401.8-44.2z M436.8-42c0.1-0.1,0.2-0.1,0.2-0.2c0-0.1,0-0.2,0-0.2L436.8-42c-1,0.1-1.6-1.7-3.1-0.4     C434.7-41.1,435.6-41.1,436.8-42z M498.9-40.6c0.5,0.5,0.9,0.9,1.4,1.4c-0.2,0.4-0.5,0.8,0,1.1c0.1,0.1,0.4,0,0.6-0.1     c-0.2-0.3-0.4-0.7-0.6-1c0.4-0.1,1.2-0.2,1-0.7C500.7-41.1,499.8-41,498.9-40.6l-0.1-0.1L498.9-40.6z M524.2-37.8     c-2.2,2-7.1,2.1-9.1,0c-1.4-1.5-2.8-2.7-5-1.4l0,0c-1.5,0.6-3.1-1.4-4.5,0.2c0.3,0.9,2.3,0.1,2,1.8c-1.2,1.2-2.6-1-3.8,0.1     c-0.2,0-0.5,0-0.7,0l0,0c0.1,0.1,0.2,0.2,0.2,0.2c0.2,0,0.3-0.1,0.5-0.2c1.3,0.8,3.1,1,3.9,2.6c-0.7,0.8-1.5,0.5-2.1,0.4     c-3.1-0.4-6.2-1.4-9.2,0.6c-4.7-2.3-10.1-0.2-14.9-2.5c-2.8-1.3-6.2-2-9.3-2.2c-3.8-0.2-7.9,0.2-11.4-0.6     c-4.6-0.9-9.6,0.5-13.8-2.3c-1-0.7-2.1,0-3.1-0.2c-0.2,0-0.2-0.5-0.5-0.2l0.5,0.1c0.3,2.2,3.4,1.1,3.8,3.4     c-1.5,0.7-3.7,0.8-4.4-0.1c-1-1.2-1.6-2.6-3.3-3.6c-0.4,1,0.9,2.2-0.3,3c-1.2,0.7-2-0.1-3-0.4c-4.9-1.9-10.2-1-15.3-2.1     c1.9,0.9,3.5,2,5.5,2.9c-1,0.7-2,0.9-2.8,0.7c-4.7-1-9.8-0.4-14-3.2c-0.7-0.5-1.6-0.5-2.4-0.3c-2.2,0.7-3.9,0.1-5.9-0.9     c-2-1-4.6-0.7-6.9-1.1c-4.1-0.6-7.9-2.3-12.2-1.8c-0.2,0-0.5-0.1-0.7-0.1c-1.6-0.7-2.8-2.4-5.1-1.7c-0.4,0.1-1.3-0.9-1.8-2.2     c2.4,1.3,4.7-0.1,6.8,0.9l0,0c0.3,1.2,1.3,0.9,2.2,0.9c1.7,0.1,3.3,0.5,4.9,1.1c0.2,0.1,0.2,0.6,0.5,0.2c-0.2,0-0.4-0.1-0.6-0.1     c0-0.2,0-0.5,0-0.7l0,0c1.7-0.6,3.1,0.5,4.7,0.6c1.3,0.1,3,2.5,3.8-1c0.2-1,2.7,0.2,4.2-0.1c1.1-0.2,3-0.3,2.5,2     c-0.2,0.9,0.7,1.4,1.6,1.5c0.8,0.1,1.2-0.2,1.3-1.1c0.4-2.7,3.3-0.3,4.5-1.8c0.5-0.6,0.9,1.2,1.5,1.9c-0.4,0.3-1,0.5-0.8,1.2     c0,0.1,0.2,0.2,0.3,0.1c0.7-0.2,0.4-0.9,0.5-1.3c1.5,0.1,2.5-0.1,3.9-1.1c1.6-1.2,4.9-0.8,7.6,0.4c-0.7,0.9-1.8,1.9-0.2,2.8     c1,0.6,1.8,0.5,2.1-0.7l0,0c0.7-0.5,1.3-0.9,2-1.4c1.2,0.2,0.9,2.2,2.3,2.2c1.2-0.8-0.4-1.7,0.2-2.6c0.2-0.1,0.6-0.3,0.9-0.3     c2.5,0.5,5.1,0,7.5,1.3c0.8,0.4,2,1,2.7-0.5l0,0c4.2,0.2,8.5,1.3,12.8,0.1c0.2-0.1,0.5-0.1,0.7,0c3.5,2.2,7.5-0.2,10.7,0.8     c5,1.5,10.2-1.5,14.8,1.5c0.6,0.4,1.4,0.1,2-0.4c0.6-0.5,1.4-0.7,2-0.3c2.6,1.7,5.8,1.3,8.5,2.3c0.5,0.7,1.3,1.2,1.4,2.1l0,0     c0.5-0.2,1.2-0.7,1-1.2c-0.4-1.1-1.5-0.7-2.4-0.8c0.1-0.6,0.2-1.4,0.8-1.4c5,0.4,10.2-2.5,15,0.8c0.2,0.2,0.8,0.2,1,0     c2.7-2,4.5-0.8,6.2,1.4c0.9,1.1,2,1.1,3.1,0.3c1-0.7,1.9-1.1,3.2-0.7c6.2,2,12.6,1.8,19,2.2c1.6,0.1,3.2,0.5,4.6,1.4     c0.2,0.1,0.2,0.6,0.5,0.2c-0.2,0-0.4-0.1-0.5-0.1c0.9-1.1,1.9-2,2.8,0l0,0c3.7,0.3,7.3,1.5,11.2,0.9c1.5,0.8-1.2,2.9,1.2,3.7     c0.5-2.4,1.9-3.5,4.5-2.6l0,0c1.6,1.9,2.3-0.9,3.5-0.7l0,0c0.1,0,0.2,0.1,0.2,0.1c0.2,0,0.3-0.1,0.5-0.1l0,0     c2.1-0.4,1.6,2,2.7,2.6c3-2.4,4.4-2.4,7.9-0.1c0.6,0.4,0.9,0.9,1.6,0.1c0.8-0.9,1.7,0,2.6,0.2l0,0c0.1,0.1,0.2,0.2,0.2,0.1     c0.2,0,0.4-0.1,0.5-0.2l0,0c2.1-0.9,4.2,0.2,6.2,0.2c5.1,0.1,10.2,0.3,15.3,1.2c2.2,0.4,4.4,0.2,6.6,0.3     c2.1,0.1,3.7,0.7,5.5,1.5c1.2,0.5,3.3-0.2,5,0.1c3.1,0.4,6.4-0.6,9.1,1.7c0.2,0.2,0.7,0.2,0.9,0.2c5.1-1.6,9.9,0.5,14.8,1.1l0,0     c-4.3,3.2-8.9,3.9-14.3,2.6c-4.7-1.1-9.7-0.9-14.5-1c-3.5-0.1-6.9-0.5-9.9-1.4c-4.9-1.5-9.9-1.2-14.9-1.8     c-4.3-0.5-8.7-1.3-13.1-1.3c-1.8,0-3.6-0.8-5.4,0.4c-0.1,0.1-0.3,0.1-0.3,0.1c-2.6-1.8-6,0.8-8.6-1.6c-1.6-1.5-3.7-0.2-5.6-0.3     c-5-0.1-9.9-1.1-14.9-1.9c0,0,0,0,0,0c-0.3-0.2-0.5-0.5-0.8-0.7l0,0c-3.5,0.3-6.6-0.7-9.8-1.9c-1.1-0.4-2.2-0.5-3.4-0.2     c-3.1,0.6-5.9-1.2-8.9-1.5C524.5-36.7,524.3-37.5,524.2-37.8L524.2-37.8z"></path>				<path id="Shape_00000082345994778755933810000015254386862310561433_" class="st7" d="M698.8-26c-0.1,0-0.2,0-0.3,0     c-0.2-0.2-0.1-0.4,0.2-0.4c0.1,0,0.2,0.1,0.2,0.2C698.9-26.2,698.8-26.1,698.8-26z M867.5-28.1c0.2-0.1,0.4-0.3,0.5-0.3     c0.3,0,0.3,0.2,0.1,0.4c-0.1,0.1-0.2,0.2-0.3,0.1C867.8-27.9,867.6-28,867.5-28.1z M883-28.5c0.6-1.6,1.4-1.6,2.6-1.6     C885-28.9,884.5-28.2,883-28.5z M848.1-28.5c-0.1-0.1-0.2-0.2-0.2-0.3c0-0.1,0-0.2,0-0.3L848.1-28.5c1,0.2,1.7-1.7,3.2-0.2     C850.1-27.5,849.2-27.5,848.1-28.5z M786.3-31.4c-0.5,0.5-1,0.9-1.5,1.4c0.2,0.4,0.5,0.9-0.1,1.2c-0.1,0.1-0.4-0.1-0.6-0.1     c0.2-0.4,0.5-0.7,0.7-1.1c-0.4-0.2-1.1-0.3-0.9-0.9C784.5-32,785.4-31.9,786.3-31.4l0.1-0.1L786.3-31.4z M760.9-30.1     c2,2.4,6.9,2.8,9.1,0.6c1.5-1.5,3-2.7,5.1-1.2l0-0.1c1.4,0.7,3.2-1.3,4.5,0.6c-0.4,1-2.3,0-2.1,1.8c1.1,1.3,2.6-0.9,3.8,0.4     c0.2,0,0.5,0,0.7,0.1l0,0c-0.1,0.1-0.2,0.2-0.2,0.2c-0.2,0-0.3-0.1-0.4-0.2c-1.4,0.8-3.1,0.9-4,2.5c0.7,0.9,1.4,0.6,2.1,0.6     c3.1-0.3,6.3-1,9.1,1.3c4.8-2.2,10.1,0.5,15-1.6c2.9-1.2,6.3-1.7,9.4-1.7c3.8,0.1,7.8,0.7,11.4,0.2c4.6-0.7,9.5,1.2,13.9-1.6     c1-0.7,2,0.1,3.1,0.1c0.2,0,0.2-0.6,0.5-0.1l-0.5,0.1c-0.4,2.3-3.4,0.9-4,3.4c1.5,0.8,3.6,1.1,4.4,0.1c1-1.2,1.8-2.7,3.5-3.6     c0.4,1.1-1.1,2.3,0.1,3.2c1.1,0.8,2,0.1,3-0.2c5-1.7,10.2-0.4,15.4-1.2c-2,0.8-3.7,2-5.7,2.7c0.9,0.8,1.9,1.1,2.8,0.9     c4.7-0.8,9.7,0.3,14.2-2.5c0.8-0.5,1.6-0.5,2.4-0.1c2.1,0.9,3.9,0.4,6-0.6c2-1,4.6-0.5,7-0.7c4.1-0.4,8.1-1.9,12.2-1.2     c0.2,0,0.5,0,0.7-0.1c1.7-0.6,3-2.4,5.2-1.5c0.4,0.2,1.3-0.9,1.9-2.3c-2.5,1.3-4.7-0.4-6.8,0.5l0,0c-0.4,1.3-1.4,0.9-2.2,0.9     c-1.7,0-3.3,0.3-4.9,0.9c-0.2,0.1-0.2,0.6-0.5,0.1c0.2,0,0.4-0.1,0.6-0.1c0-0.3,0-0.5,0-0.8l0,0c-1.6-0.8-3.1,0.3-4.7,0.3     c-1.3,0-3.2,2.5-3.7-1.3c-0.1-1.1-2.7,0-4.1-0.4c-1.1-0.3-3-0.6-2.6,2c0.2,1-0.8,1.4-1.7,1.5c-0.8,0.1-1.2-0.3-1.3-1.3     c-0.3-2.9-3.2-0.5-4.4-2.3c-0.4-0.6-1,1.3-1.6,1.9c0.3,0.4,1,0.6,0.8,1.3c0,0.1-0.2,0.2-0.3,0.1c-0.7-0.3-0.3-1-0.5-1.5     c-1.5,0-2.4-0.3-3.8-1.5c-1.5-1.4-4.8-1.2-7.6-0.1c0.6,1,1.6,2.2,0,3.1c-1.1,0.6-1.8,0.5-2-0.9l0,0c-0.6-0.5-1.2-1.1-1.9-1.7     c-1.3,0.1-1,2.3-2.4,2.2c-1.1-1,0.5-1.8,0-2.8c-0.2-0.1-0.6-0.4-0.8-0.4c-2.5,0.4-5.1-0.4-7.5,0.8c-0.8,0.4-2.1,0.9-2.6-0.7l0,0     c-4.2-0.1-8.5,0.8-12.7-0.7c-0.2-0.1-0.5-0.1-0.7,0c-3.6,2.2-7.5-0.7-10.7,0.1c-5.1,1.3-10-2.3-14.8,0.6c-0.6,0.4-1.4,0-1.9-0.5     c-0.6-0.5-1.4-0.8-2-0.5c-2.7,1.6-5.8,1-8.6,1.9c-0.5,0.7-1.4,1.2-1.6,2.2l0,0c-0.5-0.3-1.1-0.8-0.9-1.4     c0.5-1.2,1.5-0.7,2.4-0.7c-0.1-0.6-0.1-1.5-0.7-1.5c-5,0.1-9.9-3.4-15-0.2c-0.2,0.2-0.8,0.1-1,0c-2.5-2.4-4.4-1.2-6.2,1.1     c-0.9,1.2-2.1,1-3.1,0.2c-1-0.8-1.8-1.4-3.2-1c-6.3,1.7-12.7,1-19.1,1.1c-1.6,0-3.2,0.3-4.7,1.2c-0.2,0.1-0.2,0.6-0.5,0.1     c0.2,0,0.4-0.1,0.6-0.1c-0.9-1.2-1.8-2.3-2.8-0.2l0,0c-3.7,0.1-7.3,1.1-11.2,0.2c-1.6,0.7,1,3.2-1.5,4c-0.3-2.6-1.7-3.9-4.3-3.1     l0,0c-1.7,1.9-2.2-1.1-3.5-1l0,0c-0.1,0-0.2,0.1-0.2,0.1c-0.2,0-0.3-0.1-0.5-0.2l0,0c-2-0.5-1.7,2-2.9,2.6     c-2.9-2.8-4.2-2.9-7.8-0.6c-0.7,0.4-1,0.9-1.6,0c-0.7-1-1.7-0.1-2.6,0l0,0c-0.1,0.1-0.2,0.2-0.2,0.1c-0.2,0-0.3-0.1-0.5-0.2l0,0     c-2-1.1-4.1-0.1-6.2-0.2c-5.1-0.3-10.2-0.4-15.3,0.2c-2.2,0.3-4.4-0.1-6.6-0.1c-2.1,0-3.7,0.5-5.6,1.2c-1.3,0.5-3.3-0.4-5-0.3     c-3.1,0.2-6.3-1.1-9.2,1.2c-0.2,0.2-0.7,0.2-0.9,0.1c-5-2.1-9.9-0.2-14.8,0.1l0,0c4.1,3.7,8.6,4.8,14,3.8     c4.7-0.8,9.7-0.3,14.5,0c3.4,0.2,6.9-0.1,10-0.8c5-1.2,10-0.6,14.9-0.9c4.3-0.3,8.7-0.8,13.1-0.6c1.8,0.1,3.7-0.6,5.3,0.8     c0.1,0.1,0.3,0.2,0.3,0.1c2.7-1.7,6,1.2,8.7-1.1c1.7-1.5,3.7,0,5.6,0.1c5,0.2,9.9-0.4,14.9-1c0,0,0,0,0,0     c0.3-0.2,0.5-0.5,0.8-0.7l0,0c3.4,0.6,6.7-0.3,9.9-1.4c1.2-0.4,2.2-0.3,3.4,0c3.1,0.8,5.9-0.9,9-1     C760.5-28.9,760.7-29.7,760.9-30.1L760.9-30.1z"></path>				<path id="z" class="st7" d="M-321.5-58.4l-0.1-0.1l0.1,0L-321.5-58.4z M-335.6-56.3c-0.1-0.1-0.1-0.2-0.2-0.3     c0.1-0.1,0.2-0.2,0.3-0.1c0.1,0,0.1,0.2,0.2,0.3C-335.4-56.4-335.5-56.3-335.6-56.3z M-269.5-63.2c-0.1,0-0.3-0.1-0.3-0.1     c-0.1-0.2,0.1-0.4,0.3-0.4c0.1,0,0.3,0,0.3,0.1C-269.1-63.4-269.3-63.3-269.5-63.2z M-315-62.4c-0.3,0-0.7,0.5-1-0.2     C-315.7-62.8-315.4-62.9-315-62.4z M-312.9-63c0.1-0.5,0.1-0.9,0.7-0.9c0.1,0,0.2,0.2,0.2,0.3C-312.1-63.3-312.3-63-312.9-63z      M-320-62.3c0.8-0.6,1.7-0.7,3-0.4C-318.2-62.4-318.9-61.8-320-62.3z M-265-66c-0.1,1.5-0.2,2.5-0.9,3     C-266.2-64.7-265.7-65.3-265-66z M-305.9-62.6c0-0.1-0.1-0.1-0.1-0.2c0-0.1,0-0.1,0-0.2C-306-62.8-305.9-62.7-305.9-62.6     c0.5,0.1,0.9,0.3,0.9,1.5C-305.8-60.7-305.7-61.8-305.9-62.6z M-324.2-61.2c-0.3,0-0.6,0.3-0.8-0.3c0-0.1,0.1-0.5,0.2-0.5     C-324.4-62.1-324.3-61.6-324.2-61.2c0.4-0.1,0.7-0.8,1.2-0.2c-0.3,0.6-0.2,1.6-1,1.4C-324.1-60.1-324.2-60.8-324.2-61.2z      M-337.5-56.5L-337.5-56.5L-337.5-56.5L-337.5-56.5L-337.5-56.5z M-290.1-59.6c1.8,0.6,3.4,2.4,5.4,1.3l0,0     c-0.2-0.7-0.2-1.3,0.4-1.6c0.5-0.2,0.8,0.2,0.8,0.8c0.1,1.1,0.3,2,1.2,2.1l0,0c0-0.4-0.2-1.1-0.1-1.3c1.7-2.8,4.6-4.4,6.5-3.4     c2.1,1.1,2.7-0.5,3.8-1.5c1,0.6-0.4,1.6,0.5,2.4c0.8,0.4,1.5-1.4,2.5-1c0.2-0.2,0.3-0.5,0.5-0.7c0.3-0.7,0.6-1.4,1.3-1     c0.2,0.1,0.4,0.5,0.2,0.8c-0.5,0.8-1,0.4-1.5,0.1c-0.2,0.2-0.3,0.5-0.5,0.7c0.3,0.4,0.6,1.2,0.8,1.1c1.7-0.5,3.4-1.4,5.1-0.2     c0.3,0.2,0.8-0.7,0.8-1.4c0-1.6-1.2-0.1-1.5-1.4c1.8-0.6,3-2.6,5.2-2c1.7,0.5,3.4-0.6,5.1-1c2.5-0.6,5-2.1,7.8-0.1     c1.3,0.9,3.6,1.6,5.2-0.4c0.2-0.2,0.3-0.5,0.5-0.7c0.3-0.5,0.6-0.7,1-0.3c0.1,0.1,0.1,0.4,0,0.5c-0.4,0.4-0.7-0.1-1-0.2     c-0.2,0.2-0.3,0.4-0.5,0.7c1.2,1.4,2.4,2.5,3.9,0.7l0,0c1-1.2,0.5-2.7,0.5-4.1l0,0c-1.2-0.7-2.4-1.3-3.4,0.7l0,0     c-2.4-1.1-4.8-0.4-7.3,0c-2.3,0.4-4.5,1.4-6.8,1.4l0,0c-0.5,0.8-1,1.7-1.5,0l0,0c-3.7,0.7-7.3,0.3-11.1,1.6     c-4.4,1.5-8.9,2.9-13.5,2.3c-0.8-0.1-1.6-0.3-2.2,0.9c-0.4,0.9-1.2,0.8-2,0.6c-2.7-1-2.7-1-4.8,1.8c-0.6-2.5-1.8-2.6-3.5-2.2     c-1.1,0.3-2.2-0.1-3.3-0.3c-1.4-0.2-2.7-0.1-4,0.6c-1.3,0.6-2.8,0.8-4-0.9c-0.3-0.4-0.7-0.7-1-0.8c-1.8-0.5-3.6-1.1-5.4-2     c-1.8-0.9-4.1-0.4-6.2,0.1c-3.9,0.8-7.9,1.7-11.7,3.1c-2.2,0.8-4.9,0.3-6.6,3.5c-0.3-2.1-1.3-2.5-2.5-2     c-0.7,0.3-1.4,0.6-0.9,2.1c0.3,0.9,0.1,0.9-1,1c-0.2,0.3-0.2,0.8-0.6,0.6c0-0.6,0.4-0.4,0.6-0.6c-0.7-1.7-1.5-2.4-2.9-1.3     c-1,0.7-2.4,0.2-3.4,1.3l0,0c-0.1,0.6-0.2,1.2,0.5,1.4l0,0c0.2,0,0.4,0,0.5,0l0,0c3.9-0.6,6.9,3.1,10.5,4.7     c0.1-1.4-0.8-1.1-1-1.9c0.7-0.5,1.5-0.9,0.9-2.5c-0.3-1.1,0.2-2.6,1.2-1.6c1.5,1.4,3,0.3,4.4,0.6c0.7,0.2,1.4-1.1,2,0.9     c0.3,1.2,1.5-0.5,2.6-1.5c-0.7,2.3,0.2,2.8,1.2,2.9c0.5,0.1,1.6,1.1,1.4-1c-0.1,0.1-0.1,0.2-0.2,0.2c0,0-0.1,0-0.2,0     c0.1-0.1,0.2-0.1,0.4-0.2c0.1-1.9,1.5-3.2,3.2-2.5c2,0.8,3.9-0.1,6,0.4c1.5,0.3,0.6-2,0.5-3.3l-0.1-0.2l0.1,0.1     c0.5-0.3,1-0.7,1.9-0.4c-0.9,2.1-0.9,3.9,1,4.9c0.2,0.1,0.6,0.4,0.6,0.4c1.3-3.3,4.2-0.5,5.7-3c0.5-0.8,0.7-0.4,1.4,0     c1.1,0.8,2.7,0.5,4,0.3c1.3-0.2,2.5,0.2,3.7,0.8C-291.7-58.7-290.7-58.1-290.1-59.6c-0.1-0.2-0.4,0.2-0.3-0.4     C-290.3-59.9-290.2-59.8-290.1-59.6z"></path>				<path id="Shape_00000168831600718147413580000006388721543562458514_" class="st7" d="M-175.4-73.9c-0.3-0.2-0.5-0.2-0.6-0.4     c-0.2-0.3-0.2-0.6,0.3-0.7c0.2,0,0.5,0.1,0.5,0.2C-175.2-74.5-175.3-74.2-175.4-73.9z M-171.7-74.5l0.7-1.4l0,0     c-2.3-1-4.8-0.3-7.2-0.8c-1.8-0.3-1.7,2-3,2.4c-0.7-0.6,0.2-1.3-0.3-1.9c-0.4-0.5-0.8-0.9-1.4-0.8c-0.5,0.1-0.6,0.4-0.6,1     c0,1.9-1.2,1.7-2.3,1c-2.8-1.8-4.7-1.7-7.7,0.4c-0.2,0.3,0.2,0.8-0.4,0.9c0.1-0.3,0.3-0.6,0.4-0.8c-0.7-1.2-1.6-1.4-2.8-0.7l0,0     c-1-0.7-1.6-0.2-2.2,0.7l0,0c-5-1.6-10-0.2-15-0.3c-0.8,0-1.7,1.1-2.5,1.7l0-0.1c0,0.3,0,0.5,0,0.8l0,0c2.8-0.2,5.6-0.5,8.4,0     c0.1-0.5-0.2-1.1,0.5-1.4c0.3,0.7-0.1,1.1-0.6,1.4c0,0.2,0,0.4,0,0.7c4.1-1.1,8,1,12.1,0.3c0.9-0.2-0.1,0.7-0.2,1.1l0,0     c0.7,0.3,1.5,0.7,2,0.2c2.4-2.1,5.4-0.7,8-1.3c2.2-0.4,4.7,0.4,7,0.7c2.1,0.2,3.8-0.4,5.7-0.7     C-171.1-71.9-171.8-73.4-171.7-74.5c-0.1-0.2-0.5,0.1-0.4-0.4C-172-74.8-171.9-74.7-171.7-74.5z"></path>				<path id="Path_00000026151556747811027110000000869374294552673203_" class="st7" d="M-216-72.4c0-0.6,0-1.5-0.5-1.5     c-2.1,0.1-4.4-0.8-6.5,1.4c1.8,0.4,3.7,0.1,4.8,1.4l0,0h0.8l0,0c0.5-0.2,0.9-0.5,1.4-0.7l0,0C-216.2-71.9-216.2-72.2-216-72.4     L-216-72.4z"></path>				<path id="Path_00000159465418559433146230000013605958131733278613_" class="st7" d="M-232-70.9c1.2,0.7,2.5,1.1,4,0.8     c0.1-1.9-0.8-2.6-2.1-2.8C-231.2-73.2-232-72.6-232-70.9z"></path>				<path id="Path_00000152948066783311614530000015166346089203293625_" class="st7" d="M-261.9-60c0.3-0.9,0.6-1.8,0.9-3     c-1.5,0.1-2.7,0.5-4,1.1C-264.3-60.4-262.7-60.8-261.9-60L-261.9-60z"></path>				<path id="Path_00000114792464968789665420000008126855528986799531_" class="st7" d="M-226-66c1.8,1.8,4.8,0.1,7,0.9     C-221-66.2-223.7-65.6-226-66L-226-66z"></path>				<path id="Path_00000165204347961170019900000015640530198891659448_" class="st7" d="M-272-62.3c0.9,0.3,1.6,2.1,2.7,0.9     c0.6-0.6,0.2-1.6-0.4-2.1C-270.9-64.6-271.5-63.7-272-62.3L-272-62.3z"></path>				<path id="Path_00000181799727135537774550000011250886272845438390_" class="st7" d="M-254-64.7c1.5,0.6,2.6,0.8,4,0.1     C-251.2-65-252.4-64.9-254-64.7z"></path>				<path id="Path_00000027583991040006313310000011175298084415017646_" class="st7" d="M-236-66.5c-0.1,0.4,0.3,0.5,1.1,0.5     c0.9,0,1.7-0.2,1.9-0.6c0.1-0.2-0.4-0.4-1-0.4C-234.9-67-235.7-66.9-236-66.5z"></path>				<path id="Path_00000031911691779186754890000016142710035061941646_" class="st7" d="M-224.6-72c0.3-0.1,0.5-0.3,0.6-0.6     c0.1-0.3-0.2-0.5-0.5-0.4c-0.3,0.1-0.5,0.3-0.4,0.6C-225-72.2-224.9-72-224.6-72z"></path>				<path id="Path_00000113315306837497622410000014765882800422669236_" class="st7" d="M-221-68.4c-0.9-0.3-1.8-0.5-3-0.1     C-222.9-68-221.9-68.5-221-68.4L-221-68.4z"></path>				<path id="Path_00000167394175678117639130000006015496562047289226_" class="st7" d="M-230.9-65.8c0.1,0.3,0.2,0.7,0.6,0.7     c0,0,0.1-0.1,0.1-0.1C-230.2-65.7-230.6-65.7-230.9-65.8L-230.9-65.8z"></path>				<path id="Path_00000119833644143914057200000001109329250027614593_" class="st7" d="M-236.5-72.5L-236.5-72.5L-236.5-72.5z"></path>				<path id="Path_00000031173813210214996940000003034074554539345830_" class="st7" d="M-223.5-70.5L-223.5-70.5L-223.5-70.5z"></path>				<path id="Shape_00000137844470277331059910000005349520748593426337_" class="st7" d="M260.4-68.2l0.1-0.2l-0.2,0L260.4-68.2z      M280.3-66.5c0.1-0.1,0.2-0.3,0.3-0.4c-0.2-0.1-0.4-0.2-0.5-0.2c-0.1,0-0.2,0.3-0.3,0.4C280-66.6,280.2-66.5,280.3-66.5z      M184.2-73.6c0.2-0.1,0.5-0.1,0.5-0.2c0.2-0.4-0.1-0.6-0.4-0.6c-0.2,0-0.5,0.1-0.5,0.2C183.6-73.9,183.9-73.7,184.2-73.6z      M249.9-72c0.5,0,1.1,0.7,1.6-0.2C251-72.5,250.5-72.7,249.9-72z M247.5-72.7c-0.1-0.7-0.2-1.3-1.1-1.4c-0.1,0-0.4,0.3-0.3,0.4     C246.3-73.1,246.6-72.7,247.5-72.7z M257.1-72.1c-1.1-0.9-2.2-1-3.9-0.7C254.8-72.2,255.7-71.4,257.1-72.1z M177.7-75.4     c0.1,1.3,0.3,2.2,1.7,2.7C179.9-74.3,179-74.8,177.7-75.4z M236.9-73c0.1-0.1,0.2-0.1,0.2-0.2c0-0.1,0-0.2,0-0.3     C237.1-73.3,237-73.2,236.9-73c-1,0.1-1.9,0.3-1.8,1.7C236.7-70.9,236.6-72.2,236.9-73z M263.6-71.7c0.4,0,0.9,0.3,1.1-0.3     c0-0.1-0.2-0.5-0.3-0.5C263.8-72.6,263.8-72.1,263.6-71.7c-0.6-0.1-1.1-0.8-1.8-0.2c0.4,0.6,0.3,1.7,1.5,1.4     C263.5-70.6,263.5-71.3,263.6-71.7z M282.6-67l0.1-0.1L282.6-67l-0.1,0.1L282.6-67z M214.4-69.6c-2.6,0.6-4.9,2.4-7.8,1.3l0,0     c0.4-0.7,0.3-1.3-0.6-1.6c-0.7-0.2-1.1,0.2-1.2,0.8c-0.1,1.1-0.4,2-1.8,2.1l0,0c0.1-0.4,0.3-1.1,0.1-1.3     c-2.5-2.8-6.6-4.4-9.4-3.4c-3.1,1.1-3.9-0.5-5.4-1.5c-1.5,0.6,0.5,1.6-0.8,2.4c-1.2,0.4-2.1-1.4-3.6-1c-0.2-0.2-0.5-0.5-0.7-0.7     c-0.4-0.7-0.9-1.4-1.9-1c-0.3,0.1-0.5,0.5-0.3,0.8c0.7,0.8,1.4,0.4,2.2,0.1c0.2,0.2,0.5,0.5,0.7,0.7c-0.4,0.4-0.9,1.2-1.2,1.1     c-2.5-0.5-4.9-1.4-7.5-0.2c-0.5,0.2-1.1-0.7-1.1-1.4c-0.1-1.6,1.7-0.1,2.2-1.4c-2.5-0.6-4.4-2.6-7.6-2c-2.4,0.5-5-0.6-7.4-1     c-3.6-0.6-7.3-2.1-11.3-0.1c-1.9,0.9-5.2,1.6-7.6-0.4c-0.2-0.2-0.5-0.5-0.7-0.7c-0.4-0.5-0.9-0.7-1.4-0.3     c-0.1,0.1-0.1,0.4-0.1,0.5c0.6,0.4,1-0.1,1.5-0.2c0.2,0.2,0.5,0.4,0.7,0.7c-1.7,1.4-3.5,2.5-5.7,0.7l0,0     c-1.5-1.2-0.8-2.7-0.7-4.1l0,0c1.8-0.7,3.5-1.3,4.9,0.7l0,0c3.5-1.1,7-0.4,10.5,0c3.3,0.4,6.5,1.4,9.9,1.4l0,0     c0.7,0.8,1.4,1.7,2.2,0l0,0c5.3,0.7,10.6,0.3,16,1.6c6.3,1.5,12.9,2.9,19.6,2.3c1.1-0.1,2.3-0.3,3.1,0.9     c0.6,0.9,1.8,0.8,2.8,0.6c3.9-1,3.9-1,6.9,1.8c0.9-2.5,2.7-2.6,5-2.2c1.5,0.3,3.2-0.1,4.8-0.3c2-0.1,3.9-0.1,5.9,0.6     c1.9,0.6,4.1,0.8,5.8-0.9c0.4-0.4,1-0.7,1.5-0.8c2.7-0.5,5.2-1.1,7.8-2c2.6-0.9,5.9-0.4,9,0.1c5.7,0.8,11.4,1.7,16.9,3.1     c3.2,0.8,7,0.3,9.5,3.5c0.4-2.1,1.8-2.5,3.6-2c1,0.3,2,0.6,1.3,2.1c-0.4,0.9-0.2,0.9,1.4,1c0.3,0.3,0.3,0.8,0.9,0.6     c-0.1-0.6-0.6-0.4-0.9-0.6c1-1.7,2.1-2.4,4.3-1.3c1.4,0.7,3.5,0.2,4.9,1.3l0,0c0.2,0.6,0.2,1.2-0.7,1.4l0,0c-0.3,0-0.5,0-0.8,0     l0,0c-5.7-0.6-10.1,3.1-15.2,4.7c-0.1-1.4,1.1-1.1,1.4-1.9c-0.9-0.5-2.1-0.9-1.3-2.5c0.5-1.1-0.2-2.6-1.8-1.6     c-2.1,1.4-4.3,0.3-6.4,0.6c-1,0.2-2.1-1.1-2.9,0.9c-0.5,1.2-2.1-0.5-3.7-1.5c1,2.3-0.4,2.8-1.8,2.9c-0.8,0.1-2.3,1.1-2-1     c0.1,0.1,0.1,0.2,0.2,0.2c0.1,0,0.2,0,0.2,0c-0.2-0.1-0.3-0.1-0.5-0.2c-0.1-1.9-2.2-3.2-4.7-2.5c-2.9,0.8-5.7-0.1-8.6,0.4     c-2.2,0.3-0.9-2-0.7-3.3l0.1-0.2l-0.2,0.1c-0.8-0.3-1.5-0.7-2.7-0.4c1.3,2.1,1.2,3.9-1.5,4.9c-0.3,0.1-0.9,0.4-0.9,0.4     c-1.8-3.3-6.2-0.5-8.3-3c-0.7-0.8-1.1-0.4-2.1,0c-1.6,0.8-3.9,0.5-5.8,0.3c-1.9-0.2-3.6,0.2-5.3,0.8     C216.8-68.7,215.4-68.1,214.4-69.6c0.1-0.2,0.6,0.2,0.4-0.4C214.7-69.9,214.5-69.8,214.4-69.6z"></path>				<path id="Path_00000173861134685183074800000014541321603171734185_" class="st7" d="M322.1-58.1c-4-2.1-8.6-2.5-12.9-2.7     c-3.6-0.1-7.4-0.8-10.9,0.7c-0.7,0.3-1.3,0-1.9-0.5c-1-1.1-1.9-0.4-2.7,0.4l0,0c-2.6,0-5.1,1.7-7.8,0.7l0,0     c0.6-3.7,2-5.3,5.5-4.6c2.3,0.5,3.1-0.5,4.3-1.7c0.3,0.1,0.6,0.2,0.9,0.2c0,0,0.1-0.2,0.1-0.3c-0.3,0-0.6-0.1-0.9-0.1     c-0.3-1.1-1.1-1.8-2.2-2l0,0.1c1.6-2.1,2.9-0.6,3.9,0.5c0.7,0.7,0.9,1.8,1.5,3c3.7-1.3,7.7-1,11.3-0.4c3.3,0.5,6.8,1.7,10.2,2.1     c3.8,0.4,7.2,2.7,11.3,2.3c2.2-0.2,5.1-0.2,5.8,3.2c0.1,0.3,0.9,0.9,1.1,0.8c2.6-1.2,5.8,1,8.1-1.5l0,0c3.7-0.3,7.5-0.8,11,1.1     c2.3,1.2,4.6,2.3,7.3,2.2c0.3,0,0.8,0.1,1,0.3c2.4,2.8,5.7,1.7,8.6,2.1c2,0.3,3.9,0.8,5.4,2.4c0.6,0.6,1.2,1.3,0.5,2.1     c-0.6,0.7-1.4,1.1-2.2,0.5c-2-1.5-4.8-1.2-6.7-2.9c-0.5-0.5-1.2-0.7-1.9-0.7c-3.5-0.1-4.2-0.3-7.5-2.2c-0.6,2.9-2.3,2.2-4.1,1.3     l0,0c-0.7-1.3-2.1-2.2-1.2-4c-1.9,0.4-1.8,1.7-2.3,2.9c-4.7-2.3-9.6-1.3-14.3-1.8c-1-0.1-2.3,0.2-3-0.5c-3.2-3.4-7.2-2.4-11-2.1     l-0.2-0.1l0.2,0.2c-2.3,0.4-2.4-1.9-3.5-3C322.2-59.7,322.9-58.7,322.1-58.1L322.1-58.1z"></path>				<path id="Shape_00000080906083093813684410000016997422419835168686_" class="st7" d="M74.4-81.9c0.3-0.2,0.5-0.2,0.6-0.4     c0.2-0.3,0.2-0.6-0.3-0.7c-0.2,0-0.5,0.1-0.5,0.2C74.2-82.5,74.3-82.2,74.4-81.9z M70.7-82.5L70-83.9l0,0c2.3-1,4.8-0.3,7.2-0.8     c1.8-0.3,1.7,2,3,2.4c0.7-0.6-0.2-1.3,0.3-1.9c0.4-0.5,0.8-0.9,1.4-0.8c0.5,0.1,0.6,0.4,0.6,1c0,1.9,1.2,1.7,2.3,1     c2.8-1.8,4.7-1.7,7.7,0.4c0.2,0.3-0.2,0.8,0.4,0.9c-0.1-0.3-0.3-0.6-0.4-0.8c0.7-1.2,1.6-1.4,2.8-0.7l0,0c1-0.7,1.6-0.2,2.1,0.7     l0,0c5-1.6,10-0.2,15-0.3c0.8,0,1.7,1.1,2.5,1.7l0-0.1c0,0.3,0,0.5,0,0.8l0,0c-2.8-0.2-5.6-0.5-8.4,0c-0.1-0.5,0.2-1.1-0.5-1.4     c-0.3,0.7,0.1,1.1,0.6,1.4c0,0.2,0,0.4,0,0.7c-4.1-1.1-8,1-12.1,0.3c-0.9-0.2,0.1,0.7,0.2,1.1l0,0c-0.7,0.3-1.5,0.7-2,0.2     c-2.4-2.1-5.4-0.7-8-1.3c-2.2-0.4-4.7,0.4-7,0.7c-2.1,0.2-3.8-0.4-5.7-0.7C70.1-79.9,70.8-81.4,70.7-82.5     c0.1-0.2,0.5,0.1,0.4-0.4C71-82.8,70.9-82.7,70.7-82.5z"></path>				<path id="Shape_00000126299322739483784990000002368005242221371318_" class="st7" d="M309.7-57.5c0.5,1,1.1,1.5,2.2,0.9     C311.3-57.9,310.4-57.4,309.7-57.5l-0.1-0.1L309.7-57.5z M301.4-50.6c-1.8,1.9-4.1,1.5-6.3,1.5l0,0c0.4-2.5,2.6-3.3,4.1-3.5     c3.2-0.5,6.1-1.5,8.8-3.6c-2.5-0.4-4.9-0.9-7.4,0.4c-2.8,1.5-5.8,2.5-9,2l0,0.1c-0.1-0.8-1-1.4-0.6-2.7c3.4,0.5,6.2-1,9.3-2.8     c2.9-1.7,6.7-0.6,10.2-0.2c1.1,0.1,2.2,0.7,3.4,0.1c0.7-0.3,1.3-0.4,1.8,0.5c0.4,0.8,0.2,1.5-0.3,2.1c-1,1.3-1.5,3.6-3.9,2.5     c-0.5-0.3-1.5-0.2-2,0.2C307.2-51.8,304.2-51.5,301.4-50.6l-0.1-0.1L301.4-50.6z"></path>				<path id="Path_00000093178981324813590910000009999545570922675332_" class="st7" d="M116-82.4c0-0.6,0-1.5,0.5-1.5     c2.1,0.1,4.4-0.8,6.5,1.4c-1.8,0.4-3.7,0.1-4.8,1.4l0,0h-0.8l0,0c-0.5-0.2-0.9-0.5-1.4-0.7l0,0C116.2-81.9,116.2-82.2,116-82.4     L116-82.4z"></path>				<path id="Path_00000050659495406548791090000007201741235178387852_" class="st7" d="M132-79.9c-1.2,0.7-2.5,1.1-4,0.8     c-0.1-1.9,0.8-2.6,2.1-2.8C131.2-82.2,132-81.6,132-79.9z"></path>				<path id="Path_00000115475838331292490340000009061312744596504707_" class="st7" d="M161.9-67c-0.3-0.9-0.6-1.8-0.9-3     c1.5,0.1,2.7,0.5,4,1.1C164.3-67.4,162.7-67.8,161.9-67L161.9-67z"></path>				<path id="Path_00000057834111579304197750000016193279937243534995_" class="st7" d="M126-74c-1.8,1.8-4.8,0.1-7,0.9     C121-74.2,123.7-73.6,126-74L126-74z"></path>				<path id="Path_00000170970483159620960380000008975137076677492147_" class="st7" d="M171-70.3c-0.9,0.3-1.6,2.1-2.7,0.9     c-0.6-0.6-0.2-1.6,0.4-2.1C169.9-72.6,170.5-71.7,171-70.3L171-70.3z"></path>				<path id="Path_00000031921833200083280540000010171361462536752318_" class="st7" d="M153-73.7c-1.5,0.6-2.6,0.8-4,0.1     C150.2-74,151.4-73.9,153-73.7z"></path>				<path id="Path_00000027599351814387051110000010256004869157143705_" class="st7" d="M136-74.5c0.1,0.4-0.3,0.5-1.1,0.5     c-0.9,0-1.7-0.2-1.9-0.6c-0.1-0.2,0.4-0.4,1-0.4C134.9-75,135.7-74.9,136-74.5z"></path>				<path id="Path_00000101077416925768620540000006477436218239233180_" class="st7" d="M125.6-81c-0.3-0.1-0.5-0.3-0.6-0.6     c-0.1-0.3,0.2-0.5,0.5-0.4c0.3,0.1,0.5,0.3,0.5,0.6C126-81.2,125.9-81,125.6-81z"></path>				<path id="Path_00000052798858107595465070000009441755910872934576_" class="st7" d="M122-76.4c0.9-0.3,1.8-0.5,3-0.1     C123.9-76,122.9-76.5,122-76.4L122-76.4z"></path>				<path id="Path_00000077316827544747031220000007889603308488420780_" class="st7" d="M130.9-73.8c-0.1,0.3-0.2,0.7-0.6,0.7     c0,0-0.1-0.1-0.1-0.1C130.2-73.7,130.6-73.7,130.9-73.8L130.9-73.8z"></path>				<path id="Path_00000039829140498566469160000016905017152321107128_" class="st7" d="M135.5-80.5L135.5-80.5L135.5-80.5z"></path>				<path id="Path_00000047767595340438957890000003848011134501454751_" class="st7" d="M122.5-78.5L122.5-78.5L122.5-78.5z"></path>				<path id="Shape_00000176756195371218728970000004265292277458501047_" class="st7" d="M-40.3-84.4c-0.1,0.2-0.1,0.4-0.2,0.5     c-0.1,0.1-0.3,0-0.5-0.1c0.1-0.2,0.1-0.4,0.2-0.5C-40.7-84.5-40.5-84.4-40.3-84.4z M50-87.4c0.1-0.1,0.3-0.4,0.4-0.4     c0.4-0.1,0.7,0.1,0.5,0.5c-0.1,0.1-0.4,0.3-0.5,0.3C50.2-87.1,50.1-87.3,50-87.4z M-25-84.8c-0.2,0.2-0.5,0.5-0.8,0.3     c-0.1,0,0-0.2-0.1-0.3C-25.6-84.8-25.2-84.8-25-84.8L-25-84.8z M-15.2-85.5l-0.1,0.1L-15.2-85.5l0.1-0.1L-15.2-85.5z M-88-73.4     c3.3,0.1,6.1-1.6,9.3-2.1c2.5-0.4,5.2,0.1,7.5-1.2l0,0c-0.2-0.2-0.2-0.5,0-0.7l-0.1,0.1c0.2-0.2,0.4-0.2,0.6-0.1     c0.1,0.1,0.2,0.2,0.3,0.3l0,0.3l-0.1,0.3l0,0c0.7,1.2,1.6,1.8,2.9,1.3c1.2-1.1-2.1-1.6,0-2.6l0,0c0.5,0.8,1.4,0.6,2.1,0.7l0,0     l1.4-1.4l0,0c0.5-0.5,1-0.6,1.5,0l0,0c0.9,0,1.9-0.4,2.7,0.1c5.2,2.7,10.9,3.6,16.3,5.5c2.8,1,5.8,1.9,8.3,3.8l0,0     c1.7-0.5,3.2,0.2,4.6,1c1.3,0.8,2.5,0.4,2.9-0.7c0.3-1,1.4-2.4-0.5-3.4c-2.5-1.2-4.9-2.6-7.7-2.9c0,0.2,0,0.5,0,0.7     c0.5,0,1.2-0.2,1.3,0.5c0,0.1-0.1,0.2-0.2,0.3c-0.8,0.3-1-0.3-1.1-0.8c0-0.2,0-0.4,0-0.7c-1.1-0.3-2.1,0.7-3.5-0.7     c-1.6-1.5-4.7-1.4-7.1-2c-1.9-0.5-3.7-1.2-5.6-1.6c-0.2-1.3,1-1.1,1.5-1.7l0,0c3.1,1.5,6.4,2.1,9.8,2.7l0,0     c0.1-0.1,0.2-0.1,0.2-0.1c0.2,0,0.3,0.1,0.5,0.1l0,0c1.2-1.4,2.4-0.7,3.5,0c0.2-0.5-0.3-1.4,1-1.5c0.1,0.8-0.5,1.2-1,1.5     c0.4,1.1,1,1,1.9,0.5c1.1-0.7,2.1-1.4,3.2-2c1.9-1,3.7-1.7,6.1-0.6c1.9,0.9,4.2,0.9,6.4,0.7l0,0c0.7-1.4,1.1-0.4,1.6,0.2     c0.8,0.9,1,2.4,2.6,2.3c3.6-0.3,6.2,2.1,9.2,3.4c1.6,0.7,3.1,1.4,4.9,0.9l-0.2-0.1l0.1,0.2c0.1-1.3-0.3-2.3-1.3-2.5     c-3.2-0.6-6-1.4-8-4.4c-0.7-1.1-3.1-0.4-4.5-2.2c4.2,0.6,8,0.4,11.7,0.3l-0.1,0c0.5-1.5,1.3-2.4,3-1.2c0.8,0.6,1.7,0.5,2.7,0.5     l0,0c-0.6-0.7-0.9-1.9,0.4-1.4c4,1.4,7.7,0.3,11.4-0.7c1.6-0.4,2.3,0.5,3.3,1.3c0.7,0.5,0.7,0.5,1.8-0.5c0.5-0.5,1-0.5,1.5-0.2     c1.3,0.7,2.7,0.6,4,0.2l0,0c0.1-0.8,0.2-1.6,1.5-1.2c2.6,0.8,5.2,0.6,7.9,0.3c2.1-0.2,4.2,0.6,6.4-0.2c1.2-0.5,1.8,0.6,1.1,1.8     l0,0c3.7-1.7,7.5,0.8,11.2,0c0.4-0.4,0.8-0.7,1.3-0.2c0.1,0.1,0.1,0.2,0,0.3c-0.5,0.5-0.9,0-1.4-0.1c-0.1,0.8,0.3,1.2,1.1,1.3     c0.9,0.1,1.5,0.5,1.7,1.4l0,0c0.9-0.3,1.9-0.5,2.1-1.5c0.1-0.9-0.8-0.9-1.4-1.2l0,0c0.2-0.5,0.5-0.9,0.7-1.4l0,0     c0.3,0,0.5,0,0.8,0l0,0c1.5,0.8,3,1,4.7,0.8c1.9-0.2,3.9-0.4,5.8,0.5c2.4,1.1,4.3-0.1,6-1.4c1.2-0.9,0.9-2.1-0.5-2.1     c-3.6,0-7.2-0.4-10.7,0.6c-0.2,0.1-0.3,0.6-0.5,0.8l0,0c-1.5-0.5-0.5-2.3-1.8-3.1c-0.9,0.1-2,0.3-3.1,0.5l0,0     c-0.1,0.2-0.4,0.5-0.4,0.5c-4.9-2.6-10.3-1.5-15.5-1.7c-2.2-0.1-4.4,0-6.6-0.4c-0.6-0.1-1.4-0.3-1.7-0.1c-2.2,2-4.4,0.8-6.7,0.4     c-0.2,0-0.2,0.5-0.5,0.1c0.2,0,0.4-0.1,0.6-0.1c-0.1-0.1-0.2-0.2-0.3-0.2c-4,1.1-8.2-1-12.2,0.5c-1.6,0.6-3.4,0.3-4.8,0     c-2.7-0.6-4.9-1.3-7.4,0.6c-1.1,0.9-3.2-0.2-5.1-0.1c-3.4,0.3-6.8,0.8-10.4,0.4c-5.5-0.6-11.2-0.9-16.3,2.6     c-1.6,1.1-4.3,1.1-6.4,0.8c-4.2-0.6-8.3,0.1-12.3,0.8c-3.1,0.5-6.3-0.8-9.2,0.8c-1.7,1-4.1-0.2-5.5,1.7c-0.7,1-1.5-0.4-2.5-0.4     c-2.8,0.2-5.3,1.3-7.9,2c-2.4,0.6-5.3-0.3-7.4,2.2c-0.9,1.1-1.9-0.6-2.4-1.6l0,0c-0.7,0.2-1.4,0.4-2.2,0.6     c0,0.3,0.1,0.6,0.1,0.9c-0.1,0-0.3,0-0.3,0c-0.2-0.3,0-0.6,0.2-0.9c-1.9-1-2.8,1.1-4.4,1.4c-4.9,0.8-9.8,1.6-14.7,2.3     c-0.8,0.1-1.8-0.1-1.7,1.1c0,1,0.7,1.5,1.6,1.4c1.7-0.2,3.2,0.5,4.8,0.6c1.9,0,3.7,0.2,5.6,1.6c-1.1-2,0.7-2.8,0.9-4.6     c1.2,1.9,2.6,2.4,4.3,1.6l0,0c0.2-0.5,0-1.4,0.7-1.3C-87.1-74.5-87.9-73.8-88-73.4L-88-73.4z"></path>				<path id="Shape_00000156589571607047195210000012758631866019640717_" class="st7" d="M-140.7-72.9c0,0.1-0.1,0.2-0.1,0.3     c-0.1,0-0.2,0-0.3-0.1c0-0.1,0.1-0.2,0.1-0.3C-141-73-140.8-72.9-140.7-72.9z M-134-69.9c-0.1,0-0.2-0.1-0.2-0.1     c0.1-0.1,0.1-0.3,0.2-0.4c0,0,0.2,0,0.2,0.1C-133.9-70.2-133.9-70.1-134-69.9z M-132.5-71.4c0.1,0.1,0.6-0.2,0.5,0.3     C-132.2-71.2-132.3-71.3-132.5-71.4c-0.1-0.1-0.6,0.2-0.4-0.4C-132.8-71.6-132.7-71.5-132.5-71.4z M-126.9-72l0.2,0.1L-126.9-72     L-126.9-72z M-141.6-70.1c1.8,0.8,3.3,2.5,5.6,1.4c-1.9-0.1-2-1.4-2-2.7l-0.1-0.1l0.1,0.1c0.2,0,0.5,0,0.7,0     c0.5-0.3,1-0.8,1.7-0.3c-0.5,0.6-1.2,0.2-1.7,0.3c-0.1,1.2,0.6,1.9,1.5,2.6c0.8,0.7,1.7,0.9,2.8,0.7l0,0     c2.5-0.3,5.1-0.4,7.1-2.4c0.7-0.7,1.4,0.2,0.6,1.1l0,0c0.6,0.3,1.5,0.8,1.9,0.2c1.5-2.2,3.6-1.5,5.8-1.4c2.4,0.1,5,0.5,7-1.4     l0,0c1-0.5,2.2-0.7,2.9-2.1c-2.7-1.7-5.6-0.5-8.2-0.2c-7.8,0.8-15.5,0.1-23.2-0.6c-2.8-0.3-5.6,1-8.5,0.5     c-0.4-0.1-0.9-0.2-1.3-0.3l0,0c-0.2-0.4-0.5-0.9-0.7-1.3l0,0c-2.1,0.8-4.4,0.6-6.4,0.4c-4.6-0.6-9.2,0.3-13.8-0.4l0,0     c-0.2,0.2-0.4,0.3-0.6,0.5c-0.1,0.1-0.2,0.3-0.2,0.4c1.2,1.6,3.5,1.3,5,2.4l-0.1,0c1-0.4,2-0.9,3-0.6c3.4,1.4,7.2,0.3,10.6,1.4     c0.8,0.3,1.8-0.3,2.3-0.1C-147.4-70.6-144.1-72-141.6-70.1L-141.6-70.1z"></path>			</g>		</g>	</g></g></svg>