<svg xmlns="http://www.w3.org/2000/svg" xmlns:xlink="http://www.w3.org/1999/xlink" id="Layer_1" x="0px" y="0px" viewBox="0 0 187 164" style="enable-background:new 0 0 187 164;" xml:space="preserve"><style type="text/css">	.st0{fill:#FFFFFF;}</style><g id="Home-1">	<g id="De-bebe---Home-1-" transform="translate(-591.000000, -622.000000)">					<g id="path" transform="translate(684.399536, 704.022949) rotate(39.000000) translate(-684.399536, -704.022949) translate(580.899536, 683.522949)">			<path id="Path" class="st0" d="M78,112.3c-1,0.1-1.8-0.7-1.9-1.6c0-0.3-0.5-8,0.2-13.1c0.1-1,1-1.6,2-1.5c0.9,0.1,1.6,1,1.5,1.9    c-0.6,4.8-0.2,12.4-0.2,12.5c0,0.2,0,0.3,0,0.5C79.4,111.7,78.8,112.3,78,112.3z"></path>			<path id="Path_00000163054343409927005990000003390518902544941477_" class="st0" d="M60.6,93.3c-1,0.1-1.8-0.7-1.9-1.6    c0-0.3-0.5-8,0.2-13.1c0.1-1,1-1.6,2-1.5c0.9,0.1,1.6,1,1.5,1.9c-0.6,4.8-0.2,12.4-0.2,12.5c0,0.2,0,0.3,0,0.5    C62,92.7,61.3,93.3,60.6,93.3z"></path>			<path id="Path_00000008870189456443054890000008164097689063816103_" class="st0" d="M82.3,64.5c-2.4,4.2-4.9,11.4-4.9,11.5    c-0.3,0.9-1.3,1.4-2.3,1.1c-0.9-0.3-1.4-1.3-1.1-2.2c0.1-0.3,2.6-7.5,5.2-12c0.5-0.8,1.5-1.1,2.4-0.7c0.7,0.4,1,1.2,0.9,1.9    C82.4,64.2,82.3,64.3,82.3,64.5z"></path>			<path id="Path_00000060026799773973393670000004269977770179398548_" class="st0" d="M79.2,40.2c-2.1,4.3-4.2,11.5-4.3,11.6    c-0.2,0.9-1.1,1.5-2,1.2c-0.8-0.2-1.3-1.2-1-2.1c0.1-0.3,2.2-7.6,4.5-12.2c0.4-0.9,1.4-1.2,2.2-0.8c0.7,0.3,1,1.1,0.8,1.9    C79.3,39.9,79.3,40.1,79.2,40.2z"></path>			<path id="Path_00000101809799973440262160000009729519308921943480_" class="st0" d="M81,2.8c-2.1,4.3-4.2,11.5-4.3,11.6    c-0.2,0.9-1.2,1.4-2,1.2c-0.8-0.2-1.3-1.2-1-2.1c0.1-0.3,2.2-7.6,4.5-12.2c0.4-0.9,1.4-1.2,2.2-0.8c0.7,0.3,1,1.1,0.8,1.9    C81.2,2.5,81.1,2.7,81,2.8z"></path>			<path id="Path_00000175310609633391825300000017860721824231419559_" class="st0" d="M94.1-25.1c-2.1,4.3-4.2,11.5-4.3,11.6    c-0.2,0.9-1.1,1.5-2,1.2c-0.8-0.2-1.3-1.2-1-2.1c0.1-0.3,2.2-7.6,4.5-12.2c0.4-0.9,1.4-1.2,2.2-0.8c0.7,0.3,1,1.1,0.8,1.9    C94.3-25.4,94.2-25.2,94.1-25.1z"></path>			<path id="Path_00000079469328707377428110000002697713158878272949_" class="st0" d="M104.1-19c-1-0.1-1.8-0.9-1.7-1.9    c0-0.3,0.7-7.8,2.2-12.7c0.2-0.9,1.3-1.5,2.3-1.1c1,0.3,1.7,1.3,1.3,2.1c-1.4,4.5-2,12-2.1,12.1c0,0,0,0.1,0,0.2    C106-19.5,105.1-19,104.1-19z"></path>			<path id="Path_00000038393666841567240890000004680990760786625186_" class="st0" d="M97,43c-2.1,4.3-4.2,11.5-4.3,11.6    c-0.2,0.9-1.2,1.4-2,1.2c-0.8-0.2-1.3-1.2-1-2.1c0.1-0.3,2.2-7.6,4.5-12.2c0.4-0.9,1.4-1.2,2.2-0.8c0.7,0.3,1,1.1,0.8,1.9    C97.2,42.7,97.1,42.8,97,43z"></path>			<path id="Path_00000145743106576367793380000002575987780552703888_" class="st0" d="M93.9,23.9c-2.1,4.3-4.2,11.5-4.3,11.6    c-0.2,0.9-1.1,1.5-2,1.2c-0.8-0.2-1.3-1.2-1-2.1c0.1-0.3,2.2-7.6,4.5-12.2c0.4-0.9,1.4-1.2,2.2-0.8c0.7,0.3,1,1.1,0.8,1.9    C94.1,23.6,94,23.8,93.9,23.9z"></path>			<path id="Path_00000183221552403312634310000012041728191963729560_" class="st0" d="M111.8,16.5c-2.1,4.3-4.2,11.5-4.3,11.6    c-0.2,0.9-1.1,1.5-2,1.2c-0.8-0.2-1.3-1.2-1-2.1c0.1-0.3,2.2-7.6,4.5-12.2c0.4-0.9,1.4-1.2,2.2-0.8c0.7,0.3,1,1.1,0.8,1.9    C112,16.3,112,16.4,111.8,16.5z"></path>			<path id="Path_00000015330804886065380780000004473550329782678679_" class="st0" d="M121-26.5c-2.1,4.3-4.2,11.5-4.3,11.6    c-0.2,0.9-1.2,1.4-2,1.2c-0.8-0.2-1.3-1.2-1-2.1c0.1-0.3,2.2-7.6,4.5-12.2c0.4-0.9,1.4-1.2,2.2-0.8c0.7,0.3,1,1.1,0.8,1.9    C121.1-26.8,121.1-26.6,121-26.5z"></path>			<path id="Path_00000060010976719488277560000018045174417686799001_" class="st0" d="M127.9-63.9c-2.1,4.3-4.2,11.5-4.3,11.6    c-0.2,0.9-1.2,1.4-2,1.2s-1.3-1.2-1-2.1c0.1-0.3,2.2-7.6,4.5-12.2c0.4-0.9,1.4-1.2,2.2-0.8c0.7,0.3,1,1.1,0.8,1.9    C128.1-64.2,128-64,127.9-63.9z"></path>			<path id="Path_00000005232793069357656570000011479656425430679945_" class="st0" d="M86.2,122.5c-2.1,4.3-4.2,11.5-4.3,11.6    c-0.2,0.9-1.2,1.4-2,1.2s-1.3-1.2-1-2.1c0.1-0.3,2.2-7.6,4.5-12.2c0.4-0.9,1.4-1.2,2.2-0.8c0.7,0.3,1,1.1,0.8,1.9    C86.4,122.2,86.4,122.4,86.2,122.5z"></path>			<path id="Path_00000105405405727454119950000009696855644487543973_" class="st0" d="M96.5,88.7c-1-0.1-1.8-1-1.7-1.9    c0-0.3,0.8-7.8,2.3-12.7c0.3-0.9,1.3-1.4,2.3-1.1c1,0.3,1.6,1.3,1.3,2.2c-1.4,4.5-2.2,12-2.2,12.1s0,0.1,0,0.2    C98.3,88.3,97.4,88.9,96.5,88.7z"></path>		</g>	</g></g></svg>