<svg xmlns="http://www.w3.org/2000/svg" xmlns:xlink="http://www.w3.org/1999/xlink" width="129px" height="117px" viewBox="0 0 129 117"><title>post</title><g id="Home-1" stroke="none" stroke-width="1" fill="none" fill-rule="evenodd"><g id="De-bebe---Home-1-" transform="translate(-1217.000000, -7121.000000)"><g id="Footer" transform="translate(-11.000000, 7058.000000)"><g id="Group-8" transform="translate(104.000000, 49.000000)"><g id="post" transform="translate(1124.000000, 14.000000)"><path d="M71.0283162,2.2243393 C55.059201,-4.29188999 31.7494587,4.9206297 17.1842376,11.7358294 C10.9635284,14.6463103 7.720526,19.4339599 6.10540122,26.0686661 C4.95543309,30.7919689 3.51638781,40.8180538 6.56987532,45.3565614 C6.61267469,45.4195746 6.67652349,45.4636853 6.72142799,45.5252987 C0.815050302,54.4402818 -5.66664374,68.70447 8.59412493,72.2050052 C22.4660207,75.6105438 36.7043371,71.6917905 45.0404071,59.7816003 C47.4799783,56.2955834 48.8804596,53.1546014 49.6122233,49.9017743 C51.9395333,49.4319713 54.2591197,48.9061561 56.5695457,48.3257269 L56.5695457,77.2136563 C56.5695457,77.7163676 57.010867,77.9859249 57.4949913,77.9859249 L63.6567858,77.9859249 C64.5218978,78.0888475 65.7216739,77.6169438 65.7216739,76.9097927 L65.7216739,45.8028859 C71.7977906,43.9943657 77.8227162,41.9899373 83.8056111,40.0588177 C84.2736057,39.9075849 85.0145298,39.4965991 85,38.8965611 C84.6714236,25.3751389 85.7729847,8.24133635 71.0303549,2.22607971 L71.0283162,2.2243393 Z M18.2414144,12.7500048 C18.5400351,12.611783 18.8505813,12.4849647 19.1513065,12.3495901 C28.1293553,10.9566838 34.6194374,13.8258698 39,19.1808809 C33.5715127,19.0690209 27.9478661,18.6500711 22.6262219,19.2499927 C20.4537477,19.495097 18.9241303,20.2610158 17.8272809,21.3588595 C17.379008,21.5804346 17.0839127,21.8704265 17.1492596,22.1618229 C14.420986,25.9379748 15.4510316,32.5235777 15.4510316,37.4125297 C15.4510316,40.447058 14.9725405,43.85331 17.2968612,46.2023927 C18.4709289,47.3886804 19.8529988,47.8311375 21.310848,48 C17.92281,47.6615636 11.3848824,47.642339 8.9665255,45.1186847 C7.12843036,43.2013342 7.14947519,38.9214036 7.04551012,36.5232563 C6.62815694,26.8704762 8.98199435,17.0396772 18.2410007,12.7497148 L18.2414144,12.7500048 Z M45.9942981,47.093001 C38.0921807,48.5030461 29.9040775,48.1094417 22,47 C22.909025,47.0732739 23.838862,47.0460315 24.7639949,47.0460315 L46,47.0460315 C45.997912,47.0620013 45.9951277,47.0779706 45.9937358,47.093001 L45.9942981,47.093001 Z M31.4292562,45.8714356 C28.9188634,45.8714356 26.2192012,46.1607055 23.720496,45.8714356 C21.8928686,45.6600788 20.7434712,44.8607826 20,43.7382924 C23.2114746,40.1588 26.4229493,36.5793077 29.6344239,33 C30.5216178,33.5973023 31.4067532,34.1722408 32.2763459,34.6959514 C36.9869739,37.5280772 40.7831777,36.8911444 45.0638065,34.4405873 C45.1782839,35.1410472 45.2934417,35.8414887 45.3820233,36.5578488 C45.7922408,39.8754766 46.1131789,42.9088946 45.9619029,45.8715834 L31.429326,45.8715834 L31.4292562,45.8714356 Z M19.0001556,38.8676877 L19.0001556,28.8119147 C19.0001556,27.3732838 19.0967396,26.085873 19.458756,25 C21.867346,27.8398117 24.8932128,30.4243952 28,32.6146 C25.1051964,35.74283 22.2103928,38.87177 19.3154164,42 C19.0925224,41.0293524 19,39.9693572 19,38.8676877 L19.0001556,38.8676877 Z M34.8785582,33.6208906 C32.6727993,32.2855876 30.6149683,30.6680675 28.6278549,28.9902332 C25.9633964,26.7398554 23.1557477,24.2869285 21,21.4148246 C21.6196481,20.9799919 22.4120542,20.6544117 23.4258084,20.4586205 C28.6804984,19.4415579 34.9141803,20.4351556 40.274508,20.4241572 C40.2902736,20.4241572 40.3080962,20.4160911 40.3238612,20.4153578 C42.5461151,23.9563052 44.0822498,28.287175 45,33.065192 C41.4671006,35.2774628 38.4209773,35.7651573 34.8784266,33.6210098 L34.8785582,33.6208906 Z M19.1459198,70.9826955 C14.7139495,71.0996263 6.00289724,70.7194157 3.14694968,66.8305896 C0.876387138,63.7392747 2.47970756,58.8092316 3.66085535,55.6157452 C4.76708245,52.6258848 6.27662656,49.7174031 7.98904798,47 C11.2642287,49.1362803 16.35292,49.3897373 19.7723858,49.7978855 C28.3448886,50.8222533 37.3929046,51.2129607 46,50.1017651 C45.7073433,51.2164739 45.3334569,52.3346602 44.7985627,53.4710939 C39.9556041,63.7660365 30.7545204,70.6760556 19.1462962,70.9827493 L19.1459198,70.9826955 Z M62,75.8882245 C60.9167068,76.0061577 59.7637486,76.0944277 59.013131,75.8098379 C58.9901221,75.5979761 58.9882563,75.232176 59.0840233,74.5782409 C59.6984313,70.3798733 59.0840233,65.453485 59.0840233,61.1987125 C59.0840233,56.9706962 59.5578915,52.3424222 59.0840233,48.1489358 C59.0324082,47.6934482 59.0697205,47.2577205 59.0970827,46.9088599 C60.0659445,46.6129693 61.0335646,46.3128302 61.9992585,46 C61.9998804,55.9621515 61.9998804,65.9243031 61.9998804,75.8873585 L62,75.8882245 Z M70.6189204,42.1658233 C63.6677417,44.2921054 56.6689301,46.4724043 49.5507665,48 C49.929925,44.9242822 49.812658,41.6656275 49.3689164,37.8387159 C47.6205885,22.768203 40.3240439,11.1868167 26,10.6358451 C32.9700521,8.04339784 40.3510059,6.01200528 47.3899012,4.41058661 C58.6613006,1.84550786 74.5281136,1.48395528 79.0793093,14.7701125 C81.1794741,20.9019219 82.8344053,31.7614635 81.5466973,38.0675671 C81.4666542,38.4593331 81.5410802,38.6597895 81.6562316,38.7582442 C81.3683487,38.809589 80.917579,38.9263427 80.21475,39.1682859 C77.0508421,40.2570669 73.8204278,41.1883349 70.6207502,42.1665795 L70.6189204,42.1658233 Z" id="Shape" fill="#0A1E33"></path><g id="Group-22" transform="translate(78.409431, 73.123526) rotate(39.000000) translate(-78.409431, -73.123526) translate(23.000000, 62.000000)" fill="#E46A4B" fill-rule="nonzero"><path d="M98.2819967,14.5093639 C98.2039008,14.5093639 98.1258048,14.5093639 98.0216769,14.4856193 C97.969613,14.4856193 93.8565604,13.4646058 91.1232026,13.2746498 C90.5765311,13.2271608 90.1860514,12.7997597 90.2381154,12.3248697 C90.2901793,11.8499796 90.732723,11.4463231 91.2793945,11.5175566 C94.1689441,11.7312571 98.3600926,12.7522707 98.5162845,12.7997597 C99.0369241,12.9184822 99.3493078,13.4171168 99.1931159,13.8920068 C99.088988,14.2481743 98.6985083,14.5093639 98.2819967,14.5093639 Z" id="Path"></path><path d="M90.2486572,3 C90.1705612,3 90.0924653,3 89.9883374,2.97625877 C89.9362734,2.97625877 85.8232209,1.95538605 83.0898631,1.76545624 C82.5431916,1.71797379 82.1527119,1.29063172 82.2047759,0.815807199 C82.2568398,0.317241451 82.6993835,-0.0626181668 83.246055,0.00860551147 C86.1356046,0.222276546 90.3267531,1.24314927 90.482945,1.29063172 C91.0035846,1.40933785 91.3159683,1.9079036 91.1597764,2.38272812 C91.0556485,2.73884651 90.6651688,3 90.2486572,3 Z" id="Path"></path><path d="M72.4445256,10.4040191 C72.0293306,10.4040191 71.6400852,10.1685075 71.5103368,9.79168892 C71.3546386,9.32066568 71.6400852,8.82609128 72.159079,8.68478431 C74.9356959,7.90759597 79.1914451,7.43657274 79.3730929,7.41302158 C79.8920867,7.34236809 80.3851309,7.69563552 80.4629799,8.19020992 C80.5148793,8.68478431 80.1515837,9.10870522 79.6066402,9.17935871 C79.5547408,9.17935871 75.3249412,9.65038195 72.7299722,10.380468 C72.6521231,10.380468 72.5483244,10.4040191 72.4445256,10.4040191 Z" id="Path"></path><path d="M60.6984957,7.03780224 C60.2580422,7.03780224 59.8694067,6.75615814 59.7657705,6.32088998 C59.6362254,5.80880979 59.9212247,5.27112559 60.4394054,5.14310554 C63.237581,4.40058926 67.5125714,4.06773714 67.6939346,4.04213313 C68.2380243,3.99092511 68.7043869,4.40058926 68.730296,4.91266945 C68.782114,5.45035365 68.3675695,5.91122582 67.8493888,5.93682983 C67.7975708,5.93682983 63.5743984,6.26968196 60.9575861,6.98659423 C60.8539499,7.01219824 60.7762228,7.03780224 60.6984957,7.03780224 Z" id="Path"></path><path d="M41.1561308,3.56177791 C40.7155226,3.56177791 40.3267506,3.2801338 40.2230781,2.84486564 C40.0934874,2.33278545 40.3785869,1.79510125 40.8969495,1.6670812 C43.6961076,0.924564922 47.9725992,0.591712797 48.1540261,0.566108788 C48.6983068,0.514900769 49.1648332,0.924564922 49.1907513,1.43664511 C49.2166694,1.9487253 48.8278975,2.43520149 48.3095349,2.4608055 C48.2576986,2.4608055 44.0330433,2.79365762 41.4153121,3.51056989 C41.3375577,3.56177791 41.2338852,3.56177791 41.1561308,3.56177791 Z" id="Path"></path><path d="M24.4640398,6.78441608 C24.0235863,6.78441608 23.6349508,6.50247858 23.5313146,6.06675698 C23.4017695,5.55414334 23.6867688,5.01589901 24.2049495,4.8877456 C27.003125,4.14445582 31.2781155,3.81125695 31.4594787,3.78562626 C31.9776594,3.75999558 32.469931,4.14445582 32.49584,4.65706946 C32.5476581,5.19531379 32.1331136,5.65666606 31.6149329,5.68229675 C31.5631149,5.68229675 27.3399425,6.01549562 24.7231301,6.73315472 C24.645403,6.78441608 24.5417669,6.78441608 24.4640398,6.78441608 Z" id="Path"></path><path d="M26.5634708,13.1859521 C26.537856,13.1859521 26.4866263,13.1859521 26.4610114,13.1859521 C26.4097817,13.1859521 22.2345616,12.6459521 19.5706175,12.8859521 C19.0583206,12.9759521 18.5716385,12.4659521 18.5460236,11.8359521 C18.4947939,11.2059521 18.9046315,10.6659521 19.4425433,10.6359521 C22.3114062,10.3659521 26.5122411,10.9059521 26.6915451,10.9359521 C27.2294568,10.9959521 27.5880647,11.5659521 27.536835,12.1659521 C27.4599905,12.7659521 27.0501529,13.1859521 26.5634708,13.1859521 Z" id="Path"></path><path d="M60.4412011,16.2537463 C60.0005929,16.2537463 59.6118209,15.9721022 59.5081484,15.5368341 C59.3785578,15.0247539 59.6636572,14.4870697 60.1820198,14.3590496 C62.9811779,13.6165333 67.2576695,13.2836812 67.4390964,13.2580772 C67.9833772,13.2068692 68.4499035,13.6165333 68.4758217,14.1286135 C68.5017398,14.6406937 68.1129678,15.1271699 67.5946052,15.1527739 C67.5427689,15.1527739 63.3181136,15.485626 60.7003824,16.2025383 C60.5967099,16.2281423 60.5189555,16.2537463 60.4412011,16.2537463 Z" id="Path"></path><path d="M50.8912494,12.4060346 C50.4507958,12.4060346 50.0621603,12.1243905 49.9585242,11.6891224 C49.828979,11.1770422 50.1139784,10.639358 50.632159,10.5113379 C53.4303346,9.76882164 57.7053251,9.43596951 57.8866883,9.4103655 C58.430778,9.35915749 58.8971406,9.76882164 58.9230496,10.2809018 C58.9748677,10.818586 58.5603231,11.2794582 58.0421425,11.3050622 C57.9903244,11.3050622 53.767152,11.6379143 51.1503397,12.3548266 C51.0467036,12.4060346 50.9689765,12.4060346 50.8912494,12.4060346 Z" id="Path"></path><path d="M45.0077509,21.0306764 C44.5672974,21.0306764 44.1786619,20.7490323 44.0750257,20.3137642 C43.9454806,19.801684 44.2304799,19.2639998 44.7486606,19.1359797 C47.5468362,18.3934634 51.8218266,18.0606113 52.0031898,18.0350073 C52.5213705,17.9837993 53.0136421,18.3934634 53.0395512,18.9055436 C53.0913692,19.4432278 52.6768247,19.9041 52.158644,19.929704 C52.106826,19.929704 47.8836536,20.2625561 45.2668413,20.9794684 C45.1891142,21.0306764 45.1113871,21.0306764 45.0077509,21.0306764 Z" id="Path"></path><path d="M20.8025102,21.3305744 C20.361902,21.3305744 19.97313,21.0489303 19.8694575,20.6136622 C19.7398669,20.101582 20.0249663,19.5638978 20.5433289,19.4358777 C23.342487,18.6933614 27.6189786,18.3605093 27.8004055,18.3349053 C28.3446863,18.2836973 28.8112126,18.6933614 28.8371307,19.2054416 C28.8630489,19.7175218 28.4742769,20.203998 27.9559143,20.229602 C27.904078,20.229602 23.6794227,20.5624541 21.0616915,21.2793664 C20.9839371,21.3305744 20.9061828,21.3305744 20.8025102,21.3305744 Z" id="Path"></path><path d="M0.964155725,20.6674828 C0.523547503,20.6674828 0.134775542,20.3858387 0.0311030191,19.9505705 C-0.0984876345,19.4384903 0.186611803,18.9008061 0.704974417,18.7727861 C3.50413253,18.0302698 7.7806241,17.6974177 7.96205102,17.6718137 C8.50633176,17.6206057 8.97285811,18.0302698 8.99877624,18.54235 C9.02469437,19.0544302 8.63592241,19.5409064 8.1175598,19.5665104 C8.06572354,19.5665104 3.84106823,19.8993625 1.22333703,20.6162748 C1.14558264,20.6674828 1.04191012,20.6674828 0.964155725,20.6674828 Z" id="Path"></path><path d="M102.783017,19.2820471 C102.342409,19.2820471 101.953637,19.0001096 101.849965,18.564388 C101.720374,18.0517743 102.005473,17.51353 102.523836,17.3853766 C105.322994,16.6420868 109.599486,16.3088879 109.780913,16.2832573 C110.325193,16.2576266 110.79172,16.6420868 110.817638,17.1547005 C110.843556,17.6673141 110.454784,18.1542971 109.936421,18.1799277 C109.884585,18.1799277 105.65993,18.5131266 103.042199,19.2307857 C102.964444,19.2820471 102.860772,19.2820471 102.783017,19.2820471 Z" id="Path"></path><path d="M83.9588331,22.0261717 C83.9332182,22.0261717 83.9076032,22.0261717 83.8563734,22.0261717 C83.8051435,22.0261717 79.6299095,21.5461717 76.9659565,21.8161717 C76.4280429,21.9061717 75.9669741,21.4261717 75.9157443,20.7961717 C75.8645144,20.1661717 76.2487384,19.6261717 76.786652,19.5661717 C79.6299095,19.2661717 83.8563734,19.7461717 84.0356779,19.7761717 C84.5735915,19.8361717 84.9578155,20.3761717 84.9065856,21.0061717 C84.8809707,21.5761717 84.4711317,22.0261717 83.9588331,22.0261717 Z" id="Path"></path></g></g></g></g></g></g></svg>