<svg xmlns="http://www.w3.org/2000/svg" xmlns:xlink="http://www.w3.org/1999/xlink" width="130px" height="130px" viewBox="0 0 130 130"><title>Path</title><g id="Home-1" stroke="none" stroke-width="1" fill="none" fill-rule="evenodd"><g id="De-bebe---Home-1-" transform="translate(-960.000000, -232.000000)" fill="#0A1E33"><g id="Hero" transform="translate(-4.000000, 90.000000)"><g id="Group-11" transform="translate(964.000000, 142.000000)"><path d="M71.7456011,1.6250291 L71.7456011,1.6250291 C78.4933103,-1.83027747 86.761817,0.384705629 90.8777442,6.75018352 L90.8777442,6.75018352 C93.4496027,10.7304889 97.7760711,13.2346209 102.509119,13.4823486 L102.509119,13.4823486 C110.081775,13.8615684 116.135872,19.9145473 116.515162,27.4858049 L116.515162,27.4858049 C116.754232,32.2279211 119.259869,36.5656786 123.24857,39.1426801 L123.24857,39.1426801 C129.615223,43.2578474 131.830615,51.5248275 128.374671,58.2712909 L128.374671,58.2712909 C126.207497,62.4966626 126.207497,67.5067934 128.374671,71.7321651 L128.374671,71.7321651 C131.830615,78.4786284 129.615223,86.7456085 123.24857,90.8607758 L123.24857,90.8607758 C119.259444,93.4373736 116.75367,97.775369 116.515162,102.517651 L116.515162,102.517651 C116.1343,110.088211 110.081077,116.140315 102.509119,116.521107 L102.509119,116.521107 C97.7666086,116.758795 93.4279426,119.262745 90.8500916,123.249816 L90.8500916,123.249816 C86.7361977,129.60021 78.4864962,131.813354 71.7456011,128.374971 L71.7456011,128.374971 C67.5186245,126.211615 62.5092178,126.211615 58.2822411,128.374971 L58.2822411,128.374971 C51.534532,131.830277 43.2660252,129.615294 39.150098,123.249816 L39.150098,123.249816 C36.5722471,119.262745 32.2335811,116.758795 27.4910702,116.521107 L27.4910702,116.521107 C19.9191123,116.140315 13.8658901,110.088211 13.4850279,102.517651 L13.4850279,102.517651 C13.2467344,97.7761814 10.7424594,93.4385543 6.75507623,90.8607758 L6.75507623,90.8607758 C0.385782725,86.7477038 -1.83148527,78.4792992 1.62551879,71.7321651 L1.62551879,71.7321651 C3.79269266,67.5067934 3.79269266,62.4966626 1.62551879,58.2712909 L1.62551879,58.2712909 C-1.83148527,51.5241568 0.385782725,43.2557522 6.75507623,39.1426801 L6.75507623,39.1426801 C10.7416112,36.5640953 13.2456118,32.2269433 13.4850279,27.4858049 L13.4850279,27.4858049 C13.8643178,19.9145473 19.9184144,13.8615684 27.4910702,13.4823486 L27.4910702,13.4823486 C32.234062,13.2433221 36.5726206,10.7381482 39.150098,6.75018352 L39.150098,6.75018352 C43.2647575,0.394138007 51.5215057,-1.81969508 58.2649582,1.6250291 L58.2649582,1.6250291 C62.4957787,3.79771498 67.5147806,3.79771498 71.7456011,1.6250291 Z" id="Path"></path></g></g></g></g></svg>